QalamBadi-RegularContrast.ufo
<glyph name="exclam" format="2">
  <advance width="434"/>
  <unicode hex="0021"/>
  <outline>
    <contour>
      <point x="152.0" y="1255.0" type="line" smooth="yes"/>
      <point x="113.6104778775084" y="1255.7488573655005"/>
      <point x="82.60724386566767" y="1250.9919350425482"/>
      <point x="85.06119845106184" y="1219.959999186499" type="curve" smooth="yes"/>
      <point x="133.05946736079272" y="512.9463400483346" type="line" smooth="yes"/>
      <point x="137.7448930340022" y="487.2609903369994"/>
      <point x="175.44747830578385" y="477.3963280729988"/>
      <point x="217.0" y="478.0" type="curve" smooth="yes"/>
      <point x="259.67796304208076" y="477.3756369737606"/>
      <point x="295.6356853952514" y="486.833165946905"/>
      <point x="299.9381387254257" y="512.965177769958" type="curve" smooth="yes"/>
      <point x="348.9363869678344" y="1219.9787315836918" type="line" smooth="yes"/>
      <point x="351.39275613433233" y="1250.9919350425482"/>
      <point x="320.3895221224916" y="1255.7488573655005"/>
      <point x="282.0" y="1255.0" type="curve" smooth="yes"/>
    </contour>
    <contour>
      <point x="66.0" y="207.0" type="curve" smooth="yes"/>
      <point x="66.0" y="53.0" type="line" smooth="yes"/>
      <point x="69.58056762715502" y="15.089905964062087"/>
      <point x="125.29422434372754" y="3.857067090762417"/>
      <point x="217.0" y="4.0" type="curve" smooth="yes"/>
      <point x="308.70577565627246" y="3.857067090762417"/>
      <point x="364.419432372845" y="15.089905964062087"/>
      <point x="368.0" y="53.0" type="curve" smooth="yes"/>
      <point x="368.0" y="207.0" type="line" smooth="yes"/>
      <point x="364.419432372845" y="244.9100940359379"/>
      <point x="308.70577565627246" y="256.1429329092376"/>
      <point x="217.0" y="256.0" type="curve" smooth="yes"/>
      <point x="125.29422434372754" y="256.1429329092376"/>
      <point x="69.58056762715502" y="244.9100940359379"/>
    </contour>
  </outline>
</glyph>
<glyph name="numbersign" format="2">
  <advance width="1292"/>
  <unicode hex="0023"/>
  <outline>
    <contour>
      <point x="902.8367420553732" y="1172.4768625878585" type="curve" smooth="yes"/>
      <point x="834.0689010187062" y="907.9338794995327" type="line" smooth="yes"/>
      <point x="831.9879992229355" y="878.4662355918846"/>
      <point x="814.7996872746152" y="852.0318765446079"/>
      <point x="799.156494140625" y="851.0" type="curve" smooth="yes"/>
      <point x="633.9946899414062" y="851.0" type="line" smooth="yes"/>
      <point x="620.4749206816444" y="852.5580645981569"/>
      <point x="617.0326580881864" y="883.7524396768466"/>
      <point x="623.2345172808416" y="914.9782811125674" type="curve" smooth="yes"/>
      <point x="683.1618606783198" y="1145.5260296603822" type="line" smooth="yes"/>
      <point x="692.5966254779142" y="1178.1211621943658"/>
      <point x="634.6677818781741" y="1195.6226697694624"/>
      <point x="588.0" y="1195.0" type="curve" smooth="yes"/>
      <point x="558.697189393088" y="1195.2942741236736"/>
      <point x="520.7615580917054" y="1189.5825808840516"/>
      <point x="508.8367420553732" y="1172.4768625878585" type="curve" smooth="yes"/>
      <point x="440.0689010187063" y="907.9338794995327" type="line" smooth="yes"/>
      <point x="437.98799922293557" y="878.4662355918846"/>
      <point x="420.79968727461517" y="852.0318765446079"/>
      <point x="405.156494140625" y="851.0" type="curve" smooth="yes"/>
      <point x="225.0" y="851.0" type="line" smooth="yes"/>
      <point x="172.13294255690218" y="851.6562602599764"/>
      <point x="136.77629499622137" y="841.6045012494914"/>
      <point x="136.0" y="793.0" type="curve" smooth="yes"/>
      <point x="136.77629499622137" y="744.3954987505086"/>
      <point x="172.13294255690218" y="734.3437397400236"/>
      <point x="225.0" y="735.0" type="curve" smooth="yes"/>
      <point x="367.7241516113281" y="735.0" type="line" smooth="yes"/>
      <point x="381.24392082846214" y="733.4419353900018"/>
      <point x="384.68618298757565" y="702.2475602071581"/>
      <point x="378.4843235657529" y="671.0217188613634" type="curve" smooth="yes"/>
      <point x="338.9495478841027" y="518.9338789611492" type="line" smooth="yes"/>
      <point x="336.8686456841397" y="489.4662352917072"/>
      <point x="319.68033314431443" y="463.0318765188172"/>
      <point x="304.0371398925781" y="462.0" type="curve" smooth="yes"/>
      <point x="155.0" y="462.0" type="line" smooth="yes"/>
      <point x="102.13294255690218" y="462.6562602599764"/>
      <point x="66.77629499622137" y="452.60450124949136"/>
      <point x="66.0" y="404.0" type="curve" smooth="yes"/>
      <point x="66.77629499622137" y="355.39549875050864"/>
      <point x="102.13294255690218" y="345.3437397400236"/>
      <point x="155.0" y="346.0" type="curve" smooth="yes"/>
      <point x="266.6047668457031" y="346.0" type="line" smooth="yes"/>
      <point x="280.1245362068358" y="344.4419354300022"/>
      <point x="283.56679983318645" y="313.2475605989956"/>
      <point x="277.36494118550246" y="282.0217189494265" type="curve" smooth="yes"/>
      <point x="214.8380735999392" y="41.47410632247701" type="line" smooth="yes"/>
      <point x="205.4033745220857" y="8.878837805634216"/>
      <point x="263.3322181218259" y="-8.622669769462405"/>
      <point x="310.0" y="-8.0" type="curve" smooth="yes"/>
      <point x="339.30281060691203" y="-8.294274123673528"/>
      <point x="377.23844190829453" y="-2.582580884051625"/>
      <point x="389.16327337118895" y="14.523105466036402" type="curve" smooth="yes"/>
      <point x="460.53055775638495" y="289.0661195392177" type="line" smooth="yes"/>
      <point x="462.61145883049625" y="318.53376387216787"/>
      <point x="479.7997697227224" y="344.9681234093444"/>
      <point x="495.4429626464844" y="346.0" type="curve" smooth="yes"/>
      <point x="660.6047973632812" y="346.0" type="line" smooth="yes"/>
      <point x="674.1245664844163" y="344.4419353633349"/>
      <point x="677.5668276653716" y="313.2475599459333"/>
      <point x="671.3649677274565" y="282.02171880265485" type="curve" smooth="yes"/>
      <point x="608.8380741551096" y="41.47410517376733" type="line" smooth="yes"/>
      <point x="599.4033745220858" y="8.878837805634216"/>
      <point x="657.3322181218259" y="-8.622669769462405"/>
      <point x="704.0" y="-8.0" type="curve" smooth="yes"/>
      <point x="733.302810606912" y="-8.294274123673528"/>
      <point x="771.2384419082946" y="-2.582580884051625"/>
      <point x="783.1632728335842" y="14.523106579340714" type="curve" smooth="yes"/>
      <point x="854.530583554403" y="289.0661218212681" type="line" smooth="yes"/>
      <point x="856.611486341767" y="318.53376514453186"/>
      <point x="873.7997997412092" y="344.9681235186637"/>
      <point x="889.4429931640625" y="346.0" type="curve" smooth="yes"/>
      <point x="1067.0" y="346.0" type="line" smooth="yes"/>
      <point x="1119.8670574430978" y="345.3437397400236"/>
      <point x="1155.2237050037786" y="355.39549875050864"/>
      <point x="1156.0" y="404.0" type="curve" smooth="yes"/>
      <point x="1155.2237050037786" y="452.60450124949136"/>
      <point x="1119.8670574430978" y="462.6562602599764"/>
      <point x="1067.0" y="462.0" type="curve" smooth="yes"/>
      <point x="926.8753051757812" y="462.0" type="line" smooth="yes"/>
      <point x="913.3555359586472" y="463.5580646099982"/>
      <point x="909.9132737995337" y="494.7524397928418"/>
      <point x="916.1151332213565" y="525.9782811386366" type="curve" smooth="yes"/>
      <point x="955.6499089030067" y="678.0661210388508" type="line" smooth="yes"/>
      <point x="957.7308111029696" y="707.5337647082927"/>
      <point x="974.919123642795" y="733.9681234811828"/>
      <point x="990.5623168945312" y="735.0" type="curve" smooth="yes"/>
      <point x="1137.0" y="735.0" type="line" smooth="yes"/>
      <point x="1189.8670574430978" y="734.3437397400236"/>
      <point x="1225.2237050037786" y="744.3954987505086"/>
      <point x="1226.0" y="793.0" type="curve" smooth="yes"/>
      <point x="1225.2237050037786" y="841.6045012494914"/>
      <point x="1189.8670574430978" y="851.6562602599764"/>
      <point x="1137.0" y="851.0" type="curve" smooth="yes"/>
      <point x="1027.9946899414062" y="851.0" type="line" smooth="yes"/>
      <point x="1014.4749206816444" y="852.5580645981569"/>
      <point x="1011.0326580881864" y="883.7524396768466"/>
      <point x="1017.2345172808416" y="914.9782811125674" type="curve" smooth="yes"/>
      <point x="1077.16186067832" y="1145.5260296603822" type="line" smooth="yes"/>
      <point x="1086.5966254779144" y="1178.1211621943658"/>
      <point x="1028.667781878174" y="1195.6226697694624"/>
      <point x="982.0" y="1195.0" type="curve" smooth="yes"/>
      <point x="952.697189393088" y="1195.2942741236736"/>
      <point x="914.7615580917054" y="1189.5825808840516"/>
    </contour>
    <contour>
      <point x="561.6499150865935" y="678.0661180488992" type="line" smooth="yes"/>
      <point x="563.7308150418461" y="707.5337630412363"/>
      <point x="580.9191242967063" y="733.9681233379522"/>
      <point x="596.5623168945312" y="735.0" type="curve" smooth="yes"/>
      <point x="761.72412109375" y="735.0" type="line" smooth="yes"/>
      <point x="775.243890310884" y="733.4419353900018"/>
      <point x="778.6861524699975" y="702.2475602071581"/>
      <point x="772.4842930481748" y="671.0217188613634" type="curve" smooth="yes"/>
      <point x="732.9495173665246" y="518.9338789611492" type="line" smooth="yes"/>
      <point x="730.8686151665617" y="489.4662352917072"/>
      <point x="713.6803026267363" y="463.0318765188172"/>
      <point x="698.037109375" y="462.0" type="curve" smooth="yes"/>
      <point x="532.8753356933594" y="462.0" type="line" smooth="yes"/>
      <point x="519.3555661950851" y="463.5580645319021"/>
      <point x="515.9133011713656" y="494.75243902782586"/>
      <point x="522.1151590817746" y="525.9782809667038" type="curve" smooth="yes"/>
    </contour>
  </outline>
</glyph>
<glyph name="dollar" format="2">
  <advance width="1040"/>
  <unicode hex="0024"/>
  <outline>
    <contour>
      <point x="65.685869776738" y="817.0" type="curve" smooth="yes"/>
      <point x="67.07297221943426" y="698.5116931692603"/>
      <point x="141.3286942992806" y="640.6719722207383"/>
      <point x="235.7447231658542" y="604.9362356539065" type="curve" smooth="yes"/>
      <point x="384.0708961487332" y="546.8640197381723"/>
      <point x="592.0513513550178" y="556.9279435441987"/>
      <point x="702.7105295478718" y="513.13938028697" type="curve" smooth="yes"/>
      <point x="755.8124239846005" y="491.1634444276944"/>
      <point x="780.5090041577628" y="452.15010155197103"/>
      <point x="778.685869776738" y="388.0" type="curve" smooth="yes"/>
      <point x="781.4307628107401" y="282.7390096630006"/>
      <point x="714.0406048785712" y="206.46499557530592"/>
      <point x="543.685869776738" y="206.0" type="curve" smooth="yes"/>
      <point x="416.26535709010585" y="206.13331089928215"/>
      <point x="294.67855446957225" y="243.07528252655618"/>
      <point x="192.8175093351492" y="304.9168457812088" type="curve" smooth="yes"/>
      <point x="155.99179602768265" y="321.41800499796534"/>
      <point x="101.63834494154797" y="321.92217986411043"/>
      <point x="70.43076281074019" y="274.7390096630006" type="curve" smooth="yes"/>
      <point x="44.01439405608498" y="229.78147740685714"/>
      <point x="61.59479600157607" y="209.50397431767857"/>
      <point x="105.91902355735726" y="191.19597718207044" type="curve" smooth="yes"/>
      <point x="205.29444199292539" y="136.94184654888642"/>
      <point x="320.35917693378394" y="104.93425834039795"/>
      <point x="394.3120888429868" y="98.00810703051268" type="curve" smooth="yes"/>
      <point x="409.30408363399073" y="93.66200701518582"/>
      <point x="420.9447786926366" y="62.39431994704769"/>
      <point x="418.685869776738" y="31.246612548828125" type="curve" smooth="yes"/>
      <point x="418.685869776738" y="-160.0" type="line" smooth="yes"/>
      <point x="419.945035661937" y="-201.69597323683345"/>
      <point x="458.8751533531991" y="-211.4888621557325"/>
      <point x="514.685869776738" y="-211.0" type="curve" smooth="yes"/>
      <point x="570.4965862002769" y="-211.4888621557325"/>
      <point x="609.4267038915389" y="-201.69597323683345"/>
      <point x="610.685869776738" y="-160.0" type="curve" smooth="yes"/>
      <point x="610.685869776738" y="26.695083618164062" type="line" smooth="yes"/>
      <point x="608.3013250417142" y="57.991958079362966"/>
      <point x="619.0761217708605" y="88.09475215163314"/>
      <point x="633.7256390867225" y="90.67921274380147" type="curve" smooth="yes"/>
      <point x="842.0432567571054" y="97.97274412883401"/>
      <point x="982.6810741779653" y="214.40835620043677"/>
      <point x="984.685869776738" y="388.0" type="curve" smooth="yes"/>
      <point x="983.1842660396608" y="524.3110980539429"/>
      <point x="897.3754131588962" y="587.0977293953289"/>
      <point x="791.9539177847828" y="624.9196698963383" type="curve" smooth="yes"/>
      <point x="638.0643873702182" y="680.1186994528746"/>
      <point x="434.25654515565475" y="670.0685979465155"/>
      <point x="331.8320655576465" y="711.8948250805496" type="curve" smooth="yes"/>
      <point x="287.804638278402" y="730.9127927822275"/>
      <point x="269.8933524265694" y="764.8917682142247"/>
      <point x="271.685869776738" y="817.0" type="curve" smooth="yes"/>
      <point x="268.4003833219624" y="925.812142329045"/>
      <point x="339.76177335286843" y="988.612360896523"/>
      <point x="478.685869776738" y="989.0" type="curve" smooth="yes"/>
      <point x="598.355205954941" y="988.8846531529003"/>
      <point x="709.21978768548" y="957.0391470666701"/>
      <point x="809.4505756590909" y="901.3529411764706" type="curve" smooth="yes"/>
      <point x="848.3502838250084" y="885.7020372961574"/>
      <point x="902.5694981717919" y="885.6233875474794"/>
      <point x="930.3871254558528" y="933.7555085434955" type="curve" smooth="yes"/>
      <point x="955.4550423606814" y="979.8613755055944"/>
      <point x="936.4275294641863" y="1000.296477972475"/>
      <point x="891.7234650607966" y="1017.5908702513498" type="curve" smooth="yes"/>
      <point x="799.1443908522594" y="1063.8319492433288"/>
      <point x="695.045763403611" y="1090.6671038808806"/>
      <point x="631.4976452570997" y="1096.8279920026118" type="curve" smooth="yes"/>
      <point x="618.4143740425957" y="1101.0782421355525"/>
      <point x="608.4347744156854" y="1130.5180253240924"/>
      <point x="610.685869776738" y="1159.7177789703956" type="curve" smooth="yes"/>
      <point x="610.685869776738" y="1347.0" type="line" smooth="yes"/>
      <point x="609.4267038915389" y="1388.6959732368334"/>
      <point x="570.4965862002769" y="1398.4888621557325"/>
      <point x="514.685869776738" y="1398.0" type="curve" smooth="yes"/>
      <point x="458.8751533531991" y="1398.4888621557325"/>
      <point x="419.945035661937" y="1388.6959732368334"/>
      <point x="418.685869776738" y="1347.0" type="curve" smooth="yes"/>
      <point x="418.685869776738" y="1168.3218994140625" type="line" smooth="yes"/>
      <point x="421.0618796779374" y="1137.0350130739307"/>
      <point x="410.2228949226581" y="1106.850957886908"/>
      <point x="395.54806682664565" y="1104.143418083014" type="curve" smooth="yes"/>
      <point x="230.98377878221473" y="1097.8359305844865"/>
      <point x="68.4739513848146" y="998.6269783843869"/>
    </contour>
  </outline>
</glyph>
<glyph name="percent" format="2">
  <advance width="1312"/>
  <unicode hex="0025"/>
  <outline>
    <contour>
      <point x="646.0" y="252.0" type="curve" smooth="yes"/>
      <point x="648.2803320341125" y="106.73347392437651"/>
      <point x="784.3521198547294" y="-9.227871095291336"/>
      <point x="946.0" y="-8.0" type="curve" smooth="yes"/>
      <point x="1107.6478801452706" y="-9.227871095291336"/>
      <point x="1243.7196679658875" y="106.73347392437651"/>
      <point x="1246.0" y="252.0" type="curve" smooth="yes"/>
      <point x="1243.7196679658875" y="397.26652607562346"/>
      <point x="1107.6478801452706" y="513.2278710952913"/>
      <point x="946.0" y="512.0" type="curve" smooth="yes"/>
      <point x="784.3521198547294" y="513.2278710952913"/>
      <point x="648.2803320341125" y="397.26652607562346"/>
    </contour>
    <contour>
      <point x="66.0" y="935.0" type="curve" smooth="yes"/>
      <point x="68.28033203411249" y="789.7334739243765"/>
      <point x="204.35211985472932" y="673.7721289047087"/>
      <point x="366.0" y="675.0" type="curve" smooth="yes"/>
      <point x="527.6478801452706" y="673.7721289047087"/>
      <point x="663.7196679658875" y="789.7334739243765"/>
      <point x="666.0" y="935.0" type="curve" smooth="yes"/>
      <point x="663.7196679658875" y="1080.2665260756235"/>
      <point x="527.6478801452706" y="1196.2278710952914"/>
      <point x="366.0" y="1195.0" type="curve" smooth="yes"/>
      <point x="204.35211985472932" y="1196.2278710952914"/>
      <point x="68.28033203411249" y="1080.2665260756235"/>
    </contour>
    <contour>
      <point x="153.09961835999067" y="218.84637514228365" type="line" smooth="yes"/>
      <point x="114.74489303400219" y="191.7390096630006"/>
      <point x="117.03899129410732" y="173.56817316346448"/>
      <point x="153.1927558522671" y="143.666660453555" type="curve" smooth="yes"/>
      <point x="189.9444765479509" y="113.10704525254125"/>
      <point x="244.4212896845124" y="110.82620268863064"/>
      <point x="284.90038164000936" y="139.15362485771635" type="curve" smooth="yes"/>
      <point x="1158.9003816400093" y="969.1536248577164" type="line" smooth="yes"/>
      <point x="1197.2551069659978" y="996.2609903369994"/>
      <point x="1194.9610087058927" y="1014.4318268365355"/>
      <point x="1158.807244147733" y="1044.333339546445" type="curve" smooth="yes"/>
      <point x="1122.055523452049" y="1074.8929547474588"/>
      <point x="1067.5787103154876" y="1077.1737973113693"/>
      <point x="1027.0996183599907" y="1048.8463751422837" type="curve" smooth="yes"/>
    </contour>
    <contour>
      <point x="1064.0" y="252.0" type="curve" smooth="yes"/>
      <point x="1066.3023735175566" y="167.24016022996165"/>
      <point x="1014.303154712786" y="95.23973958637659"/>
      <point x="946.0" y="94.0" type="curve" smooth="yes"/>
      <point x="877.696845287214" y="95.23973958637659"/>
      <point x="825.6976264824435" y="167.24016022996165"/>
      <point x="828.0" y="252.0" type="curve" smooth="yes"/>
      <point x="825.6976264824435" y="336.75983977003835"/>
      <point x="877.696845287214" y="408.7602604136234"/>
      <point x="946.0" y="410.0" type="curve" smooth="yes"/>
      <point x="1014.303154712786" y="408.7602604136234"/>
      <point x="1066.3023735175566" y="336.75983977003835"/>
    </contour>
    <contour>
      <point x="484.0" y="935.0" type="curve" smooth="yes"/>
      <point x="486.30237351755653" y="850.2401602299617"/>
      <point x="434.30315471278595" y="778.2397395863766"/>
      <point x="366.0" y="777.0" type="curve" smooth="yes"/>
      <point x="297.69684528721405" y="778.2397395863766"/>
      <point x="245.69762648244347" y="850.2401602299617"/>
      <point x="248.0" y="935.0" type="curve" smooth="yes"/>
      <point x="245.69762648244347" y="1019.7598397700383"/>
      <point x="297.69684528721405" y="1091.7602604136234"/>
      <point x="366.0" y="1093.0" type="curve" smooth="yes"/>
      <point x="434.30315471278595" y="1091.7602604136234"/>
      <point x="486.30237351755653" y="1019.7598397700383"/>
    </contour>
  </outline>
</glyph>
<glyph name="ampersand" format="2">
  <advance width="1119"/>
  <unicode hex="0026"/>
  <outline>
    <contour>
      <point x="173.0" y="920.0" type="curve" smooth="yes"/>
      <point x="173.41707793809678" y="817.3844637908436"/>
      <point x="209.63257749891375" y="742.5114000707217"/>
      <point x="245.90745599031067" y="701.3497836198503" type="curve" smooth="yes"/>
      <point x="253.98360823909022" y="679.2228283283073"/>
      <point x="252.93875281082845" y="643.8715594537041"/>
      <point x="243.49426270177378" y="626.8695964610722" type="curve" smooth="yes"/>
      <point x="155.48295925461545" y="566.7467879808104"/>
      <point x="67.22784837497281" y="468.24367062832926"/>
      <point x="66.0" y="320.0" type="curve" smooth="yes"/>
      <point x="67.7202289853899" y="141.00777103472728"/>
      <point x="212.5265746436617" y="-9.186115910185897"/>
      <point x="451.0" y="-8.0" type="curve" smooth="yes"/>
      <point x="586.222379367358" y="-8.442714343875398"/>
      <point x="699.9587081933525" y="49.12508370417534"/>
      <point x="756.8430950204777" y="108.74726523208828" type="curve" smooth="yes"/>
      <point x="763.8955116950252" y="131.76334473602302"/>
      <point x="774.2725021929717" y="132.33789185768674"/>
      <point x="781.6710932389681" y="109.94869641217625" type="curve" smooth="yes"/>
      <point x="869.8337747480671" y="13.460016972730902" type="line" smooth="yes"/>
      <point x="902.6734046010896" y="-11.673404601089546"/>
      <point x="949.5415362484731" y="-10.777044846113773"/>
      <point x="996.7112764279831" y="12.2127949994347" type="curve" smooth="yes"/>
      <point x="1050.549652175845" y="36.80991220837956"/>
      <point x="1063.2966811081533" y="51.01606541371217"/>
      <point x="1027.2036382958343" y="80.56200755540483" type="curve" smooth="yes"/>
      <point x="904.6282126834582" y="214.81785208065617" type="line" smooth="yes"/>
      <point x="893.0641431551684" y="237.4522494259553"/>
      <point x="890.6401642240345" y="279.66515761994606"/>
      <point x="899.745257047191" y="305.97319211832774" type="curve" smooth="yes"/>
      <point x="932.8876310026933" y="360.48266816649897"/>
      <point x="977.7343833939294" y="473.5499290703663"/>
      <point x="1013.0011514778281" y="594.84321334853" type="curve" smooth="yes"/>
      <point x="1026.9392266945094" y="637.956662733728"/>
      <point x="1005.1650807308948" y="651.6269691711411"/>
      <point x="936.8347891504459" y="659.15311428934" type="curve" smooth="yes"/>
      <point x="879.0" y="667.0"/>
      <point x="834.4923660268495" y="665.1336375018375"/>
      <point x="817.9400216276249" y="624.2695268041094" type="curve" smooth="yes"/>
      <point x="793.7068001512938" y="533.4855524975887"/>
      <point x="763.9654525308259" y="444.0004912602109"/>
      <point x="742.8734878943819" y="398.3647606189715" type="curve" smooth="yes"/>
      <point x="742.5105545274704" y="376.1079274775105"/>
      <point x="747.681502601472" y="371.58777139938013"/>
      <point x="745.2319034989094" y="389.4084090365442" type="curve" smooth="yes"/>
      <point x="471.22477165537555" y="689.5744902402275" type="line" smooth="yes"/>
      <point x="409.8563169934285" y="760.640585496561"/>
      <point x="378.2911633402845" y="828.7532485166828"/>
      <point x="379.0" y="920.0" type="curve" smooth="yes"/>
      <point x="377.43817692834347" y="1032.779145966469"/>
      <point x="437.0079801481927" y="1133.6833054974627"/>
      <point x="552.0" y="1135.0" type="curve" smooth="yes"/>
      <point x="631.8549443147491" y="1134.8209401102893"/>
      <point x="701.5660970608052" y="1107.573576904965"/>
      <point x="766.6812196292099" y="1061.6856392689501" type="curve" smooth="yes"/>
      <point x="802.1508156779455" y="1044.3467911549103"/>
      <point x="857.9764301738061" y="1041.6037394624082"/>
      <point x="890.9285960181112" y="1087.6009210166383" type="curve" smooth="yes"/>
      <point x="920.3502982973056" y="1135.110163179611"/>
      <point x="905.3256478024264" y="1150.6344937572858"/>
      <point x="863.7474383779477" y="1170.1170927380897" type="curve" smooth="yes"/>
      <point x="775.0158128314367" y="1223.3186663956405"/>
      <point x="668.0175126390972" y="1255.1681441306607"/>
      <point x="553.0" y="1255.0" type="curve" smooth="yes"/>
      <point x="325.68491550059065" y="1256.1489294170256"/>
      <point x="174.7979333552204" y="1110.8843328383637"/>
    </contour>
    <contour>
      <point x="624.2719316105128" y="282.31188206710294" type="line" smooth="yes"/>
      <point x="632.9134601958518" y="262.0229423492593"/>
      <point x="633.258044372241" y="225.7588554808237"/>
      <point x="624.9749238975668" y="204.56574459678293" type="curve" smooth="yes"/>
      <point x="594.2786020182981" y="160.57851990849974"/>
      <point x="531.6341021059453" y="112.5329162283218"/>
      <point x="451.0" y="112.0" type="curve" smooth="yes"/>
      <point x="340.2460190907539" y="112.91515049779898"/>
      <point x="269.81445257403567" y="198.38160218812402"/>
      <point x="272.0" y="320.0" type="curve" smooth="yes"/>
      <point x="271.0177443416229" y="421.61332205572364"/>
      <point x="311.9843018778065" y="495.64353752362797"/>
      <point x="362.8698899630077" y="537.5258495291029" type="curve" smooth="yes"/>
      <point x="373.48514910898746" y="555.0432537378318"/>
      <point x="390.8607250586425" y="550.9406780577332"/>
      <point x="399.21583135901295" y="528.7641560936947" type="curve" smooth="yes"/>
    </contour>
  </outline>
</glyph>
<glyph name="quotesingle" format="2">
  <advance width="409"/>
  <unicode hex="0027"/>
  <outline>
    <contour>
      <point x="122.63632365591434" y="1255.0" type="line" smooth="yes"/>
      <point x="84.41440173947655" y="1255.7184338272928"/>
      <point x="52.243567521582" y="1250.9919350425482"/>
      <point x="55.826596178501134" y="1220.6906292542699" type="curve" smooth="yes"/>
      <point x="110.8273745869075" y="770.6940711960426" type="line" smooth="yes"/>
      <point x="117.73046849414311" y="741.6237729313954"/>
      <point x="157.88117383437972" y="728.3627196924904"/>
      <point x="204.63632365591434" y="729.0" type="curve" smooth="yes"/>
      <point x="252.39147347744895" y="728.3627196924904"/>
      <point x="291.7179414735865" y="741.44444030237"/>
      <point x="298.4452727249212" y="770.6940711960426" type="curve" smooth="yes"/>
      <point x="353.44605113332756" y="1220.6906292542699" type="line" smooth="yes"/>
      <point x="357.02907979024667" y="1250.9919350425482"/>
      <point x="324.85824557235213" y="1255.7184338272928"/>
      <point x="286.63632365591434" y="1255.0" type="curve" smooth="yes"/>
    </contour>
  </outline>
</glyph>
<glyph name="parenleft" format="2">
  <advance width="709"/>
  <unicode hex="0028"/>
  <outline>
    <contour>
      <point x="55.0" y="517.0" type="curve" smooth="yes"/>
      <point x="56.43848472989555" y="98.59216364558577"/>
      <point x="313.50848745651354" y="-192.6418278387849"/>
      <point x="541.6750552441152" y="-324.9783610989955" type="curve" smooth="yes"/>
      <point x="585.7586747291566" y="-340.03206417035256"/>
      <point x="632.9331998100129" y="-323.4048942139301"/>
      <point x="654.2948160685262" y="-295.7970594240146" type="curve" smooth="yes"/>
      <point x="674.4449562411023" y="-268.2309171213011"/>
      <point x="682.1377833763879" y="-237.57547571971844"/>
      <point x="650.2845628477967" y="-231.6977750243976" type="curve" smooth="yes"/>
      <point x="455.3852085562445" y="-100.40993257182441"/>
      <point x="253.58356850497293" y="141.44217960679566"/>
      <point x="255.0" y="517.0" type="curve" smooth="yes"/>
      <point x="253.60058808942662" y="892.5311167537242"/>
      <point x="455.4894926439041" y="1138.3591610275432"/>
      <point x="650.2845628477967" y="1269.6977750243975" type="curve" smooth="yes"/>
      <point x="682.1377833763879" y="1275.5754757197185"/>
      <point x="674.4449562411023" y="1306.230917121301"/>
      <point x="654.2948160685262" y="1333.7970594240146" type="curve" smooth="yes"/>
      <point x="632.9331998100129" y="1361.4048942139302"/>
      <point x="585.7586747291566" y="1378.0320641703524"/>
      <point x="541.6750552441152" y="1362.9783610989955" type="curve" smooth="yes"/>
      <point x="313.4201823042714" y="1230.685263463408"/>
      <point x="56.42391202300597" y="935.4304978793307"/>
    </contour>
  </outline>
</glyph>
<glyph name="parenright" format="2">
  <advance width="709"/>
  <unicode hex="0029"/>
  <outline>
    <contour>
      <point x="75.61534823972691" y="1333.7970594240146" type="curve" smooth="yes"/>
      <point x="55.46520806715069" y="1306.230917121301"/>
      <point x="47.77238093186517" y="1275.5754757197185"/>
      <point x="79.6256014604564" y="1269.6977750243975" type="curve" smooth="yes"/>
      <point x="274.42067166434896" y="1138.3591610275432"/>
      <point x="476.30957621882646" y="892.5311167537242"/>
      <point x="474.91016430825306" y="517.0" type="curve" smooth="yes"/>
      <point x="476.32659580328016" y="141.44217960679566"/>
      <point x="274.52495575200857" y="-100.40993257182441"/>
      <point x="79.6256014604564" y="-231.6977750243976" type="curve" smooth="yes"/>
      <point x="47.77238093186517" y="-237.57547571971844"/>
      <point x="55.46520806715069" y="-268.2309171213011"/>
      <point x="75.61534823972691" y="-295.7970594240146" type="curve" smooth="yes"/>
      <point x="96.97696449824019" y="-323.4048942139301"/>
      <point x="144.15148957909648" y="-340.03206417035256"/>
      <point x="188.23510906413776" y="-324.9783610989955" type="curve" smooth="yes"/>
      <point x="416.4016768517395" y="-192.6418278387849"/>
      <point x="673.4716795783576" y="98.59216364558577"/>
      <point x="674.9101643082531" y="517.0" type="curve" smooth="yes"/>
      <point x="673.4862522852471" y="935.4304978793307"/>
      <point x="416.48998200398165" y="1230.685263463408"/>
      <point x="188.23510906413776" y="1362.9783610989955" type="curve" smooth="yes"/>
      <point x="144.15148957909648" y="1378.0320641703524"/>
      <point x="96.97696449824019" y="1361.4048942139302"/>
    </contour>
  </outline>
</glyph>
<glyph name="asterisk" format="2">
  <advance width="1200"/>
  <unicode hex="002A"/>
  <outline>
    <contour>
      <point x="1041.3319312009073" y="660.711382098094" type="line" smooth="yes"/>
      <point x="1108.0218468795606" y="671.8169818921476"/>
      <point x="1147.022208398475" y="701.9312661473328"/>
      <point x="1125.8405750470984" y="760.7293605312013" type="curve" smooth="yes"/>
      <point x="1100.4301362123374" y="820.2865079090102"/>
      <point x="1033.7683345254663" y="834.0178212348519"/>
      <point x="970.326050594021" y="811.2536133847193" type="curve" smooth="yes"/>
      <point x="684.1095909097811" y="680.7242289532312" type="line" smooth="yes"/>
      <point x="673.3258789476141" y="668.9295723267996"/>
      <point x="678.0847967180971" y="690.8644209900981"/>
      <point x="682.6482212069843" y="722.846498564681" type="curve" smooth="yes"/>
      <point x="718.9098841666959" y="1031.5979209898346" type="line" smooth="yes"/>
      <point x="724.1932877942303" y="1085.375372072161"/>
      <point x="676.3968183049152" y="1113.9297618635153"/>
      <point x="600.0797942942031" y="1113.0" type="curve" smooth="yes"/>
      <point x="523.8441325179903" y="1113.9130298717632"/>
      <point x="474.966300794176" y="1085.375372072161"/>
      <point x="481.252703257547" y="1031.6119139651187" type="curve" smooth="yes"/>
      <point x="516.8791471732659" y="722.8289550856616" type="line" smooth="yes"/>
      <point x="521.4173491366752" y="690.8422687379947"/>
      <point x="526.1406477173973" y="668.9450724401947"/>
      <point x="515.3647180361583" y="680.7644152976984" type="curve" smooth="yes"/>
      <point x="229.8499956964231" y="811.2576428926577" type="line" smooth="yes"/>
      <point x="166.3781723347443" y="834.0174672557101"/>
      <point x="98.72945237606889" y="820.2865079090102"/>
      <point x="74.31901354130798" y="760.7293605312013" type="curve" smooth="yes"/>
      <point x="52.12213959917973" y="701.7986970675391"/>
      <point x="91.13774170884574" y="671.8169818921476"/>
      <point x="157.83620091163263" y="660.7123301515913" type="curve" smooth="yes"/>
      <point x="464.07885465823773" y="598.7386658849271" type="line" smooth="yes"/>
      <point x="477.65325507330226" y="590.780276444483"/>
      <point x="475.93233014999436" y="555.3444118472628"/>
      <point x="464.7947602384456" y="530.5120039923816" type="curve" smooth="yes"/>
      <point x="245.81032027946634" y="288.60099426491666" type="line" smooth="yes"/>
      <point x="200.90292867522797" y="248.84989844802897"/>
      <point x="207.5613206986538" y="214.85776268343224"/>
      <point x="268.9131698177442" y="178.3712763844921" type="curve" smooth="yes"/>
      <point x="333.12477161733887" y="141.62784035667005"/>
      <point x="402.8742925723236" y="153.6874079951676"/>
      <point x="439.60725688019824" y="200.98991583123637" type="curve" smooth="yes"/>
      <point x="598.5157088916839" y="479.4029169153556" type="line" smooth="yes"/>
      <point x="602.4274517308966" y="506.39802001407236"/>
      <point x="597.0757015419082" y="506.4299941348827"/>
      <point x="601.0097117818273" y="479.4645448706598" type="curve" smooth="yes"/>
      <point x="760.5414730023841" y="200.97975923780282" type="line" smooth="yes"/>
      <point x="796.1384045164874" y="153.61997568155317"/>
      <point x="866.979992422454" y="140.6347527258618"/>
      <point x="931.3377860614381" y="178.33578161480065" type="curve" smooth="yes"/>
      <point x="991.7131019469871" y="213.7658027471532"/>
      <point x="998.2921065665527" y="248.89840911987284"/>
      <point x="953.3492660880939" y="288.60099294478977" type="curve" smooth="yes"/>
      <point x="734.4768886198642" y="530.3882243620443" type="line" smooth="yes"/>
      <point x="723.3393838898295" y="555.2207714595004"/>
      <point x="721.6248127672869" y="590.6616709738033"/>
      <point x="735.1991489172171" y="598.632522986019" type="curve" smooth="yes"/>
    </contour>
  </outline>
</glyph>
<glyph name="plus" format="2">
  <advance width="1132"/>
  <unicode hex="002B"/>
  <outline>
    <contour>
      <point x="185.0" y="640.0" type="line" smooth="yes"/>
      <point x="132.13294255690218" y="640.6562602599764"/>
      <point x="96.77629499622137" y="630.6045012494914"/>
      <point x="96.0" y="582.0" type="curve" smooth="yes"/>
      <point x="96.77629499622137" y="533.3954987505086"/>
      <point x="132.13294255690218" y="523.3437397400236"/>
      <point x="185.0" y="524.0" type="curve" smooth="yes"/>
      <point x="446.0" y="524.0" type="line" smooth="yes"/>
      <point x="460.3806103646171" y="522.6703318244977"/>
      <point x="470.46938375450435" y="493.3950559575139"/>
      <point x="468.0" y="462.0" type="curve" smooth="yes"/>
      <point x="468.0" y="201.0" type="line" smooth="yes"/>
      <point x="469.2187690542419" y="160.23610785397574"/>
      <point x="507.69407374905535" y="151.58199500203466"/>
      <point x="566.0" y="152.0" type="curve" smooth="yes"/>
      <point x="624.3059262509447" y="151.58199500203466"/>
      <point x="662.7812309457581" y="160.23610785397574"/>
      <point x="664.0" y="201.0" type="curve" smooth="yes"/>
      <point x="664.0" y="462.0" type="line" smooth="yes"/>
      <point x="661.5306162454957" y="493.3950559575139"/>
      <point x="671.619389635383" y="522.6703318244977"/>
      <point x="686.0" y="524.0" type="curve" smooth="yes"/>
      <point x="947.0" y="524.0" type="line" smooth="yes"/>
      <point x="999.8670574430978" y="523.3437397400236"/>
      <point x="1035.2237050037786" y="533.3954987505086"/>
      <point x="1036.0" y="582.0" type="curve" smooth="yes"/>
      <point x="1035.2237050037786" y="630.6045012494914"/>
      <point x="999.8670574430978" y="640.6562602599764"/>
      <point x="947.0" y="640.0" type="curve" smooth="yes"/>
      <point x="686.0" y="640.0" type="line" smooth="yes"/>
      <point x="671.6193896353828" y="641.3296681755023"/>
      <point x="661.5306162454957" y="670.6049440424861"/>
      <point x="664.0" y="702.0" type="curve" smooth="yes"/>
      <point x="664.0" y="963.0" type="line" smooth="yes"/>
      <point x="662.7812309457581" y="1003.7638921460242"/>
      <point x="624.3059262509447" y="1012.4180049979653"/>
      <point x="566.0" y="1012.0" type="curve" smooth="yes"/>
      <point x="507.69407374905535" y="1012.4180049979653"/>
      <point x="469.2187690542419" y="1003.7638921460242"/>
      <point x="468.0" y="963.0" type="curve" smooth="yes"/>
      <point x="468.0" y="702.0" type="line" smooth="yes"/>
      <point x="470.46938375450435" y="670.6049440424861"/>
      <point x="460.3806103646171" y="641.3296681755023"/>
      <point x="446.0" y="640.0" type="curve" smooth="yes"/>
    </contour>
  </outline>
</glyph>
<glyph name="comma" format="2">
  <advance width="560"/>
  <unicode hex="002C"/>
  <outline>
    <contour>
      <point x="239.5906427363833" y="280.0" type="line" smooth="yes"/>
      <point x="204.168251484779" y="280.58260042979225"/>
      <point x="170.29582666785717" y="272.7970594240146"/>
      <point x="162.07073648377423" y="251.32203285386765" type="curve" smooth="yes"/>
      <point x="68.06965705351284" y="-230.67498293857452" type="line" smooth="yes"/>
      <point x="60.15655548371983" y="-267.09494108302914"/>
      <point x="99.9444106666077" y="-280.6190938778927"/>
      <point x="163.5906427363833" y="-280.0" type="curve" smooth="yes"/>
      <point x="214.08931885302917" y="-280.2111584117008"/>
      <point x="256.2009733941908" y="-271.2234660709454"/>
      <point x="273.41073344384023" y="-247.38853632372408" type="curve" smooth="yes"/>
      <point x="485.41178672249634" y="236.6101671548738" type="line" smooth="yes"/>
      <point x="502.5091429433681" y="267.1076282139737"/>
      <point x="480.77814519375653" y="282.2680268140952"/>
      <point x="433.5906427363833" y="280.0" type="curve" smooth="yes"/>
    </contour>
  </outline>
</glyph>
<glyph name="period" format="2">
  <advance width="454"/>
  <unicode hex="002E"/>
  <outline>
    <contour>
      <point x="66.0" y="237.0" type="curve" smooth="yes"/>
      <point x="66.0" y="53.0" type="line" smooth="yes"/>
      <point x="70.0504668035571" y="15.504113913313812"/>
      <point x="128.56374327763353" y="3.8771906095568855"/>
      <point x="227.0" y="4.0" type="curve" smooth="yes"/>
      <point x="325.43625672236647" y="3.8771906095568855"/>
      <point x="383.9495331964429" y="15.504113913313812"/>
      <point x="388.0" y="53.0" type="curve" smooth="yes"/>
      <point x="388.0" y="237.0" type="line" smooth="yes"/>
      <point x="383.9495331964429" y="274.4958860866862"/>
      <point x="325.43625672236647" y="286.12280939044314"/>
      <point x="227.0" y="286.0" type="curve" smooth="yes"/>
      <point x="128.56374327763353" y="286.12280939044314"/>
      <point x="70.0504668035571" y="274.4958860866862"/>
    </contour>
  </outline>
</glyph>
<glyph name="slash" format="2">
  <advance width="1017"/>
  <unicode hex="002F"/>
  <outline>
    <contour>
      <point x="743.3516358216895" y="1352.6973210403928" type="curve" smooth="yes"/>
      <point x="71.34774862040027" y="-290.2975616391707" type="line" smooth="yes"/>
      <point x="55.04141727559967" y="-320.1253885855492"/>
      <point x="114.27172502252174" y="-341.5386647330285"/>
      <point x="184.41447434785357" y="-341.0" type="curve" smooth="yes"/>
      <point x="223.14161256367973" y="-341.47672727895457"/>
      <point x="259.58048199307285" y="-330.53985520075713"/>
      <point x="273.4773128740177" y="-313.69732104039275" type="curve" smooth="yes"/>
      <point x="945.4812000753069" y="1329.2975616391707" type="line" smooth="yes"/>
      <point x="961.7875314201075" y="1359.1253885855492"/>
      <point x="902.5572236731854" y="1380.5386647330286"/>
      <point x="832.4144743478536" y="1380.0" type="curve" smooth="yes"/>
      <point x="793.6873361320274" y="1380.4767272789545"/>
      <point x="757.2484667026343" y="1369.539855200757"/>
    </contour>
  </outline>
</glyph>
<glyph name="zero" format="2">
  <advance width="1080"/>
  <unicode hex="0030"/>
  <outline>
    <contour>
      <point x="90.0" y="593.0" type="curve" smooth="yes"/>
      <point x="90.8778915703676" y="226.60727710784465"/>
      <point x="266.9918978880163" y="-9.878164185755871"/>
      <point x="540.0" y="-8.0" type="curve" smooth="yes"/>
      <point x="813.0081021119837" y="-9.878164185755871"/>
      <point x="989.1221084296324" y="226.60727710784465"/>
      <point x="990.0" y="593.0" type="curve" smooth="yes"/>
      <point x="989.1248142304178" y="959.3981909669681"/>
      <point x="813.0478453026454" y="1196.8905550787206"/>
      <point x="540.0" y="1195.0" type="curve" smooth="yes"/>
      <point x="266.9521546973546" y="1196.8905550787206"/>
      <point x="90.87518576958219" y="959.3981909669681"/>
    </contour>
    <contour>
      <point x="281.9817206443873" y="420.62614871583537" type="line" smooth="yes"/>
      <point x="284.17009270018826" y="407.8380676440051"/>
      <point x="304.353747109232" y="414.697018521213"/>
      <point x="307.25523641711646" y="432.61477264979453" type="curve" smooth="yes"/>
      <point x="301.43205321114465" y="464.43421586859415"/>
      <point x="295.9742559016921" y="525.7672806927727"/>
      <point x="296.0" y="593.0" type="curve" smooth="yes"/>
      <point x="295.27371261376527" y="894.2859149700014"/>
      <point x="396.8531450118396" y="1072.8472597612565"/>
      <point x="540.0" y="1075.0" type="curve" smooth="yes"/>
      <point x="615.6506920650145" y="1074.3700231037396"/>
      <point x="675.8472131745892" y="1022.9240601117373"/>
      <point x="699.3964741826723" y="967.7589779323268" type="curve" smooth="yes"/>
      <point x="707.2430180236867" y="942.9979991436605"/>
      <point x="704.8776656544977" y="903.5288789079126"/>
      <point x="694.685179437202" y="882.3195642927831" type="curve" smooth="yes"/>
    </contour>
    <contour>
      <point x="784.0" y="593.0" type="curve" smooth="yes"/>
      <point x="784.7292713706363" y="291.707437597459"/>
      <point x="683.2053564348984" y="114.1329647983422"/>
      <point x="540.0" y="112.0" type="curve" smooth="yes"/>
      <point x="464.4678383513166" y="112.62042134948202"/>
      <point x="404.38602514805285" y="163.55721279151126"/>
      <point x="380.87084202904487" y="218.35812177678434" type="curve" smooth="yes"/>
      <point x="373.0537800050722" y="242.98376292018392"/>
      <point x="375.35948568506336" y="282.2696452051215"/>
      <point x="385.4612890898829" y="303.39965989847445" type="curve" smooth="yes"/>
      <point x="798.0778438594652" y="765.2273623889539" type="line" smooth="yes"/>
      <point x="795.8917934106405" y="778.0192250589946"/>
      <point x="775.6800319306576" y="771.1540975060235"/>
      <point x="772.7797567893048" y="753.2328433176075" type="curve" smooth="yes"/>
      <point x="778.5854627545257" y="721.4104389871112"/>
      <point x="784.0256343804241" y="660.1206735083387"/>
    </contour>
  </outline>
</glyph>
<glyph name="one" format="2">
  <advance width="1080"/>
  <unicode hex="0031"/>
  <outline>
    <contour>
      <point x="333.9074810341564" y="959.6500074121386" type="line" smooth="yes"/>
      <point x="318.91492623297967" y="946.032141043677"/>
      <point x="313.1588030282784" y="915.8272571749168"/>
      <point x="323.1385250522906" y="872.8752584240004" type="curve" smooth="yes"/>
      <point x="334.84385879821883" y="828.9032303438777"/>
      <point x="385.9663896596733" y="834.2297182520595"/>
      <point x="402.3432401014503" y="846.0783034140776" type="curve" smooth="yes"/>
      <point x="468.8109064092907" y="959.642669803048" type="line" smooth="yes"/>
      <point x="475.1884551996297" y="985.5769127053691"/>
      <point x="446.467929226996" y="976.6326224417488"/>
      <point x="444.6134056690132" y="946.0" type="curve" smooth="yes"/>
      <point x="444.6134056690132" y="185.15477492929207" type="line" smooth="yes"/>
      <point x="447.08278942351757" y="157.38768825925337"/>
      <point x="440.21127181686296" y="131.32966817550235"/>
      <point x="429.4586307397211" y="130.0" type="curve" smooth="yes"/>
      <point x="372.6258463135559" y="130.0" type="line" smooth="yes"/>
      <point x="339.15156847952704" y="133.44567597687146"/>
      <point x="323.7842315058592" y="122.73032284508307"/>
      <point x="323.67708705930374" y="72.0" type="curve" smooth="yes"/>
      <point x="323.7842315058592" y="21.269677154916938"/>
      <point x="339.15156847952704" y="10.55432402312854"/>
      <point x="372.6258463135559" y="14.0" type="curve" smooth="yes"/>
      <point x="713.5012407457479" y="14.0" type="line" smooth="yes"/>
      <point x="746.9755185797767" y="10.554324023128551"/>
      <point x="762.3428555534446" y="21.26967715491695"/>
      <point x="762.45" y="72.0" type="curve" smooth="yes"/>
      <point x="762.3428555534446" y="122.73032284508305"/>
      <point x="746.9755185797767" y="133.44567597687146"/>
      <point x="713.5012407457479" y="130.0" type="curve" smooth="yes"/>
      <point x="659.6262964012418" y="130.0" type="line" smooth="yes"/>
      <point x="650.0088539485436" y="131.32966817550235"/>
      <point x="644.1440219145088" y="156.3810026866335"/>
      <point x="646.6134056690132" y="183.01289073222853" type="curve" smooth="yes"/>
      <point x="646.6134056690132" y="1157.0" type="line" smooth="yes"/>
      <point x="641.3017165213722" y="1202.5204053108012"/>
      <point x="566.493261262294" y="1210.1011749155234"/>
      <point x="509.69728789426085" y="1191.0003075705654" type="curve" smooth="yes"/>
    </contour>
  </outline>
</glyph>
<glyph name="two" format="2">
  <advance width="1080"/>
  <unicode hex="0032"/>
  <outline>
    <contour>
      <point x="158.99370411737556" y="1083.5672164756766" type="curve" smooth="yes"/>
      <point x="121.43512627852043" y="1063.4337899012123"/>
      <point x="107.77629499622137" y="1045.3954987505088"/>
      <point x="138.8982275307633" y="1003.3734174040346" type="curve" smooth="yes"/>
      <point x="173.83689565133574" y="960.9660446427091"/>
      <point x="230.77359834727605" y="959.5165469282748"/>
      <point x="268.1121930366965" y="978.3922685968943" type="curve" smooth="yes"/>
      <point x="347.9311817599411" y="1038.4388916220662"/>
      <point x="439.75866190598185" y="1074.7635144357628"/>
      <point x="524.0" y="1075.0" type="curve" smooth="yes"/>
      <point x="663.3917194612438" y="1074.2103997498602"/>
      <point x="727.8267348031881" y="986.1549994326789"/>
      <point x="726.0" y="859.0" type="curve" smooth="yes"/>
      <point x="727.0335070573752" y="756.092006918641"/>
      <point x="682.382456257588" y="677.81213596359"/>
      <point x="566.4846085830947" y="558.1713395324011" type="curve" smooth="yes"/>
      <point x="126.47388630009249" y="112.1771994353293" type="line" smooth="yes"/>
      <point x="112.08152077925166" y="104.38890022478414"/>
      <point x="104.1740081121674" y="92.3829879855561"/>
      <point x="104.0" y="68.0" type="curve" smooth="yes"/>
      <point x="104.86566407560069" y="21.582495844427957"/>
      <point x="140.85725067466817" y="13.461335266971524"/>
      <point x="193.0" y="14.0" type="curve" smooth="yes"/>
      <point x="887.0" y="14.0" type="line" smooth="yes"/>
      <point x="939.8670574430978" y="13.343739740023597"/>
      <point x="975.2237050037786" y="23.39549875050866"/>
      <point x="976.0" y="72.0" type="curve" smooth="yes"/>
      <point x="975.2237050037786" y="120.60450124949134"/>
      <point x="939.8670574430978" y="130.6562602599764"/>
      <point x="887.0" y="130.0" type="curve" smooth="yes"/>
      <point x="421.8826904296875" y="130.0" type="line" smooth="yes"/>
      <point x="408.06257697299515" y="131.47595600045898"/>
      <point x="414.4399343041602" y="164.40307517915195"/>
      <point x="426.09227673219465" y="188.016979752282" type="curve" smooth="yes"/>
      <point x="720.5217580490261" y="486.8251818297442" type="line" smooth="yes"/>
      <point x="850.7054144694029" y="617.1331813899083"/>
      <point x="930.9116633597993" y="718.0081591369582"/>
      <point x="932.0" y="859.0" type="curve" smooth="yes"/>
      <point x="929.8977707804695" y="1074.4851298198917"/>
      <point x="764.2990824114979" y="1195.7323554292034"/>
      <point x="523.0" y="1195.0" type="curve" smooth="yes"/>
      <point x="399.5582080675159" y="1195.2058125316773"/>
      <point x="263.4535448538668" y="1153.4562801718796"/>
    </contour>
  </outline>
</glyph>
<glyph name="three" format="2">
  <advance width="1080"/>
  <unicode hex="0033"/>
  <outline>
    <contour>
      <point x="183.98655748337987" y="1100.9573160256507" type="curve" smooth="yes"/>
      <point x="144.72724686820763" y="1083.7512094715116"/>
      <point x="127.70216981913654" y="1065.6115686381222"/>
      <point x="156.38420717824312" y="1020.6679640795705" type="curve" smooth="yes"/>
      <point x="188.07706320005144" y="977.5135843950347"/>
      <point x="242.9725809655" y="976.6561740289479"/>
      <point x="280.7050674399969" y="992.9781743448584" type="curve" smooth="yes"/>
      <point x="366.95422548869135" y="1047.7574435352208"/>
      <point x="448.0667151837389" y="1074.847997551882"/>
      <point x="531.2457983081993" y="1075.0" type="curve" smooth="yes"/>
      <point x="668.5532460094531" y="1074.373206303974"/>
      <point x="733.4920831885992" y="996.692458357064"/>
      <point x="731.2457983081993" y="879.0" type="curve" smooth="yes"/>
      <point x="733.2760847419056" y="751.5764109647462"/>
      <point x="671.1315269715288" y="677.5342929478406"/>
      <point x="525.2457983081993" y="677.0" type="curve" smooth="yes"/>
      <point x="470.24579830819926" y="677.0" type="line" smooth="yes"/>
      <point x="418.10304898286745" y="677.5386647330284"/>
      <point x="382.11146238379996" y="669.417504155572"/>
      <point x="381.24579830819926" y="623.0" type="curve" smooth="yes"/>
      <point x="382.11146238379996" y="576.582495844428"/>
      <point x="418.10304898286745" y="568.4613352669716"/>
      <point x="470.24579830819926" y="569.0" type="curve" smooth="yes"/>
      <point x="543.2457983081993" y="569.0" type="line" smooth="yes"/>
      <point x="691.1688966375244" y="568.4714152062576"/>
      <point x="770.5994619429684" y="489.82063664374914"/>
      <point x="768.2457983081993" y="345.0" type="curve" smooth="yes"/>
      <point x="770.082644071005" y="207.83127469952535"/>
      <point x="698.8797751993487" y="112.74455047651624"/>
      <point x="538.2457983081993" y="112.0" type="curve" smooth="yes"/>
      <point x="437.2757069460473" y="112.2644802581842"/>
      <point x="337.8120766495122" y="155.74377497044657"/>
      <point x="255.90400018435693" y="220.82357325834184" type="curve" smooth="yes"/>
      <point x="218.0193966554753" y="240.4834530717252"/>
      <point x="160.8866443628322" y="238.1185718100952"/>
      <point x="126.14402583896256" y="195.62658259596535" type="curve" smooth="yes"/>
      <point x="95.02209330442062" y="153.60450124949134"/>
      <point x="108.68092458671968" y="135.56621009878756"/>
      <point x="145.94414544736335" y="115.3187051464769" type="curve" smooth="yes"/>
      <point x="253.31625924347773" y="40.43934842646175"/>
      <point x="400.56180546974724" y="-8.229061054951"/>
      <point x="538.2457983081993" y="-8.0" type="curve" smooth="yes"/>
      <point x="809.1789181210511" y="-8.852280070315505"/>
      <point x="972.3589090134726" y="133.236047514287"/>
      <point x="974.2457983081993" y="345.0" type="curve" smooth="yes"/>
      <point x="973.1231297462919" y="479.93048521752723"/>
      <point x="893.3232738674435" y="571.4434093057147"/>
      <point x="808.8117713875856" y="601.2132535322364" type="curve" smooth="yes"/>
      <point x="797.190007799467" y="614.0444839260003"/>
      <point x="797.7891458085498" y="648.5913271056736"/>
      <point x="809.2305142222258" y="663.600689198768" type="curve" smooth="yes"/>
      <point x="869.2049950898702" y="689.1234671706706"/>
      <point x="936.1492817239492" y="764.0228703979288"/>
      <point x="937.2457983081993" y="879.0" type="curve" smooth="yes"/>
      <point x="934.915326722227" y="1074.2067587797835"/>
      <point x="769.5839754149515" y="1195.739464315022"/>
      <point x="530.2457983081993" y="1195.0" type="curve" smooth="yes"/>
      <point x="412.4891747127713" y="1195.146903198212"/>
      <point x="293.80739918311" y="1163.1778318439408"/>
    </contour>
  </outline>
</glyph>
<glyph name="four" format="2">
  <advance width="1080"/>
  <unicode hex="0034"/>
  <outline>
    <contour>
      <point x="555.3884764574964" y="1140.2166311204655" type="curve" smooth="yes"/>
      <point x="71.39848166189219" y="417.2085823771564" type="line" smooth="yes"/>
      <point x="62.1022292195305" y="409.48512981989165"/>
      <point x="55.21107671816789" y="395.2196995762049"/>
      <point x="55.0" y="376.0" type="curve" smooth="yes"/>
      <point x="55.90055178126508" y="329.65272635199887"/>
      <point x="91.99427384826187" y="315.1333506379514"/>
      <point x="146.0" y="316.0" type="curve" smooth="yes"/>
      <point x="576.0" y="316.0" type="line" smooth="yes"/>
      <point x="590.380610364617" y="314.6703318244977"/>
      <point x="600.4693837545043" y="285.3950559575139"/>
      <point x="598.0" y="254.0" type="curve" smooth="yes"/>
      <point x="598.0" y="55.0" type="line" smooth="yes"/>
      <point x="598.943019431198" y="12.736307161738532"/>
      <point x="635.5340535687596" y="3.560162961062849"/>
      <point x="698.0" y="4.0" type="curve" smooth="yes"/>
      <point x="700.0" y="4.0" type="line" smooth="yes"/>
      <point x="762.4659464312404" y="3.560162961062849"/>
      <point x="799.056980568802" y="12.736307161738532"/>
      <point x="800.0" y="55.0" type="curve" smooth="yes"/>
      <point x="800.0" y="254.0" type="line" smooth="yes"/>
      <point x="797.5306162454957" y="285.3950559575139"/>
      <point x="807.619389635383" y="314.6703318244977"/>
      <point x="822.0" y="316.0" type="curve" smooth="yes"/>
      <point x="936.0" y="316.0" type="line" smooth="yes"/>
      <point x="988.8670574430978" y="315.3437397400236"/>
      <point x="1024.2237050037786" y="325.39549875050864"/>
      <point x="1025.0" y="374.0" type="curve" smooth="yes"/>
      <point x="1024.2237050037786" y="422.60450124949136"/>
      <point x="988.8670574430978" y="432.6562602599764"/>
      <point x="936.0" y="432.0" type="curve" smooth="yes"/>
      <point x="822.0" y="432.0" type="line" smooth="yes"/>
      <point x="807.619389635383" y="433.3296681755023"/>
      <point x="797.5306162454957" y="462.6049440424861"/>
      <point x="800.0" y="494.0" type="curve" smooth="yes"/>
      <point x="800.0" y="1131.0" type="line" smooth="yes"/>
      <point x="798.7593394890939" y="1173.7269384510932"/>
      <point x="757.7269105843369" y="1195.8121872311137"/>
      <point x="687.0" y="1195.0" type="curve" smooth="yes"/>
      <point x="628.9092697094167" y="1195.3895603891194"/>
      <point x="585.1577285695023" y="1179.3531371995182"/>
    </contour>
    <contour>
      <point x="598.9136195886432" y="493.79587018779114" type="line" smooth="yes"/>
      <point x="601.1485243565098" y="462.4556609333508"/>
      <point x="590.6696120928575" y="433.3142274681753"/>
      <point x="576.227783203125" y="432.0" type="curve" smooth="yes"/>
      <point x="326.0" y="432.0" type="line" smooth="yes"/>
      <point x="312.7327326053532" y="433.62915135317456"/>
      <point x="316.1724250051211" y="466.1597108227993"/>
      <point x="325.92870420695726" y="493.8918217874059" type="curve" smooth="yes"/>
      <point x="627.7031981222697" y="959.3406174872946" type="line" smooth="yes"/>
      <point x="634.4489284728912" y="984.6099502871936"/>
      <point x="607.5280711497854" y="974.6276928043025"/>
      <point x="605.3194312034592" y="943.8055949674416" type="curve" smooth="yes"/>
    </contour>
  </outline>
</glyph>
<glyph name="five" format="2">
  <advance width="1080"/>
  <unicode hex="0035"/>
  <outline>
    <contour>
      <point x="293.0344128065026" y="1173.0" type="line" smooth="yes"/>
      <point x="230.48547575917098" y="1173.4513893474234"/>
      <point x="195.0787172189408" y="1164.0720621146204"/>
      <point x="192.05549301996632" y="1121.4363547975308" type="curve" smooth="yes"/>
      <point x="172.05549301996632" y="621.4363547975307" type="line" smooth="yes"/>
      <point x="171.0787172189408" y="579.9279378853795"/>
      <point x="210.80565239372305" y="570.5923152327456"/>
      <point x="273.0344128065026" y="571.0" type="curve" smooth="yes"/>
      <point x="298.0285217775058" y="570.9587627970221"/>
      <point x="321.064586057916" y="573.1284826501319"/>
      <point x="337.7161946118943" y="578.5543016574976" type="curve" smooth="yes"/>
      <point x="400.3506625066773" y="624.3295934159929"/>
      <point x="459.1545261937679" y="651.8231023111208"/>
      <point x="550.0344128065026" y="652.0" type="curve" smooth="yes"/>
      <point x="690.9101248991972" y="650.894988000281"/>
      <point x="771.7057609356801" y="538.9385083925815"/>
      <point x="770.0344128065026" y="386.0" type="curve" smooth="yes"/>
      <point x="771.7987943707905" y="224.930596972175"/>
      <point x="685.5668949700669" y="112.96115516905073"/>
      <point x="530.0344128065026" y="112.0" type="curve" smooth="yes"/>
      <point x="431.9444450414058" y="112.25190974227094"/>
      <point x="334.1939063834944" y="153.6253769212614"/>
      <point x="253.30472299194398" y="214.6690287460749" type="curve" smooth="yes"/>
      <point x="215.8080111537786" y="234.4834530717252"/>
      <point x="158.6752588611355" y="232.1185718100952"/>
      <point x="123.93264033726587" y="189.62658259596535" type="curve" smooth="yes"/>
      <point x="92.64581508669549" y="147.9817750962467"/>
      <point x="108.69512904825456" y="128.72097494477586"/>
      <point x="146.0715842459626" y="108.44928987021073" type="curve" smooth="yes"/>
      <point x="252.44582885891555" y="37.53245051345385"/>
      <point x="395.51050326330966" y="-8.213552259533149"/>
      <point x="530.0344128065026" y="-8.0" type="curve" smooth="yes"/>
      <point x="797.9856613287768" y="-9.066016509511009"/>
      <point x="974.199236951281" y="157.16646127077277"/>
      <point x="976.0344128065026" y="386.0" type="curve" smooth="yes"/>
      <point x="974.516931764277" y="614.2871151006284"/>
      <point x="817.3358408851495" y="773.1457537240652"/>
      <point x="563.0344128065026" y="772.0" type="curve" smooth="yes"/>
      <point x="480.6205191266518" y="772.1212091553758"/>
      <point x="402.9130284837381" y="752.889812206269"/>
      <point x="362.16762057605604" y="732.9179424802563" type="curve" smooth="yes"/>
      <point x="360.03856062570617" y="723.1105033681122"/>
      <point x="372.0585247976115" y="738.422736843062"/>
      <point x="375.26109594346127" y="761.3819544979549" type="curve" smooth="yes"/>
      <point x="384.74680770486367" y="995.605829082079" type="line" smooth="yes"/>
      <point x="382.9509753362036" y="1026.827785245484"/>
      <point x="394.1525524607958" y="1055.7147586677497"/>
      <point x="408.7104381971276" y="1057.0" type="curve" smooth="yes"/>
      <point x="827.0344128065026" y="1057.0" type="line" smooth="yes"/>
      <point x="879.9014702496004" y="1056.3437397400237"/>
      <point x="915.2581178102812" y="1066.3954987505088"/>
      <point x="916.0344128065026" y="1115.0" type="curve" smooth="yes"/>
      <point x="915.2581178102812" y="1163.6045012494912"/>
      <point x="879.9014702496004" y="1173.6562602599763"/>
      <point x="827.0344128065026" y="1173.0" type="curve" smooth="yes"/>
    </contour>
  </outline>
</glyph>
<glyph name="six" format="2">
  <advance width="1080"/>
  <unicode hex="0036"/>
  <outline>
    <contour>
      <point x="98.5" y="512.0" type="curve" smooth="yes"/>
      <point x="98.63621520957241" y="369.4311975773359"/>
      <point x="126.27487947472125" y="264.08393061911175"/>
      <point x="178.04174857664074" y="180.0541943573372" type="curve" smooth="yes"/>
      <point x="258.58044208406466" y="53.143812863655704"/>
      <point x="399.43583184597395" y="-8.386121907470486"/>
      <point x="547.5" y="-8.0" type="curve" smooth="yes"/>
      <point x="803.8891808421034" y="-8.944741730746156"/>
      <point x="979.3911751635097" y="141.52314962241547"/>
      <point x="981.5" y="353.0" type="curve" smooth="yes"/>
      <point x="979.328763231547" y="575.3992223173715"/>
      <point x="799.917542950332" y="717.9506661272836"/>
      <point x="569.5" y="717.0" type="curve" smooth="yes"/>
      <point x="449.7378513066868" y="717.3481400189196"/>
      <point x="334.4983828149812" y="669.5654363348544"/>
      <point x="287.8735019120543" y="618.7224716630355" type="curve" smooth="yes"/>
      <point x="279.6762499345964" y="594.9838935971636"/>
      <point x="307.6928101438859" y="607.9889874793357"/>
      <point x="311.573242429087" y="638.4219508339113" type="curve" smooth="yes"/>
      <point x="338.67485442747625" y="867.3466806266209"/>
      <point x="501.5111886615156" y="1056.1322642261964"/>
      <point x="860.821445149313" y="1075.981906176001" type="curve" smooth="yes"/>
      <point x="897.3527726149471" y="1075.4606071080213"/>
      <point x="926.294170289875" y="1084.758122609826"/>
      <point x="921.4005428226798" y="1140.7766275319923" type="curve" smooth="yes"/>
      <point x="914.5416305603426" y="1191.6695027264398"/>
      <point x="873.3463471741677" y="1196.3585232602754"/>
      <point x="837.3257924147998" y="1195.014284423662" type="curve" smooth="yes"/>
      <point x="302.41052787285804" y="1172.6055011914964"/>
      <point x="99.47805269452533" y="830.1962292929156"/>
    </contour>
    <contour>
      <point x="775.5" y="353.0" type="curve" smooth="yes"/>
      <point x="777.7452170444044" y="210.30883376834765"/>
      <point x="691.8164022749635" y="112.80390020930352"/>
      <point x="547.5" y="112.0" type="curve" smooth="yes"/>
      <point x="403.1069384609567" y="112.9907566004714"/>
      <point x="317.529273514787" y="221.65337207236144"/>
      <point x="319.5" y="368.0" type="curve" smooth="yes"/>
      <point x="316.8198212941704" y="501.1908076566277"/>
      <point x="408.0115183838077" y="596.2285661594494"/>
      <point x="547.5" y="597.0" type="curve" smooth="yes"/>
      <point x="695.7308398987939" y="596.1796844124636"/>
      <point x="777.5433662540386" y="497.44031916839725"/>
    </contour>
  </outline>
</glyph>
<glyph name="seven" format="2">
  <advance width="1080"/>
  <unicode hex="0037"/>
  <outline>
    <contour>
      <point x="227.74020144634846" y="1173.0" type="line" smooth="yes"/>
      <point x="180.28581464510563" y="1173.8791850538018"/>
      <point x="148.57177868271756" y="1164.0800903076642"/>
      <point x="148.0" y="1115.0" type="curve" smooth="yes"/>
      <point x="148.57177868271756" y="1065.9199096923358"/>
      <point x="180.28581464510563" y="1056.1208149461982"/>
      <point x="227.74020144634846" y="1057.0" type="curve" smooth="yes"/>
      <point x="704.7772761193539" y="1057.0" type="line" smooth="yes"/>
      <point x="718.0972243787155" y="1055.385836763569"/>
      <point x="719.1069676957061" y="1023.6489811474048"/>
      <point x="711.6439115124899" y="993.1337507946348" type="curve" smooth="yes"/>
      <point x="360.3213084608993" y="51.127338735599444" type="line" smooth="yes"/>
      <point x="345.17734972475307" y="16.39795072721784"/>
      <point x="378.23101539119807" y="0.033218306698538314"/>
      <point x="424.65694313907454" y="-6.288244984268447" type="curve" smooth="yes"/>
      <point x="471.70272612066225" y="-14.067928287836404"/>
      <point x="520.4872259977586" y="-3.9142672539366092"/>
      <point x="537.9161617083298" y="28.813999518842856" type="curve" smooth="yes"/>
      <point x="924.9936146485777" y="1083.8181773064034" type="line" smooth="yes"/>
      <point x="928.5201688163638" y="1090.0409915703506"/>
      <point x="931.6172579285848" y="1103.1160245689255"/>
      <point x="931.7" y="1119.0" type="curve" smooth="yes"/>
      <point x="931.0615057535553" y="1165.9164424701837"/>
      <point x="898.6033255142944" y="1173.7248654369173"/>
      <point x="851.9597985536516" y="1173.0" type="curve" smooth="yes"/>
    </contour>
  </outline>
</glyph>
<glyph name="eight" format="2">
  <advance width="1080"/>
  <unicode hex="0038"/>
  <outline>
    <contour>
      <point x="147.0" y="879.0" type="curve" smooth="yes"/>
      <point x="148.473163318024" y="770.645593341387"/>
      <point x="225.31546867104876" y="690.2627061474057"/>
      <point x="284.6280910650109" y="663.3308503333506" type="curve" smooth="yes"/>
      <point x="296.12332483600574" y="647.7277614380828"/>
      <point x="296.53611106822234" y="612.7729952841004"/>
      <point x="284.87571834523493" y="598.9484097122926" type="curve" smooth="yes"/>
      <point x="202.1584375985632" y="566.3340870840026"/>
      <point x="111.46129735896739" y="471.372610764544"/>
      <point x="110.0" y="340.0" type="curve" smooth="yes"/>
      <point x="112.46588116877527" y="136.95104152340787"/>
      <point x="296.79169133738515" y="-8.907442484728591"/>
      <point x="540.0" y="-8.0" type="curve" smooth="yes"/>
      <point x="783.2083086626149" y="-8.907442484728591"/>
      <point x="967.5341188312248" y="136.95104152340787"/>
      <point x="970.0" y="340.0" type="curve" smooth="yes"/>
      <point x="968.5387026410326" y="471.372610764544"/>
      <point x="877.7933022450388" y="566.312047099978"/>
      <point x="794.1068461030611" y="599.0589982163816" type="curve" smooth="yes"/>
      <point x="782.4348854746311" y="612.7949638854533"/>
      <point x="782.8720178042709" y="647.7314581249649"/>
      <point x="794.371908934989" y="663.3308503333506" type="curve" smooth="yes"/>
      <point x="853.6080467794415" y="690.3007662557618"/>
      <point x="931.4880725248306" y="770.704511807051"/>
      <point x="933.0" y="879.0" type="curve" smooth="yes"/>
      <point x="930.5333608076842" y="1058.0480893994552"/>
      <point x="761.5538302300938" y="1195.9794218243444"/>
      <point x="540.0" y="1195.0" type="curve" smooth="yes"/>
      <point x="318.44616976990625" y="1195.9794218243444"/>
      <point x="149.46663919231582" y="1058.0480893994552"/>
    </contour>
    <contour>
      <point x="764.0" y="341.0" type="curve" smooth="yes"/>
      <point x="766.5518979035861" y="208.95131248246355"/>
      <point x="678.2800848166468" y="112.81084566044245"/>
      <point x="540.0" y="112.0" type="curve" smooth="yes"/>
      <point x="401.7199151833532" y="112.81084566044245"/>
      <point x="313.4481020964139" y="208.95131248246355"/>
      <point x="316.0" y="341.0" type="curve" smooth="yes"/>
      <point x="313.4069195528591" y="473.094759479094"/>
      <point x="401.54534578211775" y="567.2222414842671"/>
      <point x="540.0" y="568.0" type="curve" smooth="yes"/>
      <point x="678.4546542178823" y="567.2222414842671"/>
      <point x="766.5930804471409" y="473.094759479094"/>
    </contour>
    <contour>
      <point x="729.0" y="876.0" type="curve" smooth="yes"/>
      <point x="731.7703360762465" y="766.7116840828511"/>
      <point x="653.9329234874431" y="679.8788940851941"/>
      <point x="540.0" y="679.0" type="curve" smooth="yes"/>
      <point x="426.06707651255687" y="679.8788940851941"/>
      <point x="348.2296639237535" y="766.7116840828511"/>
      <point x="351.0" y="876.0" type="curve" smooth="yes"/>
      <point x="348.2802202960171" y="996.2338718796819"/>
      <point x="425.1529913226208" y="1074.2938807589862"/>
      <point x="540.0" y="1075.0" type="curve" smooth="yes"/>
      <point x="654.8470086773792" y="1074.2938807589862"/>
      <point x="731.7197797039829" y="996.2338718796819"/>
    </contour>
  </outline>
</glyph>
<glyph name="nine" format="2">
  <advance width="1080"/>
  <unicode hex="0039"/>
  <outline>
    <contour>
      <point x="98.5" y="834.0" type="curve" smooth="yes"/>
      <point x="100.67123676845304" y="611.6007776826285"/>
      <point x="280.0824570496681" y="469.0493338727163"/>
      <point x="510.5" y="470.0" type="curve" smooth="yes"/>
      <point x="630.2621486933132" y="469.65185998108046"/>
      <point x="745.5016171850187" y="517.4345636651456"/>
      <point x="792.1264980879457" y="568.2775283369645" type="curve" smooth="yes"/>
      <point x="800.3237500654036" y="592.0161064028364"/>
      <point x="772.3071898561141" y="579.0110125206643"/>
      <point x="768.4267575709131" y="548.5780491660887" type="curve" smooth="yes"/>
      <point x="741.3251455725238" y="319.65331937337913"/>
      <point x="578.4888113384844" y="130.86773577380353"/>
      <point x="219.1785548506869" y="111.01809382399883" type="curve" smooth="yes"/>
      <point x="182.6472273850529" y="111.5393928919787"/>
      <point x="153.70582971012502" y="102.24187739017405"/>
      <point x="158.59945717732023" y="46.22337246800782" type="curve" smooth="yes"/>
      <point x="165.4583694396574" y="-4.669502726439872"/>
      <point x="206.65365282583227" y="-9.358523260275323"/>
      <point x="242.67420758520018" y="-8.014284423661934" type="curve" smooth="yes"/>
      <point x="777.5894721271419" y="14.394498808503679"/>
      <point x="980.5219473054747" y="356.80377070708437"/>
      <point x="981.5" y="675.0" type="curve" smooth="yes"/>
      <point x="981.3637847904275" y="817.5688024226641"/>
      <point x="953.7251205252787" y="922.9160693808883"/>
      <point x="901.9582514233592" y="1006.9458056426628" type="curve" smooth="yes"/>
      <point x="821.4195579159353" y="1133.8561871363443"/>
      <point x="680.5641681540261" y="1195.3861219074704"/>
      <point x="532.5" y="1195.0" type="curve" smooth="yes"/>
      <point x="276.1108191578966" y="1195.944741730746"/>
      <point x="100.60882483649031" y="1045.4768503775845"/>
    </contour>
    <contour>
      <point x="760.5" y="819.0" type="curve" smooth="yes"/>
      <point x="763.1801787058296" y="685.8091923433723"/>
      <point x="671.9884816161923" y="590.7714338405506"/>
      <point x="532.5" y="590.0" type="curve" smooth="yes"/>
      <point x="384.2691601012061" y="590.8203155875364"/>
      <point x="302.4566337459614" y="689.5596808316027"/>
      <point x="304.5" y="834.0" type="curve" smooth="yes"/>
      <point x="302.2547829555956" y="976.6911662316523"/>
      <point x="388.18359772503646" y="1074.1960997906965"/>
      <point x="532.5" y="1075.0" type="curve" smooth="yes"/>
      <point x="676.8930615390433" y="1074.0092433995285"/>
      <point x="762.4707264852129" y="965.3466279276386"/>
    </contour>
  </outline>
</glyph>
<glyph name="less" format="2">
  <advance width="1172"/>
  <unicode hex="003C"/>
  <outline>
    <contour>
      <point x="391.5222940699767" y="549.6328069371885" type="line" smooth="yes"/>
      <point x="378.12061081098494" y="564.8339087485465"/>
      <point x="378.12061081098494" y="601.1660912514535"/>
      <point x="391.5222940699767" y="616.3671930628115" type="curve" smooth="yes"/>
      <point x="1020.2315704417356" y="917.6263412657272" type="line" smooth="yes"/>
      <point x="1068.8308298089244" y="935.1890456050996"/>
      <point x="1086.6180085303906" y="951.6089858704969"/>
      <point x="1061.2551069659978" y="993.7390096630006" type="curve" smooth="yes"/>
      <point x="1035.5252281622072" y="1034.755296480228"/>
      <point x="984.7795703249926" y="1044.0511469134156"/>
      <point x="934.555461169256" y="1025.4292289766277" type="curve" smooth="yes"/>
      <point x="157.54587882157247" y="644.4317596912546" type="line" smooth="yes"/>
      <point x="121.7608855502532" y="629.6568582489441"/>
      <point x="96.82818029809837" y="619.4946404924408"/>
      <point x="96.0" y="583.0" type="curve" smooth="yes"/>
      <point x="96.82818029809837" y="546.5053595075592"/>
      <point x="121.7608855502532" y="536.3431417510559"/>
      <point x="157.54587882157247" y="521.5682403087454" type="curve" smooth="yes"/>
      <point x="934.555461169256" y="140.5707710233724" type="line" smooth="yes"/>
      <point x="984.7795703249926" y="121.9488530865845"/>
      <point x="1035.5252281622072" y="131.2447035197719"/>
      <point x="1061.2551069659978" y="172.2609903369994" type="curve" smooth="yes"/>
      <point x="1086.6180085303906" y="214.39101412950313"/>
      <point x="1068.8308298089244" y="230.8109543949003"/>
      <point x="1020.2315704417356" y="248.37365873427282" type="curve" smooth="yes"/>
    </contour>
  </outline>
</glyph>
<glyph name="greater" format="2">
  <advance width="1172"/>
  <unicode hex="003E"/>
  <outline>
    <contour>
      <point x="780.543092559084" y="616.3671930628115" type="line" smooth="yes"/>
      <point x="793.944775818076" y="601.1660912514535"/>
      <point x="793.944775818076" y="564.8339087485465"/>
      <point x="780.543092559084" y="549.6328069371885" type="curve" smooth="yes"/>
      <point x="151.83381618732523" y="248.37365873427282" type="line" smooth="yes"/>
      <point x="103.23455682013636" y="230.8109543949003"/>
      <point x="85.44737809867014" y="214.39101412950313"/>
      <point x="110.810279663063" y="172.2609903369994" type="curve" smooth="yes"/>
      <point x="136.5401584668535" y="131.2447035197719"/>
      <point x="187.28581630406813" y="121.9488530865845"/>
      <point x="237.50992545980483" y="140.5707710233724" type="curve" smooth="yes"/>
      <point x="1014.5195078074884" y="521.5682403087454" type="line" smooth="yes"/>
      <point x="1050.3045010788076" y="536.3431417510559"/>
      <point x="1075.2372063309624" y="546.5053595075592"/>
      <point x="1076.0653866290609" y="583.0" type="curve" smooth="yes"/>
      <point x="1075.2372063309624" y="619.4946404924408"/>
      <point x="1050.3045010788076" y="629.6568582489441"/>
      <point x="1014.5195078074884" y="644.4317596912546" type="curve" smooth="yes"/>
      <point x="237.50992545980483" y="1025.4292289766277" type="line" smooth="yes"/>
      <point x="187.28581630406813" y="1044.0511469134156"/>
      <point x="136.5401584668535" y="1034.755296480228"/>
      <point x="110.810279663063" y="993.7390096630006" type="curve" smooth="yes"/>
      <point x="85.44737809867014" y="951.6089858704969"/>
      <point x="103.23455682013636" y="935.1890456050996"/>
      <point x="151.83381618732523" y="917.6263412657272" type="curve" smooth="yes"/>
    </contour>
  </outline>
</glyph>
<glyph name="question" format="2">
  <advance width="888"/>
  <unicode hex="003F"/>
  <outline>
    <contour>
      <point x="117.7950729466316" y="1178.6851402882273" type="curve" smooth="yes"/>
      <point x="75.35439882075362" y="1160.799212635372"/>
      <point x="54.40440921274099" y="1145.9070567667022"/>
      <point x="80.43100208041223" y="1096.719793218002" type="curve" smooth="yes"/>
      <point x="108.9498984201764" y="1048.991577238881"/>
      <point x="164.37055020134957" y="1051.5950037034534"/>
      <point x="200.27146630236686" y="1066.3888551133477" type="curve" smooth="yes"/>
      <point x="281.69542895726477" y="1111.0249255926176"/>
      <point x="361.51242255913894" y="1134.8832788943503"/>
      <point x="449.1620590487187" y="1135.0" type="curve" smooth="yes"/>
      <point x="565.5220296123159" y="1134.2043888784842"/>
      <point x="618.1234468237135" y="1058.3344426196281"/>
      <point x="616.1620590487187" y="956.0" type="curve" smooth="yes"/>
      <point x="618.3638682057268" y="850.3616594002758"/>
      <point x="564.2805997507924" y="793.5473166973658"/>
      <point x="414.3558011121205" y="731.0339478393868" type="curve" smooth="yes"/>
      <point x="345.46071174382575" y="703.0110859369001" type="line" smooth="yes"/>
      <point x="315.84049531778436" y="696.1022174473454"/>
      <point x="298.51581702908294" y="688.698414177725"/>
      <point x="299.1869909988037" y="665.6129574746685" type="curve" smooth="yes"/>
      <point x="309.19057651510286" y="440.6555302081802" type="line" smooth="yes"/>
      <point x="314.1835732236951" y="415.5504280858665"/>
      <point x="354.7251353626193" y="402.4150661876177"/>
      <point x="404.1620590487187" y="403.0" type="curve" smooth="yes"/>
      <point x="453.59898273481804" y="402.4150661876177"/>
      <point x="494.1405448737423" y="415.5504280858665"/>
      <point x="499.1158585564219" y="440.8342316189066" type="curve" smooth="yes"/>
      <point x="506.31548460873205" y="563.8991837069622" type="line" smooth="yes"/>
      <point x="505.81821920519366" y="593.897586051342"/>
      <point x="521.3175770568363" y="629.9857984500163"/>
      <point x="537.4260491258403" y="642.0876205577679" type="curve" smooth="yes"/>
      <point x="701.8969807614899" y="707.205650713756"/>
      <point x="820.2189320922148" y="785.3105210461475"/>
      <point x="822.1620590487187" y="956.0" type="curve" smooth="yes"/>
      <point x="820.2275044630657" y="1135.700752250859"/>
      <point x="677.1373992775848" y="1255.86061971303"/>
      <point x="448.1620590487187" y="1255.0" type="curve" smooth="yes"/>
      <point x="330.22640715956726" y="1255.089526432944"/>
      <point x="218.83661504516328" y="1230.9315030285481"/>
    </contour>
    <contour>
      <point x="263.1620590487187" y="167.0" type="curve" smooth="yes"/>
      <point x="263.1620590487187" y="53.0" type="line" smooth="yes"/>
      <point x="266.2814825593073" y="14.649056415726385"/>
      <point x="319.14144642695237" y="3.831594703084967"/>
      <point x="404.1620590487187" y="4.0" type="curve" smooth="yes"/>
      <point x="489.182671670485" y="3.831594703084967"/>
      <point x="542.0426355381301" y="14.649056415726385"/>
      <point x="545.1620590487187" y="53.0" type="curve" smooth="yes"/>
      <point x="545.1620590487187" y="167.0" type="line" smooth="yes"/>
      <point x="542.0426355381301" y="205.3509435842736"/>
      <point x="489.182671670485" y="216.16840529691504"/>
      <point x="404.1620590487187" y="216.0" type="curve" smooth="yes"/>
      <point x="319.14144642695237" y="216.16840529691504"/>
      <point x="266.2814825593073" y="205.3509435842736"/>
    </contour>
  </outline>
</glyph>
<glyph name="at" format="2">
  <advance width="1304"/>
  <unicode hex="0040"/>
  <outline>
    <contour>
      <point x="66.0" y="389.0" type="curve" smooth="yes"/>
      <point x="67.49228510091179" y="58.67476139999639"/>
      <point x="274.2546204631174" y="-140.02064650308915"/>
      <point x="604.0" y="-139.0" type="curve" smooth="yes"/>
      <point x="716.515915325577" y="-139.06569973526612"/>
      <point x="827.3669996664524" y="-118.5737520871754"/>
      <point x="900.462437813411" y="-88.18351367857143" type="curve" smooth="yes"/>
      <point x="929.0705745180344" y="-81.93416273531244"/>
      <point x="945.9834342130363" y="-72.49968142717377"/>
      <point x="933.8651408473348" y="-40.09105949838629" type="curve" smooth="yes"/>
      <point x="920.4908109208069" y="-7.024053256805844"/>
      <point x="884.3757080351926" y="0.19969004285430003"/>
      <point x="849.2762696314577" y="-6.367994868630982" type="curve" smooth="yes"/>
      <point x="784.1071353605792" y="-27.63567223217339"/>
      <point x="695.7952044095867" y="-43.9495721008837"/>
      <point x="602.0" y="-44.0" type="curve" smooth="yes"/>
      <point x="363.09224992768196" y="-42.90226760457314"/>
      <point x="239.6950763788807" y="128.62044358692881"/>
      <point x="241.0" y="389.0" type="curve" smooth="yes"/>
      <point x="239.44595846895453" y="714.7675931507134"/>
      <point x="431.7811755120773" y="967.4802782347721"/>
      <point x="697.0" y="969.0" type="curve" smooth="yes"/>
      <point x="930.0606486969187" y="967.9366356271346"/>
      <point x="1066.5068784965586" y="796.6968848746621"/>
      <point x="1065.0" y="531.0" type="curve" smooth="yes"/>
      <point x="1065.628078351336" y="368.9413871720899"/>
      <point x="1016.4238624805841" y="251.4069816623983"/>
      <point x="930.0" y="249.0" type="curve" smooth="yes"/>
      <point x="883.5577002458034" y="251.05405432887258"/>
      <point x="865.958251766937" y="317.20694920952076"/>
      <point x="887.1928535804703" y="407.46127032737235" type="curve" smooth="yes"/>
      <point x="964.1958461744115" y="709.4549488065246" type="line" smooth="yes"/>
      <point x="968.0952209738085" y="720.740128477651"/>
      <point x="937.2269621152926" y="730.9470286049996"/>
      <point x="909.1292094812982" y="738.8913915140333" type="curve" smooth="yes"/>
      <point x="880.9100322349033" y="747.251909742271"/>
      <point x="838.9471502303057" y="748.8760461918633"/>
      <point x="817.6907510652402" y="741.7976589689919" type="curve" smooth="yes"/>
      <point x="798.5535092000767" y="702.966597386234" type="line" smooth="yes"/>
      <point x="800.0735566287656" y="685.1136701815977"/>
      <point x="821.7293493104025" y="685.9002854697925"/>
      <point x="823.4395447375389" y="704.317913521422" type="curve" smooth="yes"/>
      <point x="806.1874784858185" y="735.8856373172653"/>
      <point x="755.6157079247141" y="771.9926352463061"/>
      <point x="682.0" y="771.0" type="curve" smooth="yes"/>
      <point x="485.9394883881984" y="773.9903381938252"/>
      <point x="340.23764402925303" y="531.7320094579536"/>
      <point x="339.0" y="357.0" type="curve" smooth="yes"/>
      <point x="340.43425883903575" y="218.58560501671332"/>
      <point x="432.0196413600434" y="144.69024563267027"/>
      <point x="541.0" y="146.0" type="curve" smooth="yes"/>
      <point x="640.0569841698436" y="145.12312671322798"/>
      <point x="708.1231661469341" y="196.48524899914932"/>
      <point x="747.5958686639945" y="244.7910552735572" type="curve" smooth="yes"/>
      <point x="749.9264702322681" y="264.76287479524063"/>
      <point x="738.7936717109557" y="259.8570451498664"/>
      <point x="738.62804038928" y="235.56712017905332" type="curve" smooth="yes"/>
      <point x="761.3267559722823" y="191.15326759705837"/>
      <point x="836.528954975275" y="150.40956799309612"/>
      <point x="931.0" y="151.0" type="curve" smooth="yes"/>
      <point x="1111.804101396307" y="149.18464801477307"/>
      <point x="1236.992428959834" y="299.8596273540079"/>
      <point x="1238.0" y="531.0" type="curve" smooth="yes"/>
      <point x="1236.4189503038924" y="847.1924440408593"/>
      <point x="1022.5336465110963" y="1065.2004363360743"/>
      <point x="702.0" y="1064.0" type="curve" smooth="yes"/>
      <point x="339.61835425237064" y="1065.4126839310081"/>
      <point x="67.66270715202955" y="776.0738515202221"/>
    </contour>
    <contour>
      <point x="728.0" y="561.0" type="curve" smooth="yes"/>
      <point x="729.0164191848961" y="426.1237990651925"/>
      <point x="651.9084124482669" y="255.45003319977445"/>
      <point x="566.0" y="252.0" type="curve" smooth="yes"/>
      <point x="538.1542960182604" y="253.1118550537464"/>
      <point x="524.8961034145598" y="289.96390713874797"/>
      <point x="526.0" y="359.0" type="curve" smooth="yes"/>
      <point x="524.5313502839698" y="512.6386782759757"/>
      <point x="621.754407561735" y="668.7056368317548"/>
      <point x="678.0" y="672.0" type="curve" smooth="yes"/>
      <point x="714.1241964704238" y="670.716324126889"/>
      <point x="729.0894595724974" y="627.0101821623973"/>
    </contour>
  </outline>
</glyph>
<glyph name="A" format="2">
  <advance width="1133"/>
  <unicode hex="0041"/>
  <outline>
    <contour>
      <point x="430.01387548319656" y="1139.1271746886225" type="curve" smooth="yes"/>
      <point x="36.01469552425026" y="79.12598554095776" type="line" smooth="yes"/>
      <point x="18.413430236840266" y="39.382953149009154"/>
      <point x="43.57864941156687" y="27.862019237878854"/>
      <point x="103.0971831745672" y="11.269113027385913" type="curve" smooth="yes"/>
      <point x="162.3940553742137" y="-6.041237202977857"/>
      <point x="210.36659766920664" y="0.2703439065728901"/>
      <point x="229.7744636881339" y="40.85537085252304" type="curve" smooth="yes"/>
      <point x="322.1041744840261" y="289.86287357211" type="line" smooth="yes"/>
      <point x="326.16699880880765" y="318.0495047085945"/>
      <point x="346.1859132048282" y="343.0922917850451"/>
      <point x="362.4163015522481" y="344.0" type="curve" smooth="yes"/>
      <point x="770.3600271381856" y="344.0" type="line" smooth="yes"/>
      <point x="786.5904154856056" y="343.0922917850451"/>
      <point x="806.6093298816261" y="318.04950470859444"/>
      <point x="810.6721542064076" y="289.86287357211" type="curve" smooth="yes"/>
      <point x="903.0018650022998" y="40.85537085252304" type="line" smooth="yes"/>
      <point x="922.4097310212271" y="0.2703439065728901"/>
      <point x="970.38227331622" y="-6.041237202977857"/>
      <point x="1029.6791455158666" y="11.269113027385913" type="curve" smooth="yes"/>
      <point x="1089.1976792788669" y="27.862019237878854"/>
      <point x="1114.3628984535935" y="39.382953149009154"/>
      <point x="1096.7616331661834" y="79.12598554095776" type="curve" smooth="yes"/>
      <point x="702.7624532072372" y="1139.1271746886225" type="line" smooth="yes"/>
      <point x="682.1497724395103" y="1182.5725070102453"/>
      <point x="634.2283639646955" y="1195.2447318506267"/>
      <point x="566.3881643452169" y="1195.0" type="curve" smooth="yes"/>
      <point x="498.54796472573815" y="1195.2447318506267"/>
      <point x="450.6265562509234" y="1182.5725070102453"/>
    </contour>
    <contour>
      <point x="414.6436880268575" y="460.0" type="line" smooth="yes"/>
      <point x="401.288412395673" y="461.60415883600206"/>
      <point x="399.76166085322046" y="493.2324448950379"/>
      <point x="406.95986849463344" y="523.9358061708099" type="curve" smooth="yes"/>
      <point x="588.8887391209655" y="1047.6856004693968" type="line"/>
      <point x="543.88302556496" y="1047.6786753389144" type="line"/>
      <point x="725.4995460479535" y="523.9371352846189" type="line" smooth="yes"/>
      <point x="732.6914647943026" y="493.22957954903353"/>
      <point x="731.1524700459967" y="461.60390784807487"/>
      <point x="717.7963064350606" y="460.0" type="curve" smooth="yes"/>
    </contour>
  </outline>
</glyph>
<glyph name="B" format="2">
  <advance width="1009"/>
  <unicode hex="0042"/>
  <outline>
    <contour>
      <point x="133.0" y="1173.0" type="line" smooth="yes"/>
      <point x="80.85725067466817" y="1173.5386647330286"/>
      <point x="44.86566407560069" y="1165.417504155572"/>
      <point x="44.0" y="1119.0" type="curve" smooth="yes"/>
      <point x="44.0" y="68.0" type="line" smooth="yes"/>
      <point x="44.86566407560069" y="21.582495844427957"/>
      <point x="80.85725067466817" y="13.461335266971524"/>
      <point x="133.0" y="14.0" type="curve" smooth="yes"/>
      <point x="555.0" y="14.0" type="line" smooth="yes"/>
      <point x="809.1060308653301" y="13.302204496952017"/>
      <point x="963.0505152778397" y="131.3188639556761"/>
      <point x="965.0" y="336.0" type="curve" smooth="yes"/>
      <point x="963.8457732516993" y="475.8749645691089"/>
      <point x="881.1739151007243" y="565.0385778561061"/>
      <point x="785.8170293411531" y="595.8088880642899" type="curve" smooth="yes"/>
      <point x="775.9969959956541" y="606.9828569159644"/>
      <point x="777.2866160445803" y="640.0191243939025"/>
      <point x="786.8762522145267" y="655.279298936923" type="curve" smooth="yes"/>
      <point x="841.0587289750271" y="680.5227779383184"/>
      <point x="898.083859352181" y="753.6836436810895"/>
      <point x="899.0" y="858.0" type="curve" smooth="yes"/>
      <point x="897.3048636672083" y="1046.0276465492618"/>
      <point x="757.099872083147" y="1173.8854784684058"/>
      <point x="509.0" y="1173.0" type="curve" smooth="yes"/>
    </contour>
    <contour>
      <point x="759.0" y="336.0" type="curve" smooth="yes"/>
      <point x="761.6965468816859" y="200.7913476267312"/>
      <point x="683.6466274119398" y="130.42441754687994"/>
      <point x="535.0" y="130.0" type="curve" smooth="yes"/>
      <point x="268.0" y="130.0" type="line" smooth="yes"/>
      <point x="253.61938963538296" y="131.32966817550235"/>
      <point x="243.53061624549565" y="160.6049440424861"/>
      <point x="246.0" y="192.0" type="curve" smooth="yes"/>
      <point x="246.0" y="483.0" type="line" smooth="yes"/>
      <point x="243.53061624549565" y="514.3950559575139"/>
      <point x="253.61938963538296" y="543.6703318244977"/>
      <point x="268.0" y="545.0" type="curve" smooth="yes"/>
      <point x="530.0" y="545.0" type="line" smooth="yes"/>
      <point x="690.6708073416429" y="544.5788568451532"/>
      <point x="761.3014241867659" y="472.7587071798628"/>
    </contour>
    <contour>
      <point x="693.0" y="858.0" type="curve" smooth="yes"/>
      <point x="694.9883703205619" y="736.6304384239339"/>
      <point x="635.7861773979479" y="661.5496579727525"/>
      <point x="487.0" y="661.0" type="curve" smooth="yes"/>
      <point x="268.0" y="661.0" type="line" smooth="yes"/>
      <point x="253.61938963538293" y="662.3296681755023"/>
      <point x="243.53061624549565" y="691.6049440424861"/>
      <point x="246.0" y="723.0" type="curve" smooth="yes"/>
      <point x="246.0" y="995.0" type="line" smooth="yes"/>
      <point x="243.53061624549565" y="1026.395055957514"/>
      <point x="253.61938963538293" y="1055.6703318244977"/>
      <point x="268.0" y="1057.0" type="curve" smooth="yes"/>
      <point x="487.0" y="1057.0" type="line" smooth="yes"/>
      <point x="637.0858460487289" y="1056.495896654885"/>
      <point x="694.9047790261915" y="984.259871522349"/>
    </contour>
  </outline>
</glyph>
<glyph name="C" format="2">
  <advance width="1044"/>
  <unicode hex="0043"/>
  <outline>
    <contour>
      <point x="34.0" y="594.0" type="curve" smooth="yes"/>
      <point x="35.330232344357945" y="228.42071885437642"/>
      <point x="253.77569948623932" y="-9.371784475137298"/>
      <point x="574.0" y="-8.0" type="curve" smooth="yes"/>
      <point x="710.27528596314" y="-8.111527790915794"/>
      <point x="836.0850178697831" y="22.90390709918926"/>
      <point x="959.9148933381673" y="91.15069846608637" type="curve" smooth="yes"/>
      <point x="1004.6119227052097" y="110.19134269232765"/>
      <point x="1019.6291470632706" y="130.64384951951172"/>
      <point x="994.6137152470376" y="177.1410917675148" type="curve" smooth="yes"/>
      <point x="963.9764301738061" y="224.39626053759193"/>
      <point x="905.4927133164684" y="219.5963019132089"/>
      <point x="870.7014196460402" y="203.9698996182641" type="curve" smooth="yes"/>
      <point x="776.2859883176158" y="145.24391600550322"/>
      <point x="681.1372455833657" y="112.15536818461106"/>
      <point x="574.0" y="112.0" type="curve" smooth="yes"/>
      <point x="368.6275534829989" y="113.47801932600117"/>
      <point x="238.86514084733483" y="301.9089405016137"/>
      <point x="240.0" y="594.0" type="curve" smooth="yes"/>
      <point x="238.86059059927555" y="886.0990695420647"/>
      <point x="368.5757893378483" y="1073.5358784406435"/>
      <point x="574.0" y="1075.0" type="curve" smooth="yes"/>
      <point x="681.1372455833657" y="1074.844631815389"/>
      <point x="776.2859883176158" y="1041.7560839944967"/>
      <point x="870.7014196460402" y="983.0301003817359" type="curve" smooth="yes"/>
      <point x="905.4927133164684" y="967.4036980867911"/>
      <point x="963.9764301738061" y="962.603739462408"/>
      <point x="994.6137152470376" y="1009.8589082324852" type="curve" smooth="yes"/>
      <point x="1019.6291470632706" y="1056.3561504804884"/>
      <point x="1004.6119227052097" y="1076.8086573076723"/>
      <point x="959.9148933381673" y="1095.8493015339136" type="curve" smooth="yes"/>
      <point x="836.0850178697831" y="1164.0960929008108"/>
      <point x="710.27528596314" y="1195.1115277909157"/>
      <point x="574.0" y="1195.0" type="curve" smooth="yes"/>
      <point x="253.8128654397925" y="1196.362226013304"/>
      <point x="35.33423425068664" y="959.5728112757643"/>
    </contour>
  </outline>
</glyph>
<glyph name="D" format="2">
  <advance width="1083"/>
  <unicode hex="0044"/>
  <outline>
    <contour>
      <point x="142.0" y="1173.0" type="line" smooth="yes"/>
      <point x="89.85725067466817" y="1173.5386647330286"/>
      <point x="53.86566407560069" y="1165.417504155572"/>
      <point x="53.0" y="1119.0" type="curve" smooth="yes"/>
      <point x="53.0" y="68.0" type="line" smooth="yes"/>
      <point x="53.86566407560069" y="21.582495844427957"/>
      <point x="89.85725067466817" y="13.461335266971524"/>
      <point x="142.0" y="14.0" type="curve" smooth="yes"/>
      <point x="478.0" y="14.0" type="line" smooth="yes"/>
      <point x="803.1484521791116" y="12.889479449289048"/>
      <point x="1028.4955530152986" y="227.69320687554756"/>
      <point x="1030.0" y="593.0" type="curve" smooth="yes"/>
      <point x="1028.5001847275485" y="958.313808230693"/>
      <point x="803.1869879615208" y="1174.1193373371154"/>
      <point x="478.0" y="1173.0" type="curve" smooth="yes"/>
    </contour>
    <contour>
      <point x="824.0" y="593.0" type="curve" smooth="yes"/>
      <point x="825.4063658145316" y="290.45795140449974"/>
      <point x="686.6332988978629" y="130.94006066400954"/>
      <point x="459.0" y="130.0" type="curve" smooth="yes"/>
      <point x="277.0" y="130.0" type="line" smooth="yes"/>
      <point x="262.61938963538296" y="131.32966817550235"/>
      <point x="252.53061624549565" y="160.6049440424861"/>
      <point x="255.0" y="192.0" type="curve" smooth="yes"/>
      <point x="255.0" y="995.0" type="line" smooth="yes"/>
      <point x="252.53061624549565" y="1026.395055957514"/>
      <point x="262.61938963538296" y="1055.6703318244977"/>
      <point x="277.0" y="1057.0" type="curve" smooth="yes"/>
      <point x="459.0" y="1057.0" type="line" smooth="yes"/>
      <point x="686.5793881631726" y="1056.048691597873"/>
      <point x="825.4006176777217" y="895.5330143834899"/>
    </contour>
  </outline>
</glyph>
<glyph name="E" format="2">
  <advance width="831"/>
  <unicode hex="0045"/>
  <outline>
    <contour>
      <point x="133.0" y="1173.0" type="line" smooth="yes"/>
      <point x="80.85725067466817" y="1173.5386647330286"/>
      <point x="44.86566407560069" y="1165.417504155572"/>
      <point x="44.0" y="1119.0" type="curve" smooth="yes"/>
      <point x="44.0" y="68.0" type="line" smooth="yes"/>
      <point x="44.86566407560069" y="21.582495844427957"/>
      <point x="80.85725067466817" y="13.461335266971524"/>
      <point x="133.0" y="14.0" type="curve" smooth="yes"/>
      <point x="709.7926315789473" y="14.0" type="line" smooth="yes"/>
      <point x="755.8559629947588" y="13.042334447351685"/>
      <point x="786.5282913877033" y="22.790491812817187"/>
      <point x="787.05" y="72.0" type="curve" smooth="yes"/>
      <point x="786.5282913877033" y="121.2095081871828"/>
      <point x="755.8559629947588" y="130.9576655526483"/>
      <point x="709.7926315789473" y="130.0" type="curve" smooth="yes"/>
      <point x="268.0" y="130.0" type="line" smooth="yes"/>
      <point x="253.61938963538296" y="131.32966817550235"/>
      <point x="243.53061624549565" y="160.6049440424861"/>
      <point x="246.0" y="192.0" type="curve" smooth="yes"/>
      <point x="246.0" y="492.0" type="line" smooth="yes"/>
      <point x="243.53061624549565" y="523.3950559575139"/>
      <point x="253.61938963538293" y="552.6703318244977"/>
      <point x="268.0" y="554.0" type="curve" smooth="yes"/>
      <point x="591.8193233082707" y="554.0" type="line" smooth="yes"/>
      <point x="637.882654724082" y="553.0423344473517"/>
      <point x="668.5549831170267" y="562.7904918128172"/>
      <point x="669.0766917293233" y="612.0" type="curve" smooth="yes"/>
      <point x="668.5549831170267" y="661.2095081871828"/>
      <point x="637.882654724082" y="670.9576655526483"/>
      <point x="591.8193233082707" y="670.0" type="curve" smooth="yes"/>
      <point x="268.0" y="670.0" type="line" smooth="yes"/>
      <point x="253.61938963538293" y="671.3296681755023"/>
      <point x="243.53061624549565" y="700.6049440424861"/>
      <point x="246.0" y="732.0" type="curve" smooth="yes"/>
      <point x="246.0" y="995.0" type="line" smooth="yes"/>
      <point x="243.53061624549565" y="1026.395055957514"/>
      <point x="253.61938963538293" y="1055.6703318244977"/>
      <point x="268.0" y="1057.0" type="curve" smooth="yes"/>
      <point x="693.5204511278196" y="1057.0" type="line" smooth="yes"/>
      <point x="739.583782543631" y="1056.0423344473518"/>
      <point x="770.2561109365755" y="1065.7904918128172"/>
      <point x="770.7778195488721" y="1115.0" type="curve" smooth="yes"/>
      <point x="770.2561109365755" y="1164.2095081871828"/>
      <point x="739.583782543631" y="1173.9576655526482"/>
      <point x="693.5204511278196" y="1173.0" type="curve" smooth="yes"/>
    </contour>
  </outline>
</glyph>
<glyph name="F" format="2">
  <advance width="849"/>
  <unicode hex="0046"/>
  <outline>
    <contour>
      <point x="142.0" y="1173.0" type="line" smooth="yes"/>
      <point x="92.85725067466817" y="1173.5386647330286"/>
      <point x="54.1576580292774" y="1164.8689770704793"/>
      <point x="53.0" y="1119.0" type="curve" smooth="yes"/>
      <point x="53.0" y="55.0" type="line" smooth="yes"/>
      <point x="53.94301943119794" y="12.736307161738532"/>
      <point x="90.5340535687596" y="3.560162961062849"/>
      <point x="153.0" y="4.0" type="curve" smooth="yes"/>
      <point x="155.0" y="4.0" type="line" smooth="yes"/>
      <point x="217.46594643124038" y="3.560162961062849"/>
      <point x="254.05698056880206" y="12.736307161738532"/>
      <point x="255.0" y="55.0" type="curve" smooth="yes"/>
      <point x="255.0" y="452.0" type="line" smooth="yes"/>
      <point x="252.53061624549565" y="483.3950559575139"/>
      <point x="262.61938963538296" y="512.6703318244977"/>
      <point x="277.0" y="514.0" type="curve" smooth="yes"/>
      <point x="620.736976744186" y="514.0" type="line" smooth="yes"/>
      <point x="667.6874294100209" y="513.0936849031771"/>
      <point x="699.0301986619893" y="522.8734262801839"/>
      <point x="699.5837209302325" y="572.0" type="curve" smooth="yes"/>
      <point x="699.0301986619893" y="621.1265737198161"/>
      <point x="667.6874294100209" y="630.9063150968229"/>
      <point x="620.736976744186" y="630.0" type="curve" smooth="yes"/>
      <point x="277.0" y="630.0" type="line" smooth="yes"/>
      <point x="262.61938963538296" y="631.3296681755023"/>
      <point x="252.53061624549565" y="660.6049440424861"/>
      <point x="255.0" y="692.0" type="curve" smooth="yes"/>
      <point x="255.0" y="995.0" type="line" smooth="yes"/>
      <point x="252.53061624549565" y="1026.395055957514"/>
      <point x="262.61938963538296" y="1055.6703318244977"/>
      <point x="277.0" y="1057.0" type="curve" smooth="yes"/>
      <point x="717.2032558139534" y="1057.0" type="line" smooth="yes"/>
      <point x="764.1537084797883" y="1056.093684903177"/>
      <point x="795.4964777317567" y="1065.8734262801838"/>
      <point x="796.05" y="1115.0" type="curve" smooth="yes"/>
      <point x="795.4964777317567" y="1164.1265737198162"/>
      <point x="764.1537084797883" y="1173.906315096823"/>
      <point x="717.2032558139534" y="1173.0" type="curve" smooth="yes"/>
    </contour>
  </outline>
</glyph>
<glyph name="G" format="2">
  <advance width="1093"/>
  <unicode hex="0047"/>
  <outline>
    <contour>
      <point x="34.0" y="594.0" type="curve" smooth="yes"/>
      <point x="35.378553791807846" y="228.49814882649665"/>
      <point x="257.9509121839901" y="-9.32706250496426"/>
      <point x="584.0" y="-8.0" type="curve" smooth="yes"/>
      <point x="740.8150369889879" y="-8.082299641856837"/>
      <point x="896.0363043545357" y="24.127259450940038"/>
      <point x="1009.8996123972777" y="86.15540398974242" type="curve" smooth="yes"/>
      <point x="1038.6348742036366" y="96.76296943724836"/>
      <point x="1058.3265272063272" y="114.16581590079089"/>
      <point x="1059.0" y="143.0" type="curve" smooth="yes"/>
      <point x="1059.0" y="526.0" type="line" smooth="yes"/>
      <point x="1058.1343359243992" y="572.417504155572"/>
      <point x="1022.1427493253318" y="580.5386647330284"/>
      <point x="970.0" y="580.0" type="curve" smooth="yes"/>
      <point x="616.0" y="580.0" type="line" smooth="yes"/>
      <point x="563.1329425569022" y="580.6562602599764"/>
      <point x="527.7762949962214" y="570.6045012494914"/>
      <point x="527.0" y="522.0" type="curve" smooth="yes"/>
      <point x="527.7762949962214" y="473.39549875050864"/>
      <point x="563.1329425569022" y="463.3437397400236"/>
      <point x="616.0" y="464.0" type="curve" smooth="yes"/>
      <point x="835.0" y="464.0" type="line" smooth="yes"/>
      <point x="849.380610364617" y="462.6703318244977"/>
      <point x="859.4693837545043" y="433.3950559575139"/>
      <point x="857.0" y="402.0" type="curve" smooth="yes"/>
      <point x="857.0" y="222.92402301575527" type="line" smooth="yes"/>
      <point x="858.5125211362836" y="196.88718469194544"/>
      <point x="847.6409568340285" y="164.75737820661453"/>
      <point x="835.5688250099633" y="153.13405747556894" type="curve" smooth="yes"/>
      <point x="789.2438325282994" y="129.0925036256724"/>
      <point x="695.0032331350939" y="112.04284417639192"/>
      <point x="584.0" y="112.0" type="curve" smooth="yes"/>
      <point x="373.374108690082" y="113.41070875755885"/>
      <point x="238.78994500510953" y="301.778701014909"/>
      <point x="240.0" y="594.0" type="curve" smooth="yes"/>
      <point x="238.5476836564942" y="886.6135574126272"/>
      <point x="388.07966485298704" y="1073.6651948899637"/>
      <point x="594.0" y="1075.0" type="curve" smooth="yes"/>
      <point x="701.9691617034058" y="1074.9045535391442"/>
      <point x="797.2400584392893" y="1048.9761806125307"/>
      <point x="892.1193941202515" y="992.161246436517" type="curve" smooth="yes"/>
      <point x="927.9606150001246" y="976.4771131621546"/>
      <point x="986.5230116755775" y="972.3427243469755"/>
      <point x="1015.9097612689425" y="1020.4997807847903" type="curve" smooth="yes"/>
      <point x="1038.7259876674866" y="1067.0271885216407"/>
      <point x="1023.2713137116516" y="1087.6020879432294"/>
      <point x="977.3604711938409" y="1105.6832440004787" type="curve" smooth="yes"/>
      <point x="852.2855741229314" y="1170.923274312085"/>
      <point x="729.5973831560041" y="1195.070034335646"/>
      <point x="594.0" y="1195.0" type="curve" smooth="yes"/>
      <point x="274.1578355292137" y="1196.2753498298903"/>
      <point x="35.58280584487165" y="959.1898585623105"/>
    </contour>
  </outline>
</glyph>
<glyph name="H" format="2">
  <advance width="1046"/>
  <unicode hex="0048"/>
  <outline>
    <contour>
      <point x="886.0" y="1183.0" type="line" smooth="yes"/>
      <point x="823.5340535687596" y="1183.4398370389372"/>
      <point x="786.943019431198" y="1174.2636928382615"/>
      <point x="786.0" y="1132.0" type="curve" smooth="yes"/>
      <point x="786.0" y="732.0" type="line" smooth="yes"/>
      <point x="788.4693837545043" y="700.6049440424861"/>
      <point x="778.3806103646172" y="671.3296681755023"/>
      <point x="764.0" y="670.0" type="curve" smooth="yes"/>
      <point x="282.0" y="670.0" type="line" smooth="yes"/>
      <point x="267.61938963538296" y="671.3296681755023"/>
      <point x="257.53061624549565" y="700.6049440424861"/>
      <point x="260.0" y="732.0" type="curve" smooth="yes"/>
      <point x="260.0" y="1132.0" type="line" smooth="yes"/>
      <point x="259.05698056880203" y="1174.2636928382615"/>
      <point x="222.46594643124038" y="1183.4398370389372"/>
      <point x="160.0" y="1183.0" type="curve" smooth="yes"/>
      <point x="158.0" y="1183.0" type="line" smooth="yes"/>
      <point x="95.5340535687596" y="1183.4398370389372"/>
      <point x="58.94301943119794" y="1174.2636928382615"/>
      <point x="58.0" y="1132.0" type="curve" smooth="yes"/>
      <point x="58.0" y="55.0" type="line" smooth="yes"/>
      <point x="58.94301943119794" y="12.736307161738532"/>
      <point x="95.5340535687596" y="3.560162961062849"/>
      <point x="158.0" y="4.0" type="curve" smooth="yes"/>
      <point x="160.0" y="4.0" type="line" smooth="yes"/>
      <point x="222.46594643124038" y="3.560162961062849"/>
      <point x="259.05698056880203" y="12.736307161738532"/>
      <point x="260.0" y="55.0" type="curve" smooth="yes"/>
      <point x="260.0" y="492.0" type="line" smooth="yes"/>
      <point x="257.53061624549565" y="523.3950559575139"/>
      <point x="267.61938963538296" y="552.6703318244977"/>
      <point x="282.0" y="554.0" type="curve" smooth="yes"/>
      <point x="764.0" y="554.0" type="line" smooth="yes"/>
      <point x="778.3806103646172" y="552.6703318244977"/>
      <point x="788.4693837545043" y="523.3950559575139"/>
      <point x="786.0" y="492.0" type="curve" smooth="yes"/>
      <point x="786.0" y="55.0" type="line" smooth="yes"/>
      <point x="786.943019431198" y="12.736307161738532"/>
      <point x="823.5340535687596" y="3.560162961062849"/>
      <point x="886.0" y="4.0" type="curve" smooth="yes"/>
      <point x="888.0" y="4.0" type="line" smooth="yes"/>
      <point x="950.4659464312404" y="3.560162961062849"/>
      <point x="987.056980568802" y="12.736307161738532"/>
      <point x="988.0" y="55.0" type="curve" smooth="yes"/>
      <point x="988.0" y="1132.0" type="line" smooth="yes"/>
      <point x="987.056980568802" y="1174.2636928382615"/>
      <point x="950.4659464312404" y="1183.4398370389372"/>
      <point x="888.0" y="1183.0" type="curve" smooth="yes"/>
    </contour>
  </outline>
</glyph>
<glyph name="I" format="2">
  <advance width="504"/>
  <unicode hex="0049"/>
  <outline>
    <contour>
      <point x="94.79778761061942" y="130.0" type="line" smooth="yes"/>
      <point x="62.425431240988175" y="134.41185899549427"/>
      <point x="50.07203572592566" y="122.95857186837655"/>
      <point x="50.0" y="72.0" type="curve" smooth="yes"/>
      <point x="50.07203572592566" y="21.041428131623455"/>
      <point x="62.425431240988175" y="9.588141004505733"/>
      <point x="94.79778761061942" y="14.0" type="curve" smooth="yes"/>
      <point x="409.5022123893805" y="14.0" type="line" smooth="yes"/>
      <point x="441.87456875901177" y="9.588141004505747"/>
      <point x="454.2279642740743" y="21.041428131623455"/>
      <point x="454.29999999999995" y="72.0" type="curve" smooth="yes"/>
      <point x="454.2279642740743" y="122.95857186837655"/>
      <point x="441.87456875901177" y="134.41185899549424"/>
      <point x="409.5022123893805" y="130.0" type="curve" smooth="yes"/>
      <point x="361.7379292035398" y="130.0" type="line" smooth="yes"/>
      <point x="354.46571636104665" y="131.32966817550235"/>
      <point x="350.6806162454956" y="154.3012707681498"/>
      <point x="353.15" y="178.5879292035398" type="curve" smooth="yes"/>
      <point x="353.15" y="1010.918442477876" type="line" smooth="yes"/>
      <point x="350.6806162454956" y="1033.8767239221156"/>
      <point x="353.2877216707812" y="1055.6703318244977"/>
      <point x="359.2315575221239" y="1057.0" type="curve" smooth="yes"/>
      <point x="403.5346607669617" y="1057.0" type="line" smooth="yes"/>
      <point x="435.9070171365929" y="1052.5881410045058"/>
      <point x="448.2604126516554" y="1064.0414281316234"/>
      <point x="448.33244837758104" y="1115.0" type="curve" smooth="yes"/>
      <point x="448.2604126516554" y="1165.9585718683766"/>
      <point x="435.9070171365929" y="1177.4118589954942"/>
      <point x="403.5346607669617" y="1173.0" type="curve" smooth="yes"/>
      <point x="100.76533923303833" y="1173.0" type="line" smooth="yes"/>
      <point x="68.3929828634071" y="1177.4118589954942"/>
      <point x="56.03958734834451" y="1165.9585718683766"/>
      <point x="55.96755162241885" y="1115.0" type="curve" smooth="yes"/>
      <point x="56.03958734834451" y="1064.0414281316234"/>
      <point x="68.3929828634071" y="1052.5881410045058"/>
      <point x="100.76533923303833" y="1057.0" type="curve" smooth="yes"/>
      <point x="145.0684424778761" y="1057.0" type="line" smooth="yes"/>
      <point x="151.01227832921873" y="1055.6703318244977"/>
      <point x="153.61938375450433" y="1033.8767239221156"/>
      <point x="151.14999999999998" y="1010.9184424778762" type="curve" smooth="yes"/>
      <point x="151.14999999999998" y="178.58792920353983" type="line" smooth="yes"/>
      <point x="153.61938375450433" y="154.3012707681498"/>
      <point x="149.8342836389533" y="131.32966817550235"/>
      <point x="142.56207079646015" y="130.0" type="curve" smooth="yes"/>
    </contour>
  </outline>
</glyph>
<glyph name="J" format="2">
  <advance width="683"/>
  <unicode hex="004A"/>
  <outline>
    <contour>
      <point x="236.5958436526215" y="1173.0" type="line" smooth="yes"/>
      <point x="197.78089172111285" y="1174.6803281813297"/>
      <point x="173.8220712169691" y="1164.9635421807682"/>
      <point x="173.54553381914548" y="1115.0" type="curve" smooth="yes"/>
      <point x="173.8220712169691" y="1065.0364578192318"/>
      <point x="197.78089172111285" y="1055.3196718186703"/>
      <point x="236.5958436526215" y="1057.0" type="curve" smooth="yes"/>
      <point x="400.9" y="1057.0" type="line" smooth="yes"/>
      <point x="415.2806103646171" y="1055.6703318244977"/>
      <point x="425.3693837545043" y="1026.395055957514"/>
      <point x="422.9" y="995.0" type="curve" smooth="yes"/>
      <point x="422.9" y="363.0" type="line" smooth="yes"/>
      <point x="423.2835756927106" y="207.6040696736716"/>
      <point x="393.6650323222451" y="114.2263615471226"/>
      <point x="318.34176534870346" y="112.0" type="curve" smooth="yes"/>
      <point x="264.23649576208663" y="112.52558036525892"/>
      <point x="215.03590468823222" y="149.5272855129337"/>
      <point x="169.45265503981142" y="213.377607885426" type="curve" smooth="yes"/>
      <point x="148.30067389906046" y="230.42387012489297"/>
      <point x="93.99490616566332" y="236.85593905107845"/>
      <point x="70.54018082710623" y="192.05417518142988" type="curve" smooth="yes"/>
      <point x="52.18172914769704" y="148.63731555385831"/>
      <point x="57.26971538607077" y="123.29629519974961"/>
      <point x="81.5380038564781" y="100.69139678598944" type="curve" smooth="yes"/>
      <point x="144.7746141439788" y="27.799913201673448"/>
      <point x="233.83501228592868" y="-8.41578774361959"/>
      <point x="317.7536651926166" y="-8.0" type="curve" smooth="yes"/>
      <point x="472.53326696357203" y="-9.224341735740516"/>
      <point x="623.156404041169" y="109.04049652773155"/>
      <point x="624.9" y="333.0" type="curve" smooth="yes"/>
      <point x="624.9" y="1119.0" type="line" smooth="yes"/>
      <point x="623.7423419707226" y="1164.8689770704793"/>
      <point x="585.0427493253318" y="1173.5386647330286"/>
      <point x="535.9" y="1173.0" type="curve" smooth="yes"/>
    </contour>
  </outline>
</glyph>
<glyph name="K" format="2">
  <advance width="988"/>
  <unicode hex="004B"/>
  <outline>
    <contour>
      <point x="128.0" y="1183.0" type="line" smooth="yes"/>
      <point x="65.5340535687596" y="1183.4398370389372"/>
      <point x="28.94301943119794" y="1174.2636928382615"/>
      <point x="28.0" y="1132.0" type="curve" smooth="yes"/>
      <point x="28.0" y="55.0" type="line" smooth="yes"/>
      <point x="28.94301943119794" y="12.736307161738532"/>
      <point x="65.5340535687596" y="3.560162961062849"/>
      <point x="128.0" y="4.0" type="curve" smooth="yes"/>
      <point x="130.0" y="4.0" type="line" smooth="yes"/>
      <point x="192.46594643124038" y="3.560162961062849"/>
      <point x="229.05698056880206" y="12.736307161738532"/>
      <point x="230.0" y="55.0" type="curve" smooth="yes"/>
      <point x="230.0" y="317.58740234375" type="line" smooth="yes"/>
      <point x="229.27897679592886" y="346.3015554483902"/>
      <point x="242.04357580976796" y="388.9544860683434"/>
      <point x="255.8609495170226" y="410.0958569375416" type="curve" smooth="yes"/>
      <point x="363.9001998425419" y="524.4812418037783" type="line" smooth="yes"/>
      <point x="371.3483015672447" y="546.5205229504102"/>
      <point x="380.20592229275434" y="544.3919538158535"/>
      <point x="386.3508007506261" y="520.0554279436491" type="curve" smooth="yes"/>
      <point x="771.3117617367126" y="14.479646037783725" type="line" smooth="yes"/>
      <point x="804.2336603523958" y="-14.803869071147275"/>
      <point x="855.911816165352" y="-11.848088963953543"/>
      <point x="903.8734457921374" y="12.163444427694404" type="curve" smooth="yes"/>
      <point x="958.552663229582" y="37.80826111997483"/>
      <point x="969.4679426232819" y="50.26521783371588"/>
      <point x="937.6757375534603" y="83.51151843632726" type="curve" smooth="yes"/>
      <point x="532.7601314406592" y="614.2950866756455" type="line" smooth="yes"/>
      <point x="521.8842546799876" y="639.6218445834347"/>
      <point x="522.8913093498046" y="682.1490436610574"/>
      <point x="534.8363524157924" y="705.4581005006719" type="curve" smooth="yes"/>
      <point x="910.8834570437854" y="1103.6234850352187" type="line" smooth="yes"/>
      <point x="947.4041405368033" y="1133.09785299346"/>
      <point x="942.1378353172527" y="1147.144516007926"/>
      <point x="889.2486826900827" y="1175.2895441858834" type="curve" smooth="yes"/>
      <point x="844.1638297387096" y="1199.8983972701208"/>
      <point x="789.049379121881" y="1202.8557315775874"/>
      <point x="756.0526603161337" y="1181.4129902897077" type="curve" smooth="yes"/>
      <point x="217.94650256819875" y="609.2753118184104" type="line" smooth="yes"/>
      <point x="210.28003895691154" y="587.2366066653838"/>
      <point x="227.35106316084247" y="600.3057137913909"/>
      <point x="230.0" y="631.9022827148438" type="curve" smooth="yes"/>
      <point x="230.0" y="1132.0" type="line" smooth="yes"/>
      <point x="229.05698056880206" y="1174.2636928382615"/>
      <point x="192.46594643124038" y="1183.4398370389372"/>
      <point x="130.0" y="1183.0" type="curve" smooth="yes"/>
    </contour>
  </outline>
</glyph>
<glyph name="L" format="2">
  <advance width="849"/>
  <unicode hex="004C"/>
  <outline>
    <contour>
      <point x="153.0" y="1183.0" type="line" smooth="yes"/>
      <point x="90.5340535687596" y="1183.4398370389372"/>
      <point x="53.94301943119794" y="1174.2636928382615"/>
      <point x="53.0" y="1132.0" type="curve" smooth="yes"/>
      <point x="53.0" y="68.0" type="line" smooth="yes"/>
      <point x="53.77629499622137" y="21.39549875050866"/>
      <point x="88.85725067466817" y="13.461335266971524"/>
      <point x="142.0" y="14.0" type="curve" smooth="yes"/>
      <point x="717.2032558139534" y="14.0" type="line" smooth="yes"/>
      <point x="764.1537084797883" y="13.093684903177039"/>
      <point x="795.4964777317567" y="22.873426280183928"/>
      <point x="796.05" y="72.0" type="curve" smooth="yes"/>
      <point x="795.4964777317567" y="121.12657371981608"/>
      <point x="764.1537084797883" y="130.90631509682296"/>
      <point x="717.2032558139534" y="130.0" type="curve" smooth="yes"/>
      <point x="277.0" y="130.0" type="line" smooth="yes"/>
      <point x="262.61938963538296" y="131.32966817550235"/>
      <point x="252.53061624549565" y="160.6049440424861"/>
      <point x="255.0" y="192.0" type="curve" smooth="yes"/>
      <point x="255.0" y="1132.0" type="line" smooth="yes"/>
      <point x="254.05698056880206" y="1174.2636928382615"/>
      <point x="217.46594643124038" y="1183.4398370389372"/>
      <point x="155.0" y="1183.0" type="curve" smooth="yes"/>
    </contour>
  </outline>
</glyph>
<glyph name="M" format="2">
  <advance width="1090"/>
  <unicode hex="004D"/>
  <outline>
    <contour>
      <point x="907.0391340834062" y="1183.0" type="line" smooth="yes"/>
      <point x="853.4223083021354" y="1183.460956478323"/>
      <point x="810.4309103666866" y="1168.4640493481043"/>
      <point x="786.4637915562543" y="1126.096456779686" type="curve" smooth="yes"/>
      <point x="541.6983220575521" y="599.6239068625946" type="line" smooth="yes"/>
      <point x="538.6165371605109" y="571.3941465941605"/>
      <point x="551.4617310063014" y="571.3941465941606"/>
      <point x="548.3799461092603" y="599.6239068625946" type="curve" smooth="yes"/>
      <point x="303.61447661055814" y="1126.096456779686" type="line" smooth="yes"/>
      <point x="279.80074217769965" y="1168.5725070102453"/>
      <point x="237.7383629979748" y="1183.4727108455825"/>
      <point x="184.03913408340617" y="1183.0" type="curve" smooth="yes"/>
      <point x="182.03913408340617" y="1183.0" type="line" smooth="yes"/>
      <point x="129.94011456981337" y="1183.2718705403272"/>
      <point x="83.2951216023375" y="1176.2958171199325"/>
      <point x="80.04896451414479" y="1131.6150524335178" type="curve" smooth="yes"/>
      <point x="50.04903462858039" y="54.61368233566017" type="line" smooth="yes"/>
      <point x="49.88519949369683" y="12.542388421509363"/>
      <point x="86.57318765216577" y="3.560162961062849"/>
      <point x="149.03913408340617" y="4.0" type="curve" smooth="yes"/>
      <point x="151.03913408340617" y="4.0" type="line" smooth="yes"/>
      <point x="213.58807113073775" y="3.548610652576679"/>
      <point x="249.09611465220823" y="12.736307161738532"/>
      <point x="251.0306197764619" y="55.35825763362265" type="curve" smooth="yes"/>
      <point x="270.79102580288935" y="820.377507883975" type="line" smooth="yes"/>
      <point x="269.6784327233785" y="850.5359898252949"/>
      <point x="237.06567457972434" y="857.3894554321319"/>
      <point x="242.66306462103026" y="830.3547917177242" type="curve" smooth="yes"/>
      <point x="429.4591881150685" y="427.8982101679833" type="line" smooth="yes"/>
      <point x="454.0830189165486" y="383.28673304074056"/>
      <point x="493.903203552787" y="371.6045518552191"/>
      <point x="545.0391340834062" y="372.0" type="curve" smooth="yes"/>
      <point x="596.1750646140255" y="371.6045518552191"/>
      <point x="635.9952492502638" y="383.28673304074056"/>
      <point x="660.6190800517439" y="427.8982101679833" type="curve" smooth="yes"/>
      <point x="847.415203545782" y="830.3547917177242" type="line" smooth="yes"/>
      <point x="853.0125935870878" y="857.3894554321319"/>
      <point x="820.399835443434" y="850.5359898252949"/>
      <point x="819.287242363923" y="820.377507883975" type="curve" smooth="yes"/>
      <point x="839.0476483903504" y="55.35825763362265" type="line" smooth="yes"/>
      <point x="840.9821535146042" y="12.736307161738532"/>
      <point x="876.4901970360746" y="3.548610652576679"/>
      <point x="939.0391340834062" y="4.0" type="curve" smooth="yes"/>
      <point x="941.0391340834062" y="4.0" type="line" smooth="yes"/>
      <point x="1003.5050805146466" y="3.560162961062849"/>
      <point x="1040.1930686731155" y="12.542388421509363"/>
      <point x="1040.029233538232" y="54.61368233566017" type="curve" smooth="yes"/>
      <point x="1010.0293036526676" y="1131.6150524335178" type="line" smooth="yes"/>
      <point x="1006.9178620944924" y="1176.4612654554167"/>
      <point x="961.2043572060829" y="1183.2790483202743"/>
      <point x="909.0391340834062" y="1183.0" type="curve" smooth="yes"/>
    </contour>
  </outline>
</glyph>
<glyph name="N" format="2">
  <advance width="1030"/>
  <unicode hex="004E"/>
  <outline>
    <contour>
      <point x="880.0" y="1183.0" type="line" smooth="yes"/>
      <point x="819.3659892079935" y="1183.4633949831123"/>
      <point x="782.943019431198" y="1174.2636928382615"/>
      <point x="782.0" y="1132.0" type="curve" smooth="yes"/>
      <point x="782.0002913014312" y="286.93372855315795" type="line"/>
      <point x="825.8593598067506" y="279.4199533759253" type="line"/>
      <point x="261.8990564171993" y="1161.4532482500729" type="line" smooth="yes"/>
      <point x="244.82141365307248" y="1176.324872104781"/>
      <point x="212.0990195135928" y="1183.2718705403272"/>
      <point x="178.0" y="1183.0" type="curve" smooth="yes"/>
      <point x="151.0" y="1183.0" type="line" smooth="yes"/>
      <point x="88.6150339457808" y="1183.4287158766597"/>
      <point x="51.044304412438244" y="1174.0720621146204"/>
      <point x="50.0" y="1132.0" type="curve" smooth="yes"/>
      <point x="50.0" y="55.0" type="line" smooth="yes"/>
      <point x="50.94301943119794" y="12.736307161738532"/>
      <point x="87.36598920799355" y="3.536605016887659"/>
      <point x="148.0" y="4.0" type="curve" smooth="yes"/>
      <point x="150.0" y="4.0" type="line" smooth="yes"/>
      <point x="210.63401079200645" y="3.536605016887659"/>
      <point x="247.05698056880206" y="12.736307161738532"/>
      <point x="248.0" y="55.0" type="curve" smooth="yes"/>
      <point x="247.99972265483328" y="921.06466443723" type="line"/>
      <point x="204.15337179830328" y="928.590681368417" type="line"/>
      <point x="773.110865819355" y="40.555093284275685" type="line" smooth="yes"/>
      <point x="797.0560013760373" y="7.981772806875487"/>
      <point x="832.6590171243099" y="-8.739975941210616"/>
      <point x="879.0" y="-8.0" type="curve" smooth="yes"/>
      <point x="938.9241689046984" y="-8.666061939209461"/>
      <point x="978.224408045134" y="7.0849148569316664"/>
      <point x="980.0" y="37.0" type="curve" smooth="yes"/>
      <point x="980.0" y="1132.0" type="line" smooth="yes"/>
      <point x="979.056980568802" y="1174.2636928382615"/>
      <point x="942.6340107920065" y="1183.4633949831123"/>
      <point x="882.0" y="1183.0" type="curve" smooth="yes"/>
    </contour>
  </outline>
</glyph>
<glyph name="O" format="2">
  <advance width="1168"/>
  <unicode hex="004F"/>
  <outline>
    <contour>
      <point x="34.0" y="593.0" type="curve" smooth="yes"/>
      <point x="35.382688963382265" y="227.5047061971947"/>
      <point x="257.9877562665145" y="-9.317767656381555"/>
      <point x="584.0" y="-8.0" type="curve" smooth="yes"/>
      <point x="910.0122437334854" y="-9.317767656381555"/>
      <point x="1132.6173110366178" y="227.5047061971947"/>
      <point x="1134.0" y="593.0" type="curve" smooth="yes"/>
      <point x="1132.621446208192" y="958.5018511735034"/>
      <point x="910.0490878160099" y="1196.3270625049643"/>
      <point x="584.0" y="1195.0" type="curve" smooth="yes"/>
      <point x="257.9509121839901" y="1196.3270625049643"/>
      <point x="35.378553791807846" y="958.5018511735034"/>
    </contour>
    <contour>
      <point x="928.0" y="593.0" type="curve" smooth="yes"/>
      <point x="929.1844662748925" y="298.8225209245495"/>
      <point x="796.7799140794413" y="113.37069859441667"/>
      <point x="584.0" y="112.0" type="curve" smooth="yes"/>
      <point x="371.2200859205588" y="113.37069859441667"/>
      <point x="238.81553372510746" y="298.8225209245495"/>
      <point x="240.0" y="593.0" type="curve" smooth="yes"/>
      <point x="238.82025120275435" y="887.1693452875106"/>
      <point x="371.2715897436231" y="1073.6159971633465"/>
      <point x="584.0" y="1075.0" type="curve" smooth="yes"/>
      <point x="796.7284102563768" y="1073.6159971633465"/>
      <point x="929.1797487972457" y="887.1693452875106"/>
    </contour>
  </outline>
</glyph>
<glyph name="P" format="2">
  <advance width="885"/>
  <unicode hex="0050"/>
  <outline>
    <contour>
      <point x="133.0" y="1173.0" type="line" smooth="yes"/>
      <point x="80.85725067466817" y="1173.5386647330286"/>
      <point x="44.86566407560069" y="1165.417504155572"/>
      <point x="44.0" y="1119.0" type="curve" smooth="yes"/>
      <point x="44.0" y="55.0" type="line" smooth="yes"/>
      <point x="44.94301943119794" y="12.736307161738532"/>
      <point x="81.5340535687596" y="3.560162961062849"/>
      <point x="144.0" y="4.0" type="curve" smooth="yes"/>
      <point x="146.0" y="4.0" type="line" smooth="yes"/>
      <point x="208.46594643124038" y="3.560162961062849"/>
      <point x="245.05698056880206" y="12.736307161738532"/>
      <point x="246.0" y="55.0" type="curve" smooth="yes"/>
      <point x="246.0" y="345.0" type="line" smooth="yes"/>
      <point x="243.53061624549565" y="376.3950559575139"/>
      <point x="253.61938963538296" y="405.6703318244977"/>
      <point x="268.0" y="407.0" type="curve" smooth="yes"/>
      <point x="440.9443231441048" y="407.0" type="line" smooth="yes"/>
      <point x="693.769265425282" y="405.8732138569566"/>
      <point x="839.9151385168825" y="557.4282018170569"/>
      <point x="841.25" y="788.0" type="curve" smooth="yes"/>
      <point x="839.9397896961208" y="1019.6118098558233"/>
      <point x="693.93057170154" y="1174.1642615352143"/>
      <point x="440.9443231441048" y="1173.0" type="curve" smooth="yes"/>
    </contour>
    <contour>
      <point x="268.0" y="523.0" type="line" smooth="yes"/>
      <point x="253.61938963538293" y="524.3296681755023"/>
      <point x="243.53061624549565" y="553.6049440424861"/>
      <point x="246.0" y="585.0" type="curve" smooth="yes"/>
      <point x="246.0" y="995.0" type="line" smooth="yes"/>
      <point x="243.53061624549565" y="1026.395055957514"/>
      <point x="253.61938963538293" y="1055.6703318244977"/>
      <point x="268.0" y="1057.0" type="curve" smooth="yes"/>
      <point x="422.7489082969432" y="1057.0" type="line" smooth="yes"/>
      <point x="584.5711226960188" y="1056.1604747686629"/>
      <point x="657.2505527116219" y="953.5845736580378"/>
      <point x="655.8169577874818" y="788.0" type="curve" smooth="yes"/>
      <point x="657.2927608439473" y="624.3503678013615"/>
      <point x="584.7384723029182" y="523.8071775805945"/>
      <point x="422.7489082969432" y="523.0" type="curve" smooth="yes"/>
    </contour>
  </outline>
</glyph>
<glyph name="Q" format="2">
  <advance width="1184"/>
  <unicode hex="0051"/>
  <outline>
    <contour>
      <point x="553.0944241321647" y="307.5412638233531" type="curve" smooth="yes"/>
      <point x="684.083162899537" y="102.53177109862688" type="line"/>
      <point x="710.1355391220368" y="61.575779755709" type="line"/>
      <point x="832.1763360742199" y="-127.39018970531083" type="line" smooth="yes"/>
      <point x="862.0159353297845" y="-162.39980579149136"/>
      <point x="913.1203479484813" y="-165.7003275587375"/>
      <point x="965.8838177760875" y="-137.1631553575664" type="curve" smooth="yes"/>
      <point x="1019.040728878464" y="-109.46678756557331"/>
      <point x="1029.8502542267706" y="-96.11720188372533"/>
      <point x="1001.8721426603611" y="-61.56934779334013" type="curve" smooth="yes"/>
      <point x="722.8856297124422" y="373.4419636436097" type="line" smooth="yes"/>
      <point x="693.2021625642581" y="409.50227002488873"/>
      <point x="641.8796520515187" y="412.7003275587375"/>
      <point x="588.8466177584181" y="384.25608383989805" type="curve" smooth="yes"/>
      <point x="536.959271121536" y="355.4667875655733"/>
      <point x="525.0443044124382" y="342.92793788537955"/>
    </contour>
    <component base="O"/>
  </outline>
</glyph>
<glyph name="S" format="2">
  <advance width="1031"/>
  <unicode hex="0053"/>
  <outline>
    <contour>
      <point x="47.42978909692687" y="863.0" type="curve" smooth="yes"/>
      <point x="48.70633362285503" y="728.3328842503544"/>
      <point x="127.41570636062988" y="662.4298189530961"/>
      <point x="226.7093887207799" y="620.7545276270056" type="curve" smooth="yes"/>
      <point x="369.450519752016" y="559.7408682883598"/>
      <point x="561.0231405403365" y="557.7974551672161"/>
      <point x="678.2471448026662" y="504.8816584445467" type="curve" smooth="yes"/>
      <point x="746.3427188247219" y="472.76701037530336"/>
      <point x="785.0111611386621" y="418.80803064849874"/>
      <point x="783.4297890969269" y="327.0" type="curve" smooth="yes"/>
      <point x="785.7441449921466" y="203.22588775555107"/>
      <point x="711.1833214900298" y="112.55474684985356"/>
      <point x="523.4297890969269" y="112.0" type="curve" smooth="yes"/>
      <point x="396.91409495519156" y="112.20980130082368"/>
      <point x="277.6738993247004" y="158.37689512165045"/>
      <point x="185.48049611847333" y="220.22039070540265" type="curve" smooth="yes"/>
      <point x="151.04784137889166" y="236.61443445193228"/>
      <point x="92.75285247409961" y="240.2593485098835"/>
      <point x="59.362152264827394" y="192.54106168701216" type="curve" smooth="yes"/>
      <point x="31.971144350426073" y="148.15799369152572"/>
      <point x="45.02283719305778" y="125.67502004010629"/>
      <point x="88.7396600843245" y="105.90207530342434" type="curve" smooth="yes"/>
      <point x="210.10199094658785" y="33.84810963530241"/>
      <point x="366.7766234604398" y="-8.138883157443598"/>
      <point x="523.4297890969269" y="-8.0" type="curve" smooth="yes"/>
      <point x="825.4660269777035" y="-8.685523037766727"/>
      <point x="987.4155313723013" y="126.40300388041274"/>
      <point x="989.4297890969269" y="327.0" type="curve" smooth="yes"/>
      <point x="988.0285272715549" y="498.4659722240257"/>
      <point x="888.3816598454716" y="575.1863783796821"/>
      <point x="767.1479721390638" y="621.01473547931" type="curve" smooth="yes"/>
      <point x="610.8597306429633" y="681.2047076726636"/>
      <point x="414.924018759809" y="680.2107380154821"/>
      <point x="316.1776776691785" y="735.5106273364031" type="curve" smooth="yes"/>
      <point x="272.24338176498304" y="760.8871884640388"/>
      <point x="252.2022816392063" y="802.7490989128632"/>
      <point x="253.42978909692687" y="863.0" type="curve" smooth="yes"/>
      <point x="251.0087722903347" y="990.8993260204174"/>
      <point x="326.9370757804584" y="1074.403698086791"/>
      <point x="479.42978909692687" y="1075.0" type="curve" smooth="yes"/>
      <point x="606.8983065053508" y="1074.8702574184983"/>
      <point x="717.1609516154236" y="1039.861804805428"/>
      <point x="811.1312087429671" y="981.0301003817359" type="curve" smooth="yes"/>
      <point x="846.7550011890908" y="965.530791776971"/>
      <point x="905.6210146981394" y="962.5029233332851"/>
      <point x="936.0435043439645" y="1009.8589082324852" type="curve" smooth="yes"/>
      <point x="961.0153245276746" y="1056.4897879705547"/>
      <point x="947.3737877208896" y="1078.0182271931244"/>
      <point x="902.3446824350942" y="1096.8493015339136" type="curve" smooth="yes"/>
      <point x="777.8579414994891" y="1164.952887559839"/>
      <point x="635.2028087559634" y="1195.0798541681618"/>
      <point x="479.42978909692687" y="1195.0" type="curve" smooth="yes"/>
      <point x="231.55657135245073" y="1195.657313756827"/>
      <point x="49.98807556309704" y="1073.944137143995"/>
    </contour>
  </outline>
</glyph>
<glyph name="T" format="2">
  <advance width="944"/>
  <unicode hex="0054"/>
  <outline>
    <contour>
      <point x="127.03561151079134" y="1173.0" type="line" smooth="yes"/>
      <point x="82.73077835415505" y="1174.0755061197697"/>
      <point x="53.459860911606775" y="1164.3785551299538"/>
      <point x="53.0" y="1115.0" type="curve" smooth="yes"/>
      <point x="53.459860911606775" y="1065.6214448700462"/>
      <point x="82.73077835415505" y="1055.9244938802303"/>
      <point x="127.03561151079134" y="1057.0" type="curve" smooth="yes"/>
      <point x="348.95" y="1057.0" type="line" smooth="yes"/>
      <point x="363.3306103646171" y="1055.6703318244977"/>
      <point x="373.41938375450434" y="1026.395055957514"/>
      <point x="370.95" y="995.0" type="curve" smooth="yes"/>
      <point x="370.95" y="55.0" type="line" smooth="yes"/>
      <point x="371.8930194311979" y="12.736307161738532"/>
      <point x="408.4840535687596" y="3.560162961062849"/>
      <point x="470.95" y="4.0" type="curve" smooth="yes"/>
      <point x="472.95" y="4.0" type="line" smooth="yes"/>
      <point x="535.4159464312404" y="3.5601629610628507"/>
      <point x="572.0069805688021" y="12.736307161738532"/>
      <point x="572.95" y="55.0" type="curve" smooth="yes"/>
      <point x="572.95" y="995.0" type="line" smooth="yes"/>
      <point x="570.4806162454958" y="1026.395055957514"/>
      <point x="580.5693896353829" y="1055.6703318244977"/>
      <point x="594.95" y="1057.0" type="curve" smooth="yes"/>
      <point x="816.8643884892087" y="1057.0" type="line" smooth="yes"/>
      <point x="861.169221645845" y="1055.9244938802303"/>
      <point x="890.4401390883933" y="1065.6214448700462"/>
      <point x="890.9000000000001" y="1115.0" type="curve" smooth="yes"/>
      <point x="890.4401390883933" y="1164.3785551299538"/>
      <point x="861.169221645845" y="1174.0755061197697"/>
      <point x="816.8643884892087" y="1173.0" type="curve" smooth="yes"/>
    </contour>
  </outline>
</glyph>
<glyph name="U" format="2">
  <advance width="1046"/>
  <unicode hex="0055"/>
  <outline>
    <contour>
      <point x="886.0" y="1183.0" type="line" smooth="yes"/>
      <point x="823.5340535687596" y="1183.4398370389372"/>
      <point x="786.943019431198" y="1174.2636928382615"/>
      <point x="786.0" y="1132.0" type="curve" smooth="yes"/>
      <point x="786.0" y="433.0" type="line" smooth="yes"/>
      <point x="787.4484826092676" y="220.39236118124313"/>
      <point x="696.5740956696945" y="112.75555208997059"/>
      <point x="523.0" y="112.0" type="curve" smooth="yes"/>
      <point x="349.4259043303054" y="112.75555208997059"/>
      <point x="258.5515173907325" y="220.39236118124313"/>
      <point x="260.0" y="433.0" type="curve" smooth="yes"/>
      <point x="260.0" y="1132.0" type="line" smooth="yes"/>
      <point x="259.05698056880203" y="1174.2636928382615"/>
      <point x="222.46594643124038" y="1183.4398370389372"/>
      <point x="160.0" y="1183.0" type="curve" smooth="yes"/>
      <point x="158.0" y="1183.0" type="line" smooth="yes"/>
      <point x="95.5340535687596" y="1183.4398370389372"/>
      <point x="58.94301943119794" y="1174.2636928382615"/>
      <point x="58.0" y="1132.0" type="curve" smooth="yes"/>
      <point x="58.0" y="413.0" type="line" smooth="yes"/>
      <point x="59.956080652735565" y="133.32750326120643"/>
      <point x="254.59336320071162" y="-8.7520026234804"/>
      <point x="523.0" y="-8.0" type="curve" smooth="yes"/>
      <point x="791.4066367992884" y="-8.7520026234804"/>
      <point x="986.0439193472645" y="133.32750326120643"/>
      <point x="988.0" y="413.0" type="curve" smooth="yes"/>
      <point x="988.0" y="1132.0" type="line" smooth="yes"/>
      <point x="987.056980568802" y="1174.2636928382615"/>
      <point x="950.4659464312404" y="1183.4398370389372"/>
      <point x="888.0" y="1183.0" type="curve" smooth="yes"/>
    </contour>
  </outline>
</glyph>
<glyph name="V" format="2">
  <advance width="1134"/>
  <unicode hex="0056"/>
  <outline>
    <contour>
      <point x="903.4493119579088" y="1146.1171415886583" type="curve" smooth="yes"/>
      <point x="559.2097729346724" y="222.0924151875459" type="line" smooth="yes"/>
      <point x="556.611282970903" y="193.0803167219164"/>
      <point x="577.0220666451366" y="193.0803167219164"/>
      <point x="574.4235766813672" y="222.0924151875459" type="curve" smooth="yes"/>
      <point x="230.18403765813085" y="1146.1171415886583" type="line" smooth="yes"/>
      <point x="210.79510813200957" y="1186.7296560934271"/>
      <point x="162.82256583701664" y="1193.0412372029778"/>
      <point x="103.52569363737013" y="1175.7308869726141" type="curve" smooth="yes"/>
      <point x="44.15385990924999" y="1159.08882803697"/>
      <point x="17.841940699643185" y="1147.6170468509908"/>
      <point x="36.48663764999041" y="1107.9365292784407" type="curve" smooth="yes"/>
      <point x="435.4856918286832" y="47.93517749403679" type="line" smooth="yes"/>
      <point x="457.2084510913002" y="4.5359506518956945"/>
      <point x="504.66260231036347" y="-8.277832623761066"/>
      <point x="566.8166748080198" y="-8.0" type="curve" smooth="yes"/>
      <point x="628.9707473056761" y="-8.277832623761066"/>
      <point x="676.4248985247394" y="4.5359506518956945"/>
      <point x="698.1476577873564" y="47.93517749403679" type="curve" smooth="yes"/>
      <point x="1097.1467119660492" y="1107.9365292784407" type="line" smooth="yes"/>
      <point x="1115.7914089163964" y="1147.6170468509908"/>
      <point x="1089.4794897067895" y="1159.08882803697"/>
      <point x="1030.1076559786695" y="1175.7308869726141" type="curve" smooth="yes"/>
      <point x="970.8107837790229" y="1193.0412372029778"/>
      <point x="922.83824148403" y="1186.7296560934271"/>
    </contour>
  </outline>
</glyph>
<glyph name="W" format="2">
  <advance width="1195"/>
  <unicode hex="0057"/>
  <outline>
    <contour>
      <point x="964.6438243407258" y="1137.234026803186" type="curve" smooth="yes"/>
      <point x="858.6971689137824" y="303.85117529113427" type="line" smooth="yes"/>
      <point x="858.1631423884834" y="273.9734830742994"/>
      <point x="891.0210300008872" y="270.38737771559835"/>
      <point x="886.9929426208364" y="298.61185361546825" type="curve" smooth="yes"/>
      <point x="695.9584901535721" y="840.3475370008554" type="line" smooth="yes"/>
      <point x="683.2361449170629" y="862.6"/>
      <point x="646.9106028916353" y="871.3138550635692"/>
      <point x="597.436144917063" y="871.0" type="curve" smooth="yes"/>
      <point x="547.9616869424906" y="871.3138550635692"/>
      <point x="511.63614491706295" y="862.6"/>
      <point x="498.9137996805538" y="840.3475370008554" type="curve" smooth="yes"/>
      <point x="307.87934721328963" y="298.61185361546825" type="line" smooth="yes"/>
      <point x="303.85125983323877" y="270.38737771559835"/>
      <point x="336.7091474456427" y="273.9734830742994"/>
      <point x="336.17512092034355" y="303.85117529113427" type="curve" smooth="yes"/>
      <point x="230.22846549340017" y="1137.234026803186" type="line" smooth="yes"/>
      <point x="222.4698671889724" y="1180.6591728284645"/>
      <point x="181.82796224391907" y="1188.1196398624045"/>
      <point x="119.43841379464305" y="1182.093365680608" type="curve" smooth="yes"/>
      <point x="57.52432875171106" y="1175.8480889639536"/>
      <point x="22.779628532880984" y="1166.7318579086314"/>
      <point x="29.682135295523796" y="1123.9212582666157" type="curve" smooth="yes"/>
      <point x="178.68127604911243" y="44.91791576676228" type="line" smooth="yes"/>
      <point x="188.54389631908646" y="0.6373975224902448"/>
      <point x="234.27510881236432" y="-8.278591510103972"/>
      <point x="290.436144917063" y="-8.0" type="curve" smooth="yes"/>
      <point x="347.45827862702004" y="-8.380712994404863"/>
      <point x="395.1977530113565" y="6.427492989754629"/>
      <point x="414.950207186174" y="47.66510196508323" type="curve" smooth="yes"/>
      <point x="605.964090773419" y="588.4037596309696" type="line" smooth="yes"/>
      <point x="608.493904252467" y="617.5258616938465"/>
      <point x="586.3783855816589" y="617.5258616938465"/>
      <point x="588.9081990607069" y="588.4037596309696" type="curve" smooth="yes"/>
      <point x="779.922082647952" y="47.66510196508323" type="line" smooth="yes"/>
      <point x="799.6745368227695" y="6.427492989754629"/>
      <point x="847.4140112071059" y="-8.380712994404863"/>
      <point x="904.436144917063" y="-8.0" type="curve" smooth="yes"/>
      <point x="960.5971810217617" y="-8.278591510103972"/>
      <point x="1006.3283935150395" y="0.6373975224902448"/>
      <point x="1016.1910137850135" y="44.91791576676228" type="curve" smooth="yes"/>
      <point x="1165.1901545386022" y="1123.9212582666157" type="line" smooth="yes"/>
      <point x="1172.092661301245" y="1166.7318579086314"/>
      <point x="1137.347961082415" y="1175.8480889639536"/>
      <point x="1075.433876039483" y="1182.093365680608" type="curve" smooth="yes"/>
      <point x="1013.0443275902069" y="1188.1196398624045"/>
      <point x="972.4024226451536" y="1180.6591728284645"/>
    </contour>
  </outline>
</glyph>
<glyph name="X" format="2">
  <advance width="1049"/>
  <unicode hex="0058"/>
  <outline>
    <contour>
      <point x="798.8556858058773" y="1164.2638333819082" type="curve" smooth="yes"/>
      <point x="530.0000228885405" y="757.0918015535545" type="line" smooth="yes"/>
      <point x="525.2175827790643" y="731.2881507996798"/>
      <point x="525.1925060957078" y="731.2448909854496"/>
      <point x="520.3813012668899" y="757.0055774831753" type="curve" smooth="yes"/>
      <point x="250.1658928941643" y="1164.239854390799" type="line" smooth="yes"/>
      <point x="216.124621726351" y="1199.4153391585153"/>
      <point x="165.05453982485713" y="1196.590432006904"/>
      <point x="110.78510278189651" y="1174.2503718112614" type="curve" smooth="yes"/>
      <point x="58.746441971208654" y="1155.3056012423554"/>
      <point x="38.21673847290914" y="1141.2065506721576"/>
      <point x="70.10954124791824" y="1105.9384841778635" type="curve" smooth="yes"/>
      <point x="382.02603874858863" y="652.1412080100544" type="line" smooth="yes"/>
      <point x="392.6110495890262" y="626.5797493175936"/>
      <point x="392.4886507519534" y="582.7222354134312"/>
      <point x="381.77958092258973" y="557.3271807759184" type="curve" smooth="yes"/>
      <point x="47.226920975003495" y="80.97047646681389" type="line" smooth="yes"/>
      <point x="16.21673847290914" y="45.79344932784234"/>
      <point x="35.57654096812452" y="31.61643407959432"/>
      <point x="87.78510278189651" y="12.749628188738674" type="curve" smooth="yes"/>
      <point x="141.7704350280475" y="-9.637280307509583"/>
      <point x="193.124621726351" y="-13.415339158515383"/>
      <point x="227.09709838436413" y="22.815483186506317" type="curve" smooth="yes"/>
      <point x="517.5583499826241" y="454.62425965230676" type="line" smooth="yes"/>
      <point x="522.4727099910656" y="480.2567099045316"/>
      <point x="523.2899704937678" y="480.35460970876636"/>
      <point x="528.2689795937841" y="454.82025656760976" type="curve" smooth="yes"/>
      <point x="822.0007798802745" y="22.85273320699854" type="line" smooth="yes"/>
      <point x="854.9265479728133" y="-13.415339158515383"/>
      <point x="907.1933667277563" y="-9.622669769462405"/>
      <point x="961.2660669172677" y="12.749628188738674" type="curve" smooth="yes"/>
      <point x="1013.5020150233883" y="31.603739462408075"/>
      <point x="1033.8344312262552" y="46.79344932784234"/>
      <point x="1001.7656768120163" y="80.92561718410433" type="curve" smooth="yes"/>
      <point x="666.2976128434743" y="556.7819242757407" type="line" smooth="yes"/>
      <point x="655.5701501825853" y="582.1551373697295"/>
      <point x="655.436036913238" y="625.9961788271077"/>
      <point x="666.0275262943323" y="651.5526446244849" type="curve" smooth="yes"/>
      <point x="978.9300348577838" y="1105.9475449197423" type="line" smooth="yes"/>
      <point x="1010.8344312262551" y="1141.2065506721576"/>
      <point x="990.3047277279557" y="1155.3056012423554"/>
      <point x="938.2660669172677" y="1174.2503718112614" type="curve" smooth="yes"/>
      <point x="883.9966298743071" y="1196.590432006904"/>
      <point x="832.9265479728133" y="1199.4153391585153"/>
    </contour>
  </outline>
</glyph>
<glyph name="Y" format="2">
  <advance width="894"/>
  <unicode hex="0059"/>
  <outline>
    <contour>
      <point x="703.409565201171" y="1165.4467539590964" type="curve" smooth="yes"/>
      <point x="446.6925411185376" y="681.8510513280247" type="line" smooth="yes"/>
      <point x="443.12149336494" y="654.3639645749413"/>
      <point x="451.15315199027157" y="654.3530471278983"/>
      <point x="447.5743206665127" y="681.8304052238112" type="curve" smooth="yes"/>
      <point x="190.49781982419836" y="1165.4542666015311" type="line" smooth="yes"/>
      <point x="169.65670309874275" y="1195.0452640220353"/>
      <point x="121.69690849445419" y="1196.5774378268086"/>
      <point x="77.28988523827415" y="1174.9927017949615" type="curve" smooth="yes"/>
      <point x="31.264062558392055" y="1153.6976074535235"/>
      <point x="19.9110388146982" y="1138.9812867160285"/>
      <point x="42.070605527660305" y="1102.2917303498868" type="curve" smooth="yes"/>
      <point x="327.1457008061121" y="535.9122254012045" type="line" smooth="yes"/>
      <point x="337.1154704651525" y="511.2788749249842"/>
      <point x="346.23324058222425" y="466.24350331350473"/>
      <point x="345.95000000000005" y="438.7426452636719" type="curve" smooth="yes"/>
      <point x="345.95000000000005" y="55.0" type="line" smooth="yes"/>
      <point x="346.893019431198" y="12.736307161738532"/>
      <point x="383.48405356875963" y="3.560162961062849"/>
      <point x="445.95000000000005" y="4.0" type="curve" smooth="yes"/>
      <point x="447.95000000000005" y="4.0" type="line" smooth="yes"/>
      <point x="510.41594643124046" y="3.560162961062849"/>
      <point x="547.0069805688021" y="12.736307161738532"/>
      <point x="547.95" y="55.0" type="curve" smooth="yes"/>
      <point x="547.95" y="439.4532470703125" type="line" smooth="yes"/>
      <point x="547.6662012170212" y="466.9561237216917"/>
      <point x="556.7913439473967" y="511.98901429284706"/>
      <point x="566.7689150650247" y="536.6185673134073" type="curve" smooth="yes"/>
      <point x="851.8242775630487" y="1102.2972042084914" type="line" smooth="yes"/>
      <point x="873.988961185302" y="1138.9812867160285"/>
      <point x="862.6359374416079" y="1153.6976074535235"/>
      <point x="816.6101147617259" y="1174.9927017949615" type="curve" smooth="yes"/>
      <point x="772.2900466212303" y="1196.5914077701411"/>
      <point x="725.0118505842223" y="1195.0452640220353"/>
    </contour>
  </outline>
</glyph>
<glyph name="Z" format="2">
  <advance width="1016"/>
  <unicode hex="005A"/>
  <outline>
    <contour>
      <point x="151.0" y="1173.0" type="line" smooth="yes"/>
      <point x="98.13294255690218" y="1173.6562602599763"/>
      <point x="62.77629499622137" y="1163.6045012494912"/>
      <point x="62.0" y="1115.0" type="curve" smooth="yes"/>
      <point x="62.77629499622137" y="1066.3954987505088"/>
      <point x="98.13294255690218" y="1056.3437397400237"/>
      <point x="151.0" y="1057.0" type="curve" smooth="yes"/>
      <point x="668.5021362304688" y="1057.0" type="line" smooth="yes"/>
      <point x="681.8048506969158" y="1055.3809427650451"/>
      <point x="677.9005920915628" y="1022.781150829307"/>
      <point x="667.8881470871555" y="995.5117570672106" type="curve" smooth="yes"/>
      <point x="54.569520549015465" y="103.07281922019851" type="line" smooth="yes"/>
      <point x="45.31484358530727" y="92.1595528349542"/>
      <point x="36.473723884652685" y="83.33969330807794"/>
      <point x="36.0" y="68.0" type="curve" smooth="yes"/>
      <point x="36.86566407560069" y="21.582495844427957"/>
      <point x="72.85725067466817" y="13.461335266971524"/>
      <point x="125.0" y="14.0" type="curve" smooth="yes"/>
      <point x="891.0" y="14.0" type="line" smooth="yes"/>
      <point x="943.8670574430978" y="13.343739740023597"/>
      <point x="979.2237050037786" y="23.39549875050866"/>
      <point x="980.0" y="72.0" type="curve" smooth="yes"/>
      <point x="979.2237050037786" y="120.60450124949134"/>
      <point x="943.8670574430978" y="130.6562602599764"/>
      <point x="891.0" y="130.0" type="curve" smooth="yes"/>
      <point x="330.5" y="130.0" type="line" smooth="yes"/>
      <point x="317.19701206436525" y="131.61897950661847"/>
      <point x="321.10432016851354" y="164.21921789705124"/>
      <point x="331.11847352776266" y="191.48541588198856" type="curve" smooth="yes"/>
      <point x="947.4237107135178" y="1087.9324837152665" type="line" smooth="yes"/>
      <point x="956.8438214625841" y="1095.5821655598022"/>
      <point x="961.8619866394903" y="1104.440588115197"/>
      <point x="962.0" y="1119.0" type="curve" smooth="yes"/>
      <point x="961.1343359243994" y="1165.417504155572"/>
      <point x="925.1427493253318" y="1173.5386647330286"/>
      <point x="873.0" y="1173.0" type="curve" smooth="yes"/>
    </contour>
  </outline>
</glyph>
<glyph name="bracketleft" format="2">
  <advance width="681"/>
  <unicode hex="005B"/>
  <outline>
    <contour>
      <point x="144.0" y="1358.0" type="line" smooth="yes"/>
      <point x="91.85725067466817" y="1358.5386647330286"/>
      <point x="55.86566407560069" y="1350.417504155572"/>
      <point x="55.0" y="1304.0" type="curve" smooth="yes"/>
      <point x="55.0" y="-265.0" type="line" smooth="yes"/>
      <point x="55.86566407560069" y="-311.41750415557203"/>
      <point x="91.85725067466817" y="-319.5386647330285"/>
      <point x="144.0" y="-319.0" type="curve" smooth="yes"/>
      <point x="558.0" y="-319.0" type="line" smooth="yes"/>
      <point x="610.8670574430978" y="-319.6562602599764"/>
      <point x="646.2237050037786" y="-309.60450124949136"/>
      <point x="647.0" y="-261.0" type="curve" smooth="yes"/>
      <point x="646.2237050037786" y="-212.39549875050866"/>
      <point x="610.8670574430978" y="-202.3437397400236"/>
      <point x="558.0" y="-203.0" type="curve" smooth="yes"/>
      <point x="279.0" y="-203.0" type="line" smooth="yes"/>
      <point x="264.61938963538296" y="-201.67033182449765"/>
      <point x="254.53061624549565" y="-172.3950559575139"/>
      <point x="257.0" y="-141.0" type="curve" smooth="yes"/>
      <point x="257.0" y="1180.0" type="line" smooth="yes"/>
      <point x="254.53061624549565" y="1211.395055957514"/>
      <point x="264.61938963538296" y="1240.6703318244977"/>
      <point x="279.0" y="1242.0" type="curve" smooth="yes"/>
      <point x="558.0" y="1242.0" type="line" smooth="yes"/>
      <point x="610.8670574430978" y="1241.3437397400237"/>
      <point x="646.2237050037786" y="1251.3954987505088"/>
      <point x="647.0" y="1300.0" type="curve" smooth="yes"/>
      <point x="646.2237050037786" y="1348.6045012494912"/>
      <point x="610.8670574430978" y="1358.6562602599763"/>
      <point x="558.0" y="1358.0" type="curve" smooth="yes"/>
    </contour>
  </outline>
</glyph>
<glyph name="backslash" format="2">
  <advance width="1017"/>
  <unicode hex="005C"/>
  <outline>
    <contour>
      <point x="71.3477486204003" y="1329.2975616391707" type="curve" smooth="yes"/>
      <point x="743.3516358216895" y="-313.69732104039275" type="line" smooth="yes"/>
      <point x="757.2484667026343" y="-330.53985520075713"/>
      <point x="793.6873361320274" y="-341.47672727895457"/>
      <point x="832.4144743478536" y="-341.0" type="curve" smooth="yes"/>
      <point x="902.5572236731854" y="-341.5386647330285"/>
      <point x="961.7875314201075" y="-320.1253885855492"/>
      <point x="945.4812000753069" y="-290.2975616391707" type="curve" smooth="yes"/>
      <point x="273.47731287401774" y="1352.6973210403928" type="line" smooth="yes"/>
      <point x="259.58048199307285" y="1369.539855200757"/>
      <point x="223.14161256367976" y="1380.4767272789545"/>
      <point x="184.4144743478536" y="1380.0" type="curve" smooth="yes"/>
      <point x="114.27172502252176" y="1380.5386647330286"/>
      <point x="55.0414172755997" y="1359.1253885855492"/>
    </contour>
  </outline>
</glyph>
<glyph name="asciicircum" format="2">
  <advance width="921"/>
  <unicode hex="005E"/>
  <outline>
    <contour>
      <point x="369.68019419669724" y="1165.522006953457" type="curve" smooth="yes"/>
      <point x="61.67687389790651" y="574.5254334325889" type="line" smooth="yes"/>
      <point x="41.007845637001154" y="549.0434522263997"/>
      <point x="80.30057266378337" y="531.9880783197046"/>
      <point x="121.81770855504767" y="522.3360870019552" type="curve" smooth="yes"/>
      <point x="162.82273099017326" y="510.9122384262232"/>
      <point x="221.6743909806557" y="512.4350470041833"/>
      <point x="247.0291450461377" y="533.2126807460995" type="curve" smooth="yes"/>
      <point x="462.791707567078" y="970.1585809110873" type="line" smooth="yes"/>
      <point x="466.07438568200524" y="998.0778585678156"/>
      <point x="455.3844044978702" y="998.0778585678156"/>
      <point x="458.66708261279746" y="970.1585809110873" type="curve" smooth="yes"/>
      <point x="674.4197813008512" y="533.2019434562231" type="line" smooth="yes"/>
      <point x="699.9500990386672" y="511.480792590304"/>
      <point x="762.105333851106" y="509.8814824585101"/>
      <point x="804.782244859632" y="523.1239538081367" type="curve" smooth="yes"/>
      <point x="842.9780777800204" y="533.7104558141166"/>
      <point x="879.4936293826213" y="549.8810914216301"/>
      <point x="859.7891612782792" y="574.5329181362824" type="curve" smooth="yes"/>
      <point x="551.7785959831782" y="1165.522006953457" type="line" smooth="yes"/>
      <point x="536.1928488838716" y="1187.3636567148262"/>
      <point x="505.71005689209096" y="1195.3754154211304"/>
      <point x="460.7293950899377" y="1195.0" type="curve" smooth="yes"/>
      <point x="415.7487332877845" y="1195.3754154211304"/>
      <point x="385.26594129600375" y="1187.3636567148262"/>
    </contour>
  </outline>
</glyph>
<glyph name="underscore" format="2">
  <advance width="1272"/>
  <unicode hex="005F"/>
  <outline>
    <contour>
      <point x="155.0" y="-263.0" type="line" smooth="yes"/>
      <point x="102.13294255690218" y="-262.3437397400236"/>
      <point x="66.77629499622137" y="-272.39549875050864"/>
      <point x="66.0" y="-321.0" type="curve" smooth="yes"/>
      <point x="66.77629499622137" y="-369.60450124949136"/>
      <point x="102.13294255690218" y="-379.6562602599764"/>
      <point x="155.0" y="-379.0" type="curve" smooth="yes"/>
      <point x="1117.0" y="-379.0" type="line" smooth="yes"/>
      <point x="1169.8670574430978" y="-379.6562602599764"/>
      <point x="1205.2237050037786" y="-369.60450124949136"/>
      <point x="1206.0" y="-321.0" type="curve" smooth="yes"/>
      <point x="1205.2237050037786" y="-272.39549875050864"/>
      <point x="1169.8670574430978" y="-262.3437397400236"/>
      <point x="1117.0" y="-263.0" type="curve" smooth="yes"/>
    </contour>
  </outline>
</glyph>
<glyph name="a" format="2">
  <advance width="1013"/>
  <unicode hex="0061"/>
  <outline>
    <contour>
      <point x="171.87112090078642" y="842.616668891712" type="curve" smooth="yes"/>
      <point x="131.61522368914976" y="827.1005050633884"/>
      <point x="110.14285822404344" y="808.4655869832526"/>
      <point x="134.5445102374732" y="767.0403769622561" type="curve" smooth="yes"/>
      <point x="160.13897373580284" y="724.034923088355"/>
      <point x="209.82689137342652" y="716.9170036845612"/>
      <point x="255.83595425444994" y="734.4652414150372" type="curve" smooth="yes"/>
      <point x="349.19294054386927" y="784.0956884281214"/>
      <point x="456.60956413288346" y="814.8644283873318"/>
      <point x="554.0" y="815.0" type="curve" smooth="yes"/>
      <point x="710.4370306741779" y="814.5466418135558"/>
      <point x="759.5088211904811" y="745.6998211381606"/>
      <point x="758.0" y="613.0" type="curve" smooth="yes"/>
      <point x="758.0" y="563.9090393066406" type="line" smooth="yes"/>
      <point x="760.9790785196129" y="538.5611833752306"/>
      <point x="764.3576335553854" y="519.998941080268"/>
      <point x="758.9533746163874" y="526.8026411483262" type="curve" smooth="yes"/>
      <point x="696.1880271166292" y="547.3671839981617"/>
      <point x="590.4322768585918" y="565.0512058178982"/>
      <point x="480.0" y="565.0" type="curve" smooth="yes"/>
      <point x="255.60856927486338" y="565.3043022213045"/>
      <point x="56.59716911254955" y="486.89489505834905"/>
      <point x="53.0" y="270.0" type="curve" smooth="yes"/>
      <point x="55.555391246920195" y="90.05261237566339"/>
      <point x="211.26147937236678" y="-8.634485418166145"/>
      <point x="419.0" y="-8.0" type="curve" smooth="yes"/>
      <point x="568.6108148396396" y="-8.285262948279168"/>
      <point x="703.6483392919221" y="45.568020842029284"/>
      <point x="789.2831307378052" y="115.18363656333307" type="curve" smooth="yes"/>
      <point x="789.9385516654335" y="128.15302307717076"/>
      <point x="770.8694412058967" y="116.2745157569868"/>
      <point x="768.0" y="94.65994262695312" type="curve" smooth="yes"/>
      <point x="768.0" y="55.0" type="line" smooth="yes"/>
      <point x="768.7536131476961" y="12.346266659713656"/>
      <point x="803.0974881346889" y="3.4976244167825605"/>
      <point x="863.0" y="4.0" type="curve" smooth="yes"/>
      <point x="865.0" y="4.0" type="line" smooth="yes"/>
      <point x="924.9025118653111" y="3.4976244167825605"/>
      <point x="959.2463868523039" y="12.346266659713656"/>
      <point x="960.0" y="55.0" type="curve" smooth="yes"/>
      <point x="960.0" y="613.0" type="line" smooth="yes"/>
      <point x="958.3415532813744" y="827.0799586229608"/>
      <point x="816.5438654509139" y="932.602257849659"/>
      <point x="558.0" y="932.0" type="curve" smooth="yes"/>
      <point x="425.847851605391" y="932.1032688564592"/>
      <point x="286.9471502303057" y="900.8760461918633"/>
    </contour>
    <contour>
      <point x="758.0" y="329.87051879882813" type="line" smooth="yes"/>
      <point x="758.7418205691724" y="302.43528148826664"/>
      <point x="746.6910612257653" y="261.9297079345937"/>
      <point x="733.6839090948257" y="241.92525718829356" type="curve" smooth="yes"/>
      <point x="670.9263275911654" y="171.69916462063395"/>
      <point x="561.4199664614354" y="105.40341675181439"/>
      <point x="425.0" y="105.0" type="curve" smooth="yes"/>
      <point x="311.39955549908404" y="105.57894387210665"/>
      <point x="256.61142943782454" y="170.13842136333727"/>
      <point x="259.0" y="273.0" type="curve" smooth="yes"/>
      <point x="254.99537292631" y="401.46509626589915"/>
      <point x="341.5419718401506" y="451.78472572465296"/>
      <point x="481.0" y="452.0" type="curve" smooth="yes"/>
      <point x="581.8532329720196" y="451.9628998081988"/>
      <point x="686.7575166865923" y="436.335432080952"/>
      <point x="737.2938445019536" y="418.5811238706705" type="curve" smooth="yes"/>
      <point x="749.3492530309835" y="409.43890159534686"/>
      <point x="759.779695086654" y="378.68256007598933"/>
      <point x="758.0" y="352.04066978890575" type="curve" smooth="yes"/>
    </contour>
  </outline>
</glyph>
<glyph name="b" format="2">
  <advance width="1033"/>
  <unicode hex="0062"/>
  <outline>
    <contour>
      <point x="142.0" y="1308.0" type="line" smooth="yes"/>
      <point x="79.5340535687596" y="1308.4398370389372"/>
      <point x="42.94301943119794" y="1299.2636928382615"/>
      <point x="42.0" y="1257.0" type="curve" smooth="yes"/>
      <point x="42.0" y="55.0" type="line" smooth="yes"/>
      <point x="42.753613147696086" y="12.346266659713656"/>
      <point x="77.09748813468883" y="3.4976244167825605"/>
      <point x="137.0" y="4.0" type="curve" smooth="yes"/>
      <point x="139.0" y="4.0" type="line" smooth="yes"/>
      <point x="198.90251186531117" y="3.4976244167825605"/>
      <point x="233.2463868523039" y="12.346266659713656"/>
      <point x="234.0" y="55.0" type="curve" smooth="yes"/>
      <point x="234.0" y="108.94" type="line" smooth="yes"/>
      <point x="231.65653553902538" y="135.45040817447347"/>
      <point x="206.9517712361168" y="145.78736491751292"/>
      <point x="211.1223835370261" y="125.51293380734634" type="curve" smooth="yes"/>
      <point x="273.55643409061526" y="51.84447555727983"/>
      <point x="395.5249329649239" y="-8.441098943644105"/>
      <point x="535.0" y="-8.0" type="curve" smooth="yes"/>
      <point x="792.1342726520184" y="-9.107286271100888"/>
      <point x="989.3196894511595" y="164.95129087522812"/>
      <point x="991.0" y="462.0" type="curve" smooth="yes"/>
      <point x="989.3196894511595" y="759.0487091247719"/>
      <point x="792.1342726520184" y="933.1072862711009"/>
      <point x="535.0" y="932.0" type="curve" smooth="yes"/>
      <point x="395.32056993507547" y="932.4698724325888"/>
      <point x="281.46411573495476" y="872.1963018475295"/>
      <point x="227.16452803743937" y="810.129004940548" type="curve" smooth="yes"/>
      <point x="220.04742428380632" y="786.2970133487617"/>
      <point x="241.6182826872234" y="797.7064321190098"/>
      <point x="244.0" y="829.0" type="curve" smooth="yes"/>
      <point x="244.0" y="1257.0" type="line" smooth="yes"/>
      <point x="243.05698056880206" y="1299.2636928382615"/>
      <point x="206.46594643124038" y="1308.4398370389372"/>
      <point x="144.0" y="1308.0" type="curve" smooth="yes"/>
    </contour>
    <contour>
      <point x="785.0" y="462.0" type="curve" smooth="yes"/>
      <point x="786.1835205710893" y="261.82415009609673"/>
      <point x="694.5688223977744" y="113.42570463755185"/>
      <point x="525.0" y="112.0" type="curve" smooth="yes"/>
      <point x="357.73733765378444" y="113.0188966389685"/>
      <point x="242.24833765965576" y="244.94826298757172"/>
      <point x="244.0" y="462.0" type="curve" smooth="yes"/>
      <point x="242.24833765965576" y="679.0517370124282"/>
      <point x="357.73733765378444" y="810.9811033610315"/>
      <point x="525.0" y="812.0" type="curve" smooth="yes"/>
      <point x="694.5688223977744" y="810.5742953624482"/>
      <point x="786.1835205710893" y="662.1758499039032"/>
    </contour>
  </outline>
</glyph>
<glyph name="c" format="2">
  <advance width="1062"/>
  <unicode hex="0063"/>
  <outline>
    <contour>
      <point x="42.0" y="462.0" type="curve" smooth="yes"/>
      <point x="43.79803082476456" y="190.1158008587195"/>
      <point x="247.74015536946433" y="-9.136114536073075"/>
      <point x="550.0" y="-8.0" type="curve" smooth="yes"/>
      <point x="706.1373886899149" y="-8.17839382709757"/>
      <point x="865.4837846533189" y="39.56038946456754"/>
      <point x="977.2924641395512" y="117.32230518024464" type="curve" smooth="yes"/>
      <point x="1018.2508147483475" y="139.06619828405118"/>
      <point x="1030.276530705921" y="163.72037599737817"/>
      <point x="999.3562233398591" y="206.8524574418239" type="curve" smooth="yes"/>
      <point x="962.7297493950637" y="251.46341306120885"/>
      <point x="902.9451064174825" y="245.08927865440057"/>
      <point x="870.1312083085369" y="225.91002610105605" type="curve" smooth="yes"/>
      <point x="779.0286057698004" y="151.5723156224262"/>
      <point x="667.9504455526347" y="112.1708535370341"/>
      <point x="550.0" y="112.0" type="curve" smooth="yes"/>
      <point x="365.374950008955" y="113.16290964522098"/>
      <point x="250.2725669660528" y="261.98211355990253"/>
      <point x="252.0" y="462.0" type="curve" smooth="yes"/>
      <point x="250.2725669660528" y="662.0178864400974"/>
      <point x="365.374950008955" y="810.837090354779"/>
      <point x="550.0" y="812.0" type="curve" smooth="yes"/>
      <point x="658.602120965403" y="811.8799302739509"/>
      <point x="758.9676332686406" y="781.6771605025691"/>
      <point x="854.1917914852297" y="712.5074277706562" type="curve" smooth="yes"/>
      <point x="888.0835606785325" y="694.151002477482"/>
      <point x="948.0781493949647" y="689.0021951789262"/>
      <point x="981.0179527660516" y="735.5101280550449" type="curve" smooth="yes"/>
      <point x="1009.5408027269843" y="779.6195695104599"/>
      <point x="994.5044302485526" y="804.3918819556272"/>
      <point x="952.1489687325745" y="824.2545419816128" type="curve" smooth="yes"/>
      <point x="836.6132861083779" y="896.2195253995617"/>
      <point x="695.4546032072241" y="932.124130153104"/>
      <point x="550.0" y="932.0" type="curve" smooth="yes"/>
      <point x="247.74015536946433" y="933.136114536073"/>
      <point x="43.79803082476456" y="733.8841991412805"/>
    </contour>
  </outline>
</glyph>
<glyph name="d" format="2">
  <advance width="1033"/>
  <unicode hex="0064"/>
  <outline>
    <contour>
      <point x="889.0" y="1308.0" type="line" smooth="yes"/>
      <point x="826.5340535687596" y="1308.4398370389372"/>
      <point x="789.943019431198" y="1299.2636928382615"/>
      <point x="789.0" y="1257.0" type="curve" smooth="yes"/>
      <point x="789.0" y="829.0" type="line" smooth="yes"/>
      <point x="791.3817173127766" y="797.7064321190098"/>
      <point x="812.9525757161937" y="786.2970133487617"/>
      <point x="805.8354719625606" y="810.129004940548" type="curve" smooth="yes"/>
      <point x="751.5358842650453" y="872.1963018475295"/>
      <point x="637.6794300649245" y="932.4698724325888"/>
      <point x="498.0" y="932.0" type="curve" smooth="yes"/>
      <point x="240.86572734798162" y="933.1072862711009"/>
      <point x="43.68031054884047" y="759.0487091247719"/>
      <point x="42.0" y="462.0" type="curve" smooth="yes"/>
      <point x="43.68031054884047" y="164.95129087522812"/>
      <point x="240.86572734798162" y="-9.107286271100888"/>
      <point x="498.0" y="-8.0" type="curve" smooth="yes"/>
      <point x="637.4750670350761" y="-8.441098943644105"/>
      <point x="759.4435659093847" y="51.84447555727983"/>
      <point x="821.8776164629738" y="125.51293380734634" type="curve" smooth="yes"/>
      <point x="826.0482287638831" y="145.78736491751292"/>
      <point x="801.3434644609747" y="135.45040817447347"/>
      <point x="799.0" y="108.94" type="curve" smooth="yes"/>
      <point x="799.0" y="55.0" type="line" smooth="yes"/>
      <point x="799.7536131476961" y="12.346266659713656"/>
      <point x="834.0974881346889" y="3.4976244167825605"/>
      <point x="894.0" y="4.0" type="curve" smooth="yes"/>
      <point x="896.0" y="4.0" type="line" smooth="yes"/>
      <point x="955.9025118653111" y="3.4976244167825605"/>
      <point x="990.2463868523039" y="12.346266659713656"/>
      <point x="991.0" y="55.0" type="curve" smooth="yes"/>
      <point x="991.0" y="1257.0" type="line" smooth="yes"/>
      <point x="990.056980568802" y="1299.2636928382615"/>
      <point x="953.4659464312404" y="1308.4398370389372"/>
      <point x="891.0" y="1308.0" type="curve" smooth="yes"/>
    </contour>
    <contour>
      <point x="789.0" y="462.0" type="curve" smooth="yes"/>
      <point x="790.7516623403442" y="244.94826298757172"/>
      <point x="675.2626623462155" y="113.0188966389685"/>
      <point x="508.0" y="112.0" type="curve" smooth="yes"/>
      <point x="338.4311776022256" y="113.42570463755185"/>
      <point x="246.81647942891078" y="261.82415009609673"/>
      <point x="248.0" y="462.0" type="curve" smooth="yes"/>
      <point x="246.81647942891078" y="662.1758499039032"/>
      <point x="338.4311776022256" y="810.5742953624482"/>
      <point x="508.0" y="812.0" type="curve" smooth="yes"/>
      <point x="675.2626623462155" y="810.9811033610315"/>
      <point x="790.7516623403442" y="679.0517370124282"/>
    </contour>
  </outline>
</glyph>
<glyph name="e" format="2">
  <advance width="1077"/>
  <unicode hex="0065"/>
  <outline>
    <contour>
      <point x="42.0" y="462.0" type="curve" smooth="yes"/>
      <point x="43.359807205913704" y="165.46828670979855"/>
      <point x="221.29815667057076" y="-9.01119335677506"/>
      <point x="523.0" y="-8.0" type="curve" smooth="yes"/>
      <point x="681.0911868661747" y="-8.099298978096055"/>
      <point x="840.3078149207865" y="28.266059900035753"/>
      <point x="947.3034757116105" y="77.6077229091041" type="curve" smooth="yes"/>
      <point x="994.8522118570567" y="95.17818413569745"/>
      <point x="1015.9649890431992" y="115.27370660019024"/>
      <point x="997.419259918596" y="157.1929000325675" type="curve" smooth="yes"/>
      <point x="977.1985072685811" y="200.8939933187031"/>
      <point x="924.0" y="217.0"/>
      <point x="870.1557554021523" y="196.82760819650125" type="curve" smooth="yes"/>
      <point x="782.7530645752801" y="142.9153382451638"/>
      <point x="653.8341423172769" y="109.10417245555355"/>
      <point x="523.0" y="109.0" type="curve" smooth="yes"/>
      <point x="346.6003774997217" y="109.78810786807462"/>
      <point x="255.73520264090826" y="219.28519641417205"/>
      <point x="250.36456642413077" y="376.36076109664896" type="curve" smooth="yes"/>
      <point x="247.0931005605796" y="407.8958421603723"/>
      <point x="255.82425872349293" y="437.6178954572395"/>
      <point x="270.0" y="439.0" type="curve" smooth="yes"/>
      <point x="946.0" y="439.0" type="line" smooth="yes"/>
      <point x="997.4852901368645" y="438.55748435851297"/>
      <point x="1036.9690018955941" y="445.90334272809537"/>
      <point x="1034.9565611676321" y="486.19106438112254" type="curve" smooth="yes"/>
      <point x="1018.3987356325207" y="748.1627779029208"/>
      <point x="850.2291070581526" y="933.1290191380679"/>
      <point x="543.0" y="932.0" type="curve" smooth="yes"/>
      <point x="254.21283657503062" y="933.0297654890302"/>
      <point x="43.90103239952964" y="747.7451075098784"/>
    </contour>
    <contour>
      <point x="812.6336121031595" y="614.7539315241825" type="curve" smooth="yes"/>
      <point x="817.8988630264952" y="583.2596001357921"/>
      <point x="812.7081222121053" y="552.5062644964015"/>
      <point x="799.0" y="551.0" type="curve" smooth="yes"/>
      <point x="280.0" y="551.0" type="line" smooth="yes"/>
      <point x="266.3947987417939" y="552.5344404877054"/>
      <point x="262.12192785732026" y="583.524760422701"/>
      <point x="267.88246298515537" y="614.9009168927855" type="curve" smooth="yes"/>
      <point x="286.1905109068222" y="720.112066448106"/>
      <point x="384.9274007645924" y="814.3333810612764"/>
      <point x="543.0" y="815.0" type="curve" smooth="yes"/>
      <point x="711.2653369069944" y="814.3661619818308"/>
      <point x="797.0141632802307" y="722.4732367467175"/>
    </contour>
  </outline>
</glyph>
<glyph name="f" format="2">
  <advance width="653"/>
  <unicode hex="0066"/>
  <outline>
    <contour>
      <point x="309.52403639047066" y="1304.6965645315468"/>
      <point x="169.51188613110807" y="1181.1914747903961"/>
      <point x="167.93017821112835" y="967.0" type="curve" smooth="yes"/>
      <point x="167.93017821112835" y="55.0" type="line" smooth="yes"/>
      <point x="168.8731976423263" y="12.736307161738532"/>
      <point x="205.46423177988797" y="3.560162961062849"/>
      <point x="267.93017821112835" y="4.0" type="curve" smooth="yes"/>
      <point x="269.93017821112835" y="4.0" type="line" smooth="yes"/>
      <point x="332.39612464236876" y="3.560162961062849"/>
      <point x="368.9871587799304" y="12.736307161738532"/>
      <point x="369.93017821112835" y="55.0" type="curve" smooth="yes"/>
      <point x="369.93017821112835" y="954.0" type="line" smooth="yes"/>
      <point x="369.72295608344626" y="1092.7640356364964"/>
      <point x="388.6301785418658" y="1181.5282199301391"/>
      <point x="435.20181038985606" y="1185.0" type="curve" smooth="yes"/>
      <point x="464.24954887795445" y="1184.5346715559317"/>
      <point x="492.3311225882554" y="1163.542704576891"/>
      <point x="525.4007355177177" y="1132.6450168550682" type="curve" smooth="yes"/>
      <point x="562.1720146357668" y="1121.8637947132252"/>
      <point x="595.8915132254526" y="1129.575495123981"/>
      <point x="601.5767150796049" y="1174.4879399955864" type="curve" smooth="yes"/>
      <point x="606.6901863183551" y="1218.75358012785"/>
      <point x="597.2616546363738" y="1243.3635511290995"/>
      <point x="572.2600769694978" y="1255.3466154783448" type="curve" smooth="yes"/>
      <point x="533.5087975311671" y="1285.2952316134008"/>
      <point x="483.694020343657" y="1303.380346227183"/>
      <point x="435.20181038985606" y="1303.0" type="curve" smooth="yes"/>
    </contour>
    <contour>
      <point x="104.46590508544477" y="830.0" type="line" smooth="yes"/>
      <point x="69.18606750076242" y="832.5447354033055"/>
      <point x="50.16430856184355" y="822.4285548284287"/>
      <point x="50.0" y="772.0" type="curve" smooth="yes"/>
      <point x="50.16430856184355" y="721.5714451715713"/>
      <point x="69.18606750076242" y="711.4552645966945"/>
      <point x="104.46590508544477" y="714.0" type="curve" smooth="yes"/>
      <point x="500.2667362994441" y="714.0" type="line" smooth="yes"/>
      <point x="535.5465738841265" y="711.4552645966945"/>
      <point x="554.5683328230454" y="721.5714451715713"/>
      <point x="554.7326413848889" y="772.0" type="curve" smooth="yes"/>
      <point x="554.5683328230454" y="822.4285548284287"/>
      <point x="535.5465738841265" y="832.5447354033055"/>
      <point x="500.2667362994441" y="830.0" type="curve" smooth="yes"/>
    </contour>
  </outline>
</glyph>
<glyph name="g" format="2">
  <advance width="1017"/>
  <unicode hex="0067"/>
  <outline>
    <contour>
      <point x="34.0" y="487.0" type="curve" smooth="yes"/>
      <point x="35.848735074668454" y="205.18481152494547"/>
      <point x="233.3438424147933" y="40.99867367239363"/>
      <point x="490.0" y="42.0" type="curve" smooth="yes"/>
      <point x="629.0556416879897" y="41.61497847799028"/>
      <point x="743.8502091983704" y="96.09767621873064"/>
      <point x="797.3834779378665" y="155.2135965200832" type="curve" smooth="yes"/>
      <point x="804.549382454176" y="178.89004187937627"/>
      <point x="783.4096959726518" y="167.32618894947444"/>
      <point x="781.0" y="136.0" type="curve" smooth="yes"/>
      <point x="781.0" y="-17.0" type="line" smooth="yes"/>
      <point x="782.5624600372196" y="-168.78009023447794"/>
      <point x="709.3559051569284" y="-275.20361739765883"/>
      <point x="529.0" y="-276.0" type="curve" smooth="yes"/>
      <point x="423.7218043974691" y="-275.9230763408997"/>
      <point x="307.8122270742358" y="-251.5109170305677"/>
      <point x="208.71025135902494" y="-215.19100566390796" type="curve" smooth="yes"/>
      <point x="165.58069969732523" y="-203.99817933544975"/>
      <point x="116.8429297486249" y="-211.13733471206734"/>
      <point x="96.35874013071246" y="-257.4665802352555" type="curve" smooth="yes"/>
      <point x="78.0506329594449" y="-304.87329600617255"/>
      <point x="98.87888019541853" y="-322.4639262741037"/>
      <point x="143.10169138382992" y="-332.8454374723192" type="curve" smooth="yes"/>
      <point x="260.57605564154954" y="-374.434050194955"/>
      <point x="400.8244501816966" y="-396.04909661969083"/>
      <point x="529.0" y="-396.0" type="curve" smooth="yes"/>
      <point x="808.1353252911539" y="-396.7029816845078"/>
      <point x="981.029826855801" y="-263.65409317519726"/>
      <point x="983.0" y="-30.0" type="curve" smooth="yes"/>
      <point x="983.0" y="869.0" type="line" smooth="yes"/>
      <point x="982.2463868523039" y="911.6537333402863"/>
      <point x="947.9025118653111" y="920.5023755832175"/>
      <point x="888.0" y="920.0" type="curve" smooth="yes"/>
      <point x="886.0" y="920.0" type="line" smooth="yes"/>
      <point x="826.0974881346889" y="920.5023755832175"/>
      <point x="791.7536131476961" y="911.6537333402863"/>
      <point x="791.0" y="869.0" type="curve" smooth="yes"/>
      <point x="791.0" y="815.06" type="line" smooth="yes"/>
      <point x="793.3434644609747" y="788.5495918255265"/>
      <point x="818.0482287638831" y="778.2126350824872"/>
      <point x="813.8776164629738" y="798.4870661926537" type="curve" smooth="yes"/>
      <point x="751.4435659093847" y="872.1555244427202"/>
      <point x="629.4750670350761" y="932.4410989436441"/>
      <point x="490.0" y="932.0" type="curve" smooth="yes"/>
      <point x="233.3438424147933" y="933.0013263276064"/>
      <point x="35.848735074668454" y="768.8151884750545"/>
    </contour>
    <contour>
      <point x="781.0" y="487.0" type="curve" smooth="yes"/>
      <point x="783.011425930916" y="284.60064249248916"/>
      <point x="667.9491436405608" y="162.87564755976064"/>
      <point x="500.0" y="162.0" type="curve" smooth="yes"/>
      <point x="329.7588765518308" y="163.25486931552354"/>
      <point x="238.63389913698035" y="301.5216631546672"/>
      <point x="240.0" y="487.0" type="curve" smooth="yes"/>
      <point x="238.63389913698035" y="672.4783368453328"/>
      <point x="329.7588765518308" y="810.7451306844765"/>
      <point x="500.0" y="812.0" type="curve" smooth="yes"/>
      <point x="667.9491436405608" y="811.1243524402394"/>
      <point x="783.011425930916" y="689.3993575075109"/>
    </contour>
  </outline>
</glyph>
<glyph name="h" format="2">
  <advance width="1010"/>
  <unicode hex="0068"/>
  <outline>
    <contour>
      <point x="158.0" y="1308.0" type="line" smooth="yes"/>
      <point x="95.5340535687596" y="1308.4398370389372"/>
      <point x="58.94301943119794" y="1299.2636928382615"/>
      <point x="58.0" y="1257.0" type="curve" smooth="yes"/>
      <point x="58.0" y="55.0" type="line" smooth="yes"/>
      <point x="58.94301943119794" y="12.736307161738532"/>
      <point x="95.5340535687596" y="3.560162961062849"/>
      <point x="158.0" y="4.0" type="curve" smooth="yes"/>
      <point x="160.0" y="4.0" type="line" smooth="yes"/>
      <point x="222.46594643124038" y="3.560162961062849"/>
      <point x="259.05698056880203" y="12.736307161738532"/>
      <point x="260.0" y="55.0" type="curve" smooth="yes"/>
      <point x="260.0" y="392.0" type="line" smooth="yes"/>
      <point x="257.571133588076" y="625.90841412221"/>
      <point x="434.5238529376295" y="810.5497447721808"/>
      <point x="594.0" y="812.0" type="curve" smooth="yes"/>
      <point x="712.7580982369417" y="810.8680304202528"/>
      <point x="750.928170491976" y="723.7073131715731"/>
      <point x="750.0" y="605.0" type="curve" smooth="yes"/>
      <point x="750.0" y="55.0" type="line" smooth="yes"/>
      <point x="750.943019431198" y="12.736307161738532"/>
      <point x="787.5340535687596" y="3.560162961062849"/>
      <point x="850.0" y="4.0" type="curve" smooth="yes"/>
      <point x="852.0" y="4.0" type="line" smooth="yes"/>
      <point x="914.4659464312404" y="3.560162961062849"/>
      <point x="951.056980568802" y="12.736307161738532"/>
      <point x="952.0" y="55.0" type="curve" smooth="yes"/>
      <point x="952.0" y="620.0" type="line" smooth="yes"/>
      <point x="950.5660520881995" y="815.4148779608859"/>
      <point x="822.6035699974854" y="932.9900355162271"/>
      <point x="609.0" y="932.0" type="curve" smooth="yes"/>
      <point x="466.0409302115321" y="932.6720902358792"/>
      <point x="308.8795545634226" y="844.4636085540728"/>
      <point x="239.54577246121218" y="751.7810713229733" type="curve" smooth="yes"/>
      <point x="232.80167357657757" y="726.8122678122268"/>
      <point x="257.861467302681" y="736.9997391987907"/>
      <point x="260.0" y="768.0" type="curve" smooth="yes"/>
      <point x="260.0" y="1257.0" type="line" smooth="yes"/>
      <point x="259.05698056880203" y="1299.2636928382615"/>
      <point x="222.46594643124038" y="1308.4398370389372"/>
      <point x="160.0" y="1308.0" type="curve" smooth="yes"/>
    </contour>
  </outline>
</glyph>
<glyph name="k" format="2">
  <advance width="956"/>
  <unicode hex="006B"/>
  <outline>
    <contour>
      <point x="715.7091400954405" y="913.5446053039495" type="curve" smooth="yes"/>
      <point x="222.54097913000405" y="474.12701655185606" type="line" smooth="yes"/>
      <point x="214.26540373539584" y="454.1110829644032"/>
      <point x="227.15665645032493" y="468.8415199884489"/>
      <point x="230.0" y="500.6474304199219" type="curve" smooth="yes"/>
      <point x="230.0" y="1257.0" type="line" smooth="yes"/>
      <point x="229.05698056880206" y="1299.2636928382615"/>
      <point x="192.46594643124038" y="1308.4398370389372"/>
      <point x="130.0" y="1308.0" type="curve" smooth="yes"/>
      <point x="128.0" y="1308.0" type="line" smooth="yes"/>
      <point x="65.5340535687596" y="1308.4398370389372"/>
      <point x="28.94301943119794" y="1299.2636928382615"/>
      <point x="28.0" y="1257.0" type="curve" smooth="yes"/>
      <point x="28.0" y="55.0" type="line" smooth="yes"/>
      <point x="28.94301943119794" y="12.736307161738532"/>
      <point x="65.5340535687596" y="3.560162961062849"/>
      <point x="128.0" y="4.0" type="curve" smooth="yes"/>
      <point x="130.0" y="4.0" type="line" smooth="yes"/>
      <point x="192.46594643124038" y="3.560162961062849"/>
      <point x="229.05698056880206" y="12.736307161738532"/>
      <point x="230.0" y="55.0" type="curve" smooth="yes"/>
      <point x="230.0" y="210.556396484375" type="line" smooth="yes"/>
      <point x="229.10563223743367" y="239.63677999689287"/>
      <point x="242.59702407230452" y="281.2027874026616"/>
      <point x="257.21264003595286" y="300.77198339174356" type="curve" smooth="yes"/>
      <point x="365.5325013119092" y="396.0608839126976" type="line" smooth="yes"/>
      <point x="374.7673041888049" y="415.7882425515269"/>
      <point x="389.48339621844144" y="413.4478555474085"/>
      <point x="397.37929438549133" y="391.09763248878426" type="curve" smooth="yes"/>
      <point x="740.7272319042476" y="12.397047278422036" type="line" smooth="yes"/>
      <point x="772.9079144314626" y="-11.337957704838859"/>
      <point x="822.2691685314933" y="-8.91990010940466"/>
      <point x="872.9249118107214" y="17.14760942210458" type="curve" smooth="yes"/>
      <point x="927.883628395054" y="42.62338754747944"/>
      <point x="936.8377047724182" y="55.4102652580806"/>
      <point x="901.1922393678252" y="85.55528717632777" type="curve" smooth="yes"/>
      <point x="548.5081534589144" y="471.3744001697095" type="line" smooth="yes"/>
      <point x="537.0090614434356" y="495.48955800541535"/>
      <point x="537.7516232834209" y="536.6856825546624"/>
      <point x="550.1448307213709" y="558.4642424976562" type="curve" smooth="yes"/>
      <point x="874.1487764129606" y="843.5230246032708" type="line" smooth="yes"/>
      <point x="916.0337222719094" y="868.3408271715355"/>
      <point x="902.152969110681" y="886.5322019024123"/>
      <point x="849.3029928171729" y="911.9713141870845" type="curve" smooth="yes"/>
      <point x="801.0579642905669" y="935.5257045361903"/>
      <point x="748.1401911454191" y="933.0457280587506"/>
    </contour>
  </outline>
</glyph>
<glyph name="l" format="2">
  <advance width="491"/>
  <unicode hex="006C"/>
  <outline>
    <contour>
      <point x="91.6463815789474" y="130.0" type="line" smooth="yes"/>
      <point x="59.99238656488542" y="135.3736649659744"/>
      <point x="50.049970840942045" y="123.1324272260525"/>
      <point x="50.0" y="72.0" type="curve" smooth="yes"/>
      <point x="50.049970840942045" y="20.867572773947497"/>
      <point x="59.99238656488542" y="8.62633503402561"/>
      <point x="91.6463815789474" y="14.0" type="curve" smooth="yes"/>
      <point x="399.1036184210526" y="14.0" type="line" smooth="yes"/>
      <point x="430.7576134351146" y="8.62633503402561"/>
      <point x="440.700029159058" y="20.867572773947497"/>
      <point x="440.75" y="72.0" type="curve" smooth="yes"/>
      <point x="440.700029159058" y="123.1324272260525"/>
      <point x="430.7576134351146" y="135.3736649659744"/>
      <point x="399.1036184210526" y="130.0" type="curve" smooth="yes"/>
      <point x="352.8648355263158" y="130.0" type="line" smooth="yes"/>
      <point x="346.17809917485664" y="131.32966817550235"/>
      <point x="342.9121951928641" y="153.78207463459134"/>
      <point x="345.38157894736844" y="177.48325657894736" type="curve" smooth="yes"/>
      <point x="345.38157894736844" y="1244.0" type="line" smooth="yes"/>
      <point x="344.51591487176773" y="1290.417504155572"/>
      <point x="308.52432827270025" y="1298.5386647330286"/>
      <point x="256.38157894736844" y="1298.0" type="curve" smooth="yes"/>
      <point x="101.58059210526318" y="1298.0" type="line" smooth="yes"/>
      <point x="69.92659709120126" y="1303.3736649659743"/>
      <point x="59.984181367257825" y="1291.1324272260524"/>
      <point x="59.93421052631578" y="1240.0" type="curve" smooth="yes"/>
      <point x="59.984181367257825" y="1188.8675727739476"/>
      <point x="69.92659709120126" y="1176.6263350340257"/>
      <point x="101.58059210526318" y="1182.0" type="curve" smooth="yes"/>
      <point x="140.90516447368418" y="1182.0" type="line" smooth="yes"/>
      <point x="144.9382745093539" y="1180.6703318244977"/>
      <point x="145.8509627018728" y="1160.5711411548823"/>
      <point x="143.38157894736844" y="1139.5235855263159" type="curve" smooth="yes"/>
      <point x="143.38157894736844" y="176.64878289473683" type="line" smooth="yes"/>
      <point x="145.8509627018728" y="153.3898720030124"/>
      <point x="142.97726135145916" y="131.32966817550235"/>
      <point x="136.73279605263156" y="130.0" type="curve" smooth="yes"/>
    </contour>
  </outline>
</glyph>
<glyph name="m" format="2">
  <advance width="1156"/>
  <unicode hex="006D"/>
  <outline>
    <contour>
      <point x="632.8522443433835" y="801.8943231972198" type="curve" smooth="yes"/>
      <point x="628.5124280475521" y="774.3998177021421"/>
      <point x="651.5223634648861" y="778.8652128405442"/>
      <point x="650.9184238175085" y="809.2497126538748" type="curve" smooth="yes"/>
      <point x="631.4743117130517" y="880.1072863779292"/>
      <point x="542.7161805680538" y="932.8101299361414"/>
      <point x="447.0" y="932.0" type="curve" smooth="yes"/>
      <point x="347.44214152308973" y="932.7801051270932"/>
      <point x="251.21320540867913" y="876.5905275442519"/>
      <point x="207.08584604872885" y="743.5041033451149" type="curve"/>
      <point x="240.0" y="869.0" type="line" smooth="yes"/>
      <point x="239.41712631051436" y="912.0522149367688"/>
      <point x="207.39955549908404" y="920.5789438721066"/>
      <point x="150.0" y="920.0" type="curve" smooth="yes"/>
      <point x="148.0" y="920.0" type="line" smooth="yes"/>
      <point x="90.60044450091594" y="920.5789438721066"/>
      <point x="58.58287368948564" y="912.0522149367688"/>
      <point x="58.0" y="869.0" type="curve" smooth="yes"/>
      <point x="58.0" y="55.0" type="line" smooth="yes"/>
      <point x="58.94301943119794" y="12.736307161738532"/>
      <point x="95.5340535687596" y="3.560162961062849"/>
      <point x="158.0" y="4.0" type="curve" smooth="yes"/>
      <point x="160.0" y="4.0" type="line" smooth="yes"/>
      <point x="222.46594643124038" y="3.560162961062849"/>
      <point x="259.05698056880203" y="12.736307161738532"/>
      <point x="260.0" y="55.0" type="curve" smooth="yes"/>
      <point x="260.0" y="457.0" type="line" smooth="yes"/>
      <point x="259.3291542188732" y="662.1597162831123"/>
      <point x="329.22782980652215" y="808.9382936936049"/>
      <point x="408.0" y="812.0" type="curve" smooth="yes"/>
      <point x="464.08148031422996" y="810.4424106609687"/>
      <point x="477.48379097363943" y="751.6881624893991"/>
      <point x="477.0" y="660.0" type="curve" smooth="yes"/>
      <point x="477.0" y="55.0" type="line" smooth="yes"/>
      <point x="477.94301943119797" y="12.736307161738532"/>
      <point x="514.5340535687596" y="3.560162961062849"/>
      <point x="577.0" y="4.0" type="curve" smooth="yes"/>
      <point x="579.0" y="4.0" type="line" smooth="yes"/>
      <point x="641.4659464312404" y="3.560162961062849"/>
      <point x="678.056980568802" y="12.736307161738532"/>
      <point x="679.0" y="55.0" type="curve" smooth="yes"/>
      <point x="679.0" y="457.0" type="line" smooth="yes"/>
      <point x="678.3291542188732" y="662.1597162831123"/>
      <point x="748.2278298065222" y="808.9382936936049"/>
      <point x="827.0" y="812.0" type="curve" smooth="yes"/>
      <point x="883.08148031423" y="810.4424106609687"/>
      <point x="896.4837909736394" y="751.6881624893991"/>
      <point x="896.0" y="660.0" type="curve" smooth="yes"/>
      <point x="896.0" y="55.0" type="line" smooth="yes"/>
      <point x="896.943019431198" y="12.736307161738532"/>
      <point x="933.5340535687596" y="3.560162961062849"/>
      <point x="996.0" y="4.0" type="curve" smooth="yes"/>
      <point x="998.0" y="4.0" type="line" smooth="yes"/>
      <point x="1060.4659464312404" y="3.560162961062849"/>
      <point x="1097.0569805688021" y="12.736307161738532"/>
      <point x="1098.0" y="55.0" type="curve" smooth="yes"/>
      <point x="1098.0" y="678.0" type="line" smooth="yes"/>
      <point x="1096.5630926313295" y="856.4102832080954"/>
      <point x="988.8761148376503" y="933.0493299549726"/>
      <point x="865.0" y="932.0" type="curve" smooth="yes"/>
      <point x="764.4752778785056" y="932.7738991856867"/>
      <point x="675.1596919016093" y="877.9518884400285"/>
    </contour>
  </outline>
</glyph>
<glyph name="n" format="2">
  <advance width="1010"/>
  <unicode hex="006E"/>
  <outline>
    <contour>
      <point x="228.24723726559324" y="738.6938496491014" type="curve" smooth="yes"/>
      <point x="221.6313783748287" y="713.3653101444442"/>
      <point x="247.95654339611804" y="723.119565477573"/>
      <point x="250.0" y="754.0" type="curve" smooth="yes"/>
      <point x="250.0" y="869.0" type="line" smooth="yes"/>
      <point x="249.2463868523039" y="911.6537333402863"/>
      <point x="214.90251186531117" y="920.5023755832175"/>
      <point x="155.0" y="920.0" type="curve" smooth="yes"/>
      <point x="153.0" y="920.0" type="line" smooth="yes"/>
      <point x="93.09748813468883" y="920.5023755832175"/>
      <point x="58.753613147696086" y="911.6537333402863"/>
      <point x="58.0" y="869.0" type="curve" smooth="yes"/>
      <point x="58.0" y="55.0" type="line" smooth="yes"/>
      <point x="58.94301943119794" y="12.736307161738532"/>
      <point x="95.5340535687596" y="3.560162961062849"/>
      <point x="158.0" y="4.0" type="curve" smooth="yes"/>
      <point x="160.0" y="4.0" type="line" smooth="yes"/>
      <point x="222.46594643124038" y="3.560162961062849"/>
      <point x="259.05698056880203" y="12.736307161738532"/>
      <point x="260.0" y="55.0" type="curve" smooth="yes"/>
      <point x="260.0" y="392.0" type="line" smooth="yes"/>
      <point x="257.571133588076" y="625.90841412221"/>
      <point x="434.5238529376295" y="810.5497447721808"/>
      <point x="594.0" y="812.0" type="curve" smooth="yes"/>
      <point x="712.7580982369417" y="810.8680304202528"/>
      <point x="750.928170491976" y="723.7073131715731"/>
      <point x="750.0" y="605.0" type="curve" smooth="yes"/>
      <point x="750.0" y="55.0" type="line" smooth="yes"/>
      <point x="750.943019431198" y="12.736307161738532"/>
      <point x="787.5340535687596" y="3.560162961062849"/>
      <point x="850.0" y="4.0" type="curve" smooth="yes"/>
      <point x="852.0" y="4.0" type="line" smooth="yes"/>
      <point x="914.4659464312404" y="3.560162961062849"/>
      <point x="951.056980568802" y="12.736307161738532"/>
      <point x="952.0" y="55.0" type="curve" smooth="yes"/>
      <point x="952.0" y="620.0" type="line" smooth="yes"/>
      <point x="950.5660520881995" y="815.4148779608859"/>
      <point x="822.6035699974854" y="932.9900355162271"/>
      <point x="609.0" y="932.0" type="curve" smooth="yes"/>
      <point x="454.407208742172" y="932.7866767566387"/>
      <point x="294.2135283422415" y="831.7884999646037"/>
    </contour>
  </outline>
</glyph>
<glyph name="o" format="2">
  <advance width="1096"/>
  <unicode hex="006F"/>
  <outline>
    <contour>
      <point x="42.0" y="462.0" type="curve" smooth="yes"/>
      <point x="44.04120906330775" y="185.4375641223135"/>
      <point x="261.91498213021697" y="-9.096092900810739"/>
      <point x="548.0" y="-8.0" type="curve" smooth="yes"/>
      <point x="834.0850178697831" y="-9.096092900810739"/>
      <point x="1051.9587909366924" y="185.4375641223135"/>
      <point x="1054.0" y="462.0" type="curve" smooth="yes"/>
      <point x="1051.9587909366924" y="738.5624358776865"/>
      <point x="834.0850178697831" y="933.0960929008107"/>
      <point x="548.0" y="932.0" type="curve" smooth="yes"/>
      <point x="261.91498213021697" y="933.0960929008107"/>
      <point x="44.04120906330775" y="738.5624358776865"/>
    </contour>
    <contour>
      <point x="848.0" y="462.0" type="curve" smooth="yes"/>
      <point x="849.7516623403442" y="259.9482629875717"/>
      <point x="733.8023872634418" y="113.12177517165149"/>
      <point x="548.0" y="112.0" type="curve" smooth="yes"/>
      <point x="362.1976127365582" y="113.12177517165149"/>
      <point x="246.24833765965576" y="259.9482629875717"/>
      <point x="248.0" y="462.0" type="curve" smooth="yes"/>
      <point x="246.24833765965576" y="664.0517370124282"/>
      <point x="362.1976127365582" y="810.8782248283485"/>
      <point x="548.0" y="812.0" type="curve" smooth="yes"/>
      <point x="733.8023872634418" y="810.8782248283485"/>
      <point x="849.7516623403442" y="664.0517370124282"/>
    </contour>
  </outline>
</glyph>
<glyph name="p" format="2">
  <advance width="1033"/>
  <unicode hex="0070"/>
  <outline>
    <contour>
      <point x="211.1223835370261" y="798.4870661926536" type="curve" smooth="yes"/>
      <point x="206.95177123611677" y="778.2126350824872"/>
      <point x="231.65653553902536" y="788.5495918255265"/>
      <point x="234.0" y="815.06" type="curve" smooth="yes"/>
      <point x="234.0" y="869.0" type="line" smooth="yes"/>
      <point x="233.2463868523039" y="911.6537333402863"/>
      <point x="198.90251186531117" y="920.5023755832175"/>
      <point x="139.0" y="920.0" type="curve" smooth="yes"/>
      <point x="137.0" y="920.0" type="line" smooth="yes"/>
      <point x="77.09748813468883" y="920.5023755832175"/>
      <point x="42.753613147696086" y="911.6537333402863"/>
      <point x="42.0" y="869.0" type="curve" smooth="yes"/>
      <point x="42.0" y="-333.0" type="line" smooth="yes"/>
      <point x="42.94301943119794" y="-375.2636928382615"/>
      <point x="79.5340535687596" y="-384.4398370389371"/>
      <point x="142.0" y="-384.0" type="curve" smooth="yes"/>
      <point x="144.0" y="-384.0" type="line" smooth="yes"/>
      <point x="206.46594643124038" y="-384.4398370389371"/>
      <point x="243.05698056880206" y="-375.2636928382615"/>
      <point x="244.0" y="-333.0" type="curve" smooth="yes"/>
      <point x="244.0" y="95.0" type="line" smooth="yes"/>
      <point x="241.6182826872234" y="126.29356788099014"/>
      <point x="220.04742428380635" y="137.70298665123835"/>
      <point x="227.16452803743937" y="113.870995059452" type="curve" smooth="yes"/>
      <point x="281.46411573495476" y="51.80369815247051"/>
      <point x="395.32056993507547" y="-8.469872432588744"/>
      <point x="535.0" y="-8.0" type="curve" smooth="yes"/>
      <point x="792.1342726520184" y="-9.107286271100888"/>
      <point x="989.3196894511595" y="164.95129087522812"/>
      <point x="991.0" y="462.0" type="curve" smooth="yes"/>
      <point x="989.3196894511595" y="759.0487091247719"/>
      <point x="792.1342726520184" y="933.1072862711009"/>
      <point x="535.0" y="932.0" type="curve" smooth="yes"/>
      <point x="395.5249329649239" y="932.4410989436441"/>
      <point x="273.55643409061526" y="872.1555244427202"/>
    </contour>
    <contour>
      <point x="785.0" y="462.0" type="curve" smooth="yes"/>
      <point x="786.1835205710893" y="261.82415009609673"/>
      <point x="694.5688223977744" y="113.42570463755185"/>
      <point x="525.0" y="112.0" type="curve" smooth="yes"/>
      <point x="357.73733765378444" y="113.0188966389685"/>
      <point x="242.24833765965576" y="244.94826298757172"/>
      <point x="244.0" y="462.0" type="curve" smooth="yes"/>
      <point x="242.24833765965576" y="679.0517370124282"/>
      <point x="357.73733765378444" y="810.9811033610315"/>
      <point x="525.0" y="812.0" type="curve" smooth="yes"/>
      <point x="694.5688223977744" y="810.5742953624482"/>
      <point x="786.1835205710893" y="662.1758499039032"/>
    </contour>
  </outline>
</glyph>
